<svg width="17" height="16" viewBox="0 0 17 16" fill="none" xmlns="http://www.w3.org/2000/svg">
<path d="M13.3368 10.3497L12.5883 10.3035L13.3368 10.3497ZM14.4986 3.71262C14.5241 3.29919 14.2097 2.94333 13.7963 2.91777C13.3829 2.89221 13.027 3.20664 13.0014 3.62007L14.4986 3.71262ZM4.49864 3.62115C4.47368 3.20769 4.11827 2.89274 3.70481 2.9177C3.29134 2.94266 2.9764 3.29808 3.00136 3.71154L4.49864 3.62115ZM4.15307 10.3431L4.90171 10.2979L4.15307 10.3431ZM12.7505 13.5249L13.3657 13.9539L13.3657 13.9539L12.7505 13.5249ZM11.9505 14.277L11.5603 13.6365H11.5603L11.9505 14.277ZM4.73579 13.5229L5.35139 13.0945H5.35139L4.73579 13.5229ZM5.53604 14.2763L5.92657 13.636L5.53604 14.2763ZM2.75 2.91634C2.33579 2.91634 2 3.25213 2 3.66634C2 4.08055 2.33579 4.41634 2.75 4.41634V2.91634ZM14.75 4.41634C15.1642 4.41634 15.5 4.08055 15.5 3.66634C15.5 3.25213 15.1642 2.91634 14.75 2.91634V4.41634ZM10.9987 2.72749L10.3238 3.05465V3.05465L10.9987 2.72749ZM6.5224 2.78051L7.20485 3.09159L6.5224 2.78051ZM7.2282 1.60845L7.68471 2.20351L7.68471 2.20351L7.2282 1.60845ZM7.41379 1.48909L7.06167 0.826882L7.06167 0.826883L7.41379 1.48909ZM10.2845 1.59755L10.7329 0.996348L10.7329 0.996345L10.2845 1.59755ZM10.1013 1.48281L9.75596 2.14855L9.75596 2.14855L10.1013 1.48281ZM6.33333 10.9997C6.33333 11.4139 6.66912 11.7497 7.08333 11.7497C7.49755 11.7497 7.83333 11.4139 7.83333 10.9997H6.33333ZM7.83333 6.99967C7.83333 6.58546 7.49755 6.24967 7.08333 6.24967C6.66912 6.24967 6.33333 6.58546 6.33333 6.99967H7.83333ZM9.66667 10.9997C9.66667 11.4139 10.0025 11.7497 10.4167 11.7497C10.8309 11.7497 11.1667 11.4139 11.1667 10.9997H9.66667ZM11.1667 6.99967C11.1667 6.58546 10.8309 6.24967 10.4167 6.24967C10.0025 6.24967 9.66667 6.58546 9.66667 6.99967H11.1667ZM13.3368 10.3497L14.0854 10.396L14.4986 3.71262L13.75 3.66634L13.0014 3.62007L12.5883 10.3035L13.3368 10.3497ZM3.75 3.66634L3.00136 3.71154L3.40443 10.3883L4.15307 10.3431L4.90171 10.2979L4.49864 3.62115L3.75 3.66634ZM13.3368 10.3497L12.5883 10.3035C12.5346 11.1718 12.4968 11.7701 12.4239 12.23C12.3528 12.6778 12.2583 12.9195 12.1353 13.0959L12.7505 13.5249L13.3657 13.9539C13.6707 13.5165 13.8166 13.0244 13.9053 12.465C13.9922 11.9176 14.0335 11.2352 14.0854 10.396L13.3368 10.3497ZM8.74516 14.6663V15.4163C9.586 15.4163 10.2696 15.4171 10.8213 15.3643C11.3851 15.3102 11.8853 15.195 12.3407 14.9175L11.9505 14.277L11.5603 13.6365C11.3766 13.7484 11.1295 13.8278 10.6782 13.8711C10.2146 13.9155 9.61516 13.9163 8.74516 13.9163V14.6663ZM12.7505 13.5249L12.1353 13.0959C11.9832 13.3141 11.7874 13.4982 11.5603 13.6365L11.9505 14.277L12.3407 14.9175C12.7455 14.6709 13.0946 14.3427 13.3657 13.9539L12.7505 13.5249ZM4.15307 10.3431L3.40443 10.3883C3.45517 11.2287 3.49562 11.912 3.58179 12.4602C3.66986 13.0203 3.81526 13.5132 4.12019 13.9513L4.73579 13.5229L5.35139 13.0945C5.22844 12.9178 5.13411 12.6757 5.06359 12.2272C4.99118 11.7666 4.9542 11.1675 4.90171 10.2979L4.15307 10.3431ZM8.74516 14.6663V13.9163C7.87403 13.9163 7.27373 13.9155 6.80963 13.871C6.35766 13.8277 6.11033 13.7481 5.92657 13.636L5.53604 14.2763L5.1455 14.9166C5.60124 15.1946 6.10194 15.31 6.66638 15.3642C7.2187 15.4171 7.90321 15.4163 8.74516 15.4163V14.6663ZM4.73579 13.5229L4.12019 13.9513C4.39122 14.3408 4.74041 14.6695 5.1455 14.9166L5.53604 14.2763L5.92657 13.636C5.69932 13.4974 5.50344 13.313 5.35139 13.0945L4.73579 13.5229ZM2.75 3.66634V4.41634H6.11862V3.66634V2.91634H2.75V3.66634ZM6.11862 3.66634V4.41634H11.4538V3.66634V2.91634H6.11862V3.66634ZM11.4538 3.66634V4.41634H14.75V3.66634V2.91634H11.4538V3.66634ZM10.9987 2.72749L10.3238 3.05465L10.7789 3.9935L11.4538 3.66634L12.1287 3.33918L11.6736 2.40034L10.9987 2.72749ZM6.5224 2.78051L5.83996 2.46943L5.43617 3.35526L6.11862 3.66634L6.80106 3.97742L7.20485 3.09159L6.5224 2.78051ZM6.5224 2.78051L7.20485 3.09159C7.35778 2.7561 7.45248 2.55007 7.53832 2.39961C7.61711 2.26153 7.6605 2.22208 7.68471 2.20351L7.2282 1.60845L6.77169 1.01339C6.53212 1.19718 6.36996 1.42053 6.23546 1.65627C6.10802 1.87964 5.98171 2.15846 5.83996 2.46943L6.5224 2.78051ZM8.77302 1.33301V0.583008C8.43126 0.583008 8.12516 0.582291 7.86906 0.605606C7.59876 0.630213 7.32827 0.685125 7.06167 0.826882L7.41379 1.48909L7.7659 2.15129C7.79284 2.13697 7.84673 2.11384 8.00505 2.09943C8.17756 2.08372 8.40431 2.08301 8.77302 2.08301V1.33301ZM7.2282 1.60845L7.68471 2.20351C7.71028 2.1839 7.73744 2.16643 7.7659 2.15129L7.41379 1.48909L7.06167 0.826883C6.96003 0.880932 6.86303 0.943315 6.77169 1.01339L7.2282 1.60845ZM10.9987 2.72749L11.6736 2.40034C11.5282 2.1004 11.3984 1.83117 11.2691 1.6156C11.1324 1.388 10.9695 1.17287 10.7329 0.996348L10.2845 1.59755L9.83608 2.19874C9.86016 2.2167 9.90321 2.25471 9.98294 2.38756C10.0699 2.53243 10.1669 2.73094 10.3238 3.05465L10.9987 2.72749ZM8.77302 1.33301V2.08301C9.13276 2.08301 9.3537 2.0837 9.52199 2.09875C9.67631 2.11255 9.7293 2.13471 9.75596 2.14855L10.1013 1.48281L10.4467 0.817071C10.1847 0.681104 9.92001 0.628362 9.65562 0.604715C9.40519 0.582317 9.10634 0.583008 8.77302 0.583008V1.33301ZM10.2845 1.59755L10.7329 0.996345C10.6425 0.928947 10.5468 0.868991 10.4467 0.817071L10.1013 1.48281L9.75596 2.14855C9.78398 2.16308 9.81077 2.17987 9.83608 2.19874L10.2845 1.59755ZM7.08333 10.9997H7.83333L7.83333 6.99967H7.08333H6.33333L6.33333 10.9997H7.08333ZM10.4167 10.9997H11.1667V6.99967H10.4167H9.66667V10.9997H10.4167Z" fill="#1E1E1E"/>
</svg>
