<svg width="214" height="48" viewBox="0 0 214 48" fill="none" xmlns="http://www.w3.org/2000/svg">
<path d="M28.0404 18.0254C28.0404 20.2843 27.2883 22.3718 26.0224 24.0512C24.1925 26.478 21.288 28.05 18.021 28.05V36.0542C20.8935 36.0542 23.6116 35.3774 26.0224 34.1766C31.9555 31.2224 36.0419 25.0942 36.0419 18.0254C36.0419 8.08654 27.9548 6.29425e-05 18.0193 6.29425e-05C8.08374 6.29425e-05 0.211537 7.87661 0.00671547 17.6358H0V48H8.00148V18.0254C8.00148 12.5001 12.4941 8.00425 18.0193 8.00425C23.5444 8.00425 28.0387 12.5001 28.0387 18.0254H28.0404Z" fill="#163066"/>
<path d="M47.982 17.6358H39.9772C39.9805 17.7651 39.9839 17.8961 39.9839 18.0254C39.9839 30.1392 30.1323 39.9958 18.021 39.9958V48C34.5427 48 47.9854 34.5544 47.9854 18.0254C47.9854 17.8961 47.9854 17.7651 47.9837 17.6358H47.982Z" fill="#1594CC"/>
<path d="M52.9849 31.9917H44.9834V39.9958H52.9849V31.9917Z" fill="#1594CC"/>
<path d="M36.9818 48H44.9833V39.9958C40.5645 39.9958 36.9818 43.5798 36.9818 48Z" fill="#1594CC"/>
<path d="M62.5837 35.4386V8.28593H67.2317L67.8316 10.836C68.2071 10.3106 68.6694 9.81764 69.2183 9.35524C69.7672 8.89284 70.4232 8.52393 71.1863 8.24853C71.9476 7.97313 72.8296 7.83543 73.8289 7.83543C75.5776 7.83543 77.1343 8.27403 78.4955 9.14784C79.8568 10.0233 80.9257 11.2049 81.7007 12.6924C82.4756 14.1799 82.8631 15.8748 82.8631 17.7737C82.8631 19.6726 82.4637 21.3675 81.6633 22.8551C80.8629 24.3426 79.7888 25.5122 78.4395 26.3622C77.0901 27.2122 75.5657 27.6372 73.8663 27.6372C72.4914 27.6372 71.2984 27.3873 70.2855 26.8875C69.2727 26.3877 68.4553 25.6873 67.8299 24.788V35.4386H62.582H62.5837ZM72.5951 23.0625C73.5451 23.0625 74.3948 22.8381 75.1442 22.3876C75.8937 21.937 76.4817 21.3131 76.9066 20.5124C77.3314 19.7117 77.5439 18.8005 77.5439 17.7754C77.5439 16.7503 77.3314 15.8 76.9066 15.001C76.4817 14.2003 75.8937 13.5696 75.1442 13.1072C74.3948 12.6448 73.5451 12.4136 72.5951 12.4136C71.6451 12.4136 70.7631 12.6448 70.0272 13.1072C69.2897 13.5696 68.7085 14.2003 68.2836 15.001C67.8587 15.8017 67.6463 16.7146 67.6463 17.738C67.6463 18.7614 67.8587 19.7134 68.2836 20.5124C68.7085 21.3131 69.2897 21.937 70.0272 22.3876C70.7648 22.8381 71.6213 23.0625 72.5951 23.0625Z" fill="#163066"/>
<path d="M85.0028 27.1884V8.28595H89.6508L90.1386 11.7744C90.6127 10.9499 91.1888 10.2495 91.8635 9.67486C92.5382 9.10026 93.325 8.64975 94.2257 8.32505C95.1247 8.00035 96.1002 7.83714 97.1504 7.83714V13.3877H95.3881C94.6387 13.3877 93.9453 13.4761 93.308 13.6495C92.6707 13.8246 92.1201 14.1068 91.6579 14.4927C91.1956 14.8803 90.8455 15.4056 90.6076 16.0669C90.3697 16.7299 90.2507 17.5612 90.2507 18.5608V27.1867H85.0028V27.1884Z" fill="#163066"/>
<path d="M100.974 5.84809C100.024 5.84809 99.249 5.56759 98.6491 5.00489C98.0492 4.44218 97.7501 3.74857 97.7501 2.92407C97.7501 2.09956 98.0509 1.37365 98.6491 0.824549C99.249 0.275444 100.024 4.19617e-05 100.974 4.19617e-05C101.924 4.19617e-05 102.699 0.275444 103.299 0.824549C103.899 1.37535 104.198 2.07576 104.198 2.92407C104.198 3.77237 103.899 4.44218 103.299 5.00489C102.699 5.56759 101.924 5.84809 100.974 5.84809ZM98.3483 27.1884V8.28591H103.596V27.1867H98.3483V27.1884Z" fill="#163066"/>
<path d="M115.331 27.6372C113.531 27.6372 111.907 27.219 110.457 26.3809C109.007 25.5428 107.864 24.3749 107.026 22.8738C106.188 21.3743 105.77 19.6743 105.77 17.7737C105.77 15.8731 106.188 14.0983 107.026 12.5989C107.864 11.0995 109.006 9.92984 110.457 9.09174C111.907 8.25363 113.543 7.83543 115.368 7.83543C117.194 7.83543 118.83 8.25363 120.28 9.09174C121.729 9.92984 122.873 11.0927 123.709 12.5802C124.547 14.0677 124.965 15.7864 124.965 17.7363C124.965 19.6862 124.54 21.4049 123.69 22.8925C122.841 24.38 121.697 25.5428 120.261 26.3809C118.823 27.219 117.18 27.6372 115.331 27.6372ZM115.331 23.0999C116.155 23.0999 116.881 22.8993 117.505 22.4998C118.128 22.1002 118.635 21.5001 119.022 20.6994C119.41 19.8987 119.603 18.9127 119.603 17.7363C119.603 16.5599 119.416 15.5739 119.041 14.7732C118.665 13.9725 118.161 13.3741 117.523 12.9729C116.886 12.5734 116.167 12.3728 115.368 12.3728C114.57 12.3728 113.881 12.5734 113.232 12.9729C112.581 13.3724 112.07 13.9725 111.696 14.7732C111.32 15.5739 111.133 16.5616 111.133 17.7363C111.133 18.911 111.32 19.8987 111.696 20.6994C112.071 21.5001 112.576 22.1002 113.213 22.4998C113.851 22.8993 114.556 23.0999 115.331 23.0999Z" fill="#163066"/>
<path d="M127.065 27.1884V8.28595H131.713L132.201 11.7744C132.675 10.9499 133.251 10.2495 133.926 9.67486C134.601 9.10026 135.387 8.64975 136.288 8.32505C137.187 8.00035 138.163 7.83714 139.213 7.83714V13.3877H137.451C136.701 13.3877 136.008 13.4761 135.37 13.6495C134.733 13.8246 134.183 14.1068 133.72 14.4927C133.258 14.8803 132.908 15.4056 132.67 16.0669C132.432 16.7299 132.313 17.5612 132.313 18.5608V27.1867H127.065V27.1884Z" fill="#163066"/>
<path d="M146.672 27.6372C145.122 27.6372 143.829 27.3805 142.792 26.8688C141.755 26.3571 140.992 25.6686 140.505 24.8067C140.017 23.9448 139.774 22.9877 139.774 21.937C139.774 20.8116 140.061 19.812 140.635 18.9365C141.21 18.061 142.097 17.3742 143.297 16.8744C144.497 16.3746 145.995 16.1247 147.795 16.1247H152.443C152.443 15.2254 152.324 14.4808 152.086 13.8926C151.848 13.3061 151.473 12.8607 150.961 12.5615C150.448 12.2623 149.768 12.111 148.919 12.111C147.994 12.111 147.212 12.3116 146.575 12.7111C145.938 13.1106 145.543 13.7107 145.394 14.5114H140.296C140.445 13.1616 140.895 11.992 141.645 11.0043C142.394 10.0165 143.4 9.24134 144.663 8.67863C145.924 8.11593 147.355 7.83543 148.956 7.83543C150.73 7.83543 152.273 8.13633 153.585 8.73473C154.897 9.33484 155.91 10.1967 156.622 11.3222C157.334 12.4476 157.691 13.8348 157.691 15.4855V27.1867H153.267L152.667 24.3358C152.418 24.8356 152.098 25.2861 151.712 25.6856C151.325 26.0851 150.881 26.4302 150.382 26.7175C149.882 27.0048 149.326 27.2292 148.713 27.3924C148.099 27.5556 147.42 27.6355 146.67 27.6355L146.672 27.6372ZM147.948 23.5878C148.572 23.5878 149.134 23.4824 149.636 23.2682C150.135 23.0557 150.56 22.7497 150.91 22.3502C151.26 21.9506 151.548 21.4933 151.772 20.9816C151.996 20.4699 152.147 19.9123 152.222 19.3122V19.2748H148.436C147.71 19.2748 147.117 19.3683 146.655 19.5553C146.193 19.7423 145.849 20.0058 145.623 20.3424C145.397 20.679 145.285 21.0615 145.285 21.4865C145.285 21.937 145.397 22.3247 145.623 22.6494C145.848 22.9741 146.16 23.2121 146.56 23.3617C146.959 23.5113 147.421 23.5861 147.946 23.5861L147.948 23.5878Z" fill="#1594CC"/>
<path d="M167.217 27.6372C165.692 27.6372 164.385 27.3176 163.299 26.68C162.212 26.0425 161.381 25.099 160.806 23.8478C160.232 22.5983 159.945 21.0598 159.945 19.2357V8.28589H165.192V18.7121C165.192 20.1877 165.498 21.3063 166.11 22.0679C166.722 22.8312 167.679 23.212 168.979 23.212C169.803 23.212 170.541 23.025 171.192 22.6493C171.841 22.2736 172.347 21.7296 172.709 21.0173C173.071 20.305 173.253 19.4227 173.253 18.3738V8.28589H178.501V27.1867H173.89L173.477 24.1487C172.927 25.1993 172.121 26.0425 171.059 26.68C169.997 27.3176 168.715 27.6372 167.217 27.6372Z" fill="#1594CC"/>
<path d="M189.785 27.1884C188.459 27.1884 187.292 26.9759 186.279 26.5509C185.266 26.1259 184.486 25.4255 183.936 24.4514C183.385 23.4756 183.111 22.1513 183.111 20.4768V12.6771H179.85V8.28936H183.111L183.674 3.07712H188.322V8.28936H193.271V12.6771H188.359V20.5159C188.359 21.3404 188.541 21.9167 188.903 22.2414C189.265 22.5661 189.884 22.7293 190.759 22.7293H193.233V27.1918H189.785V27.1884Z" fill="#1594CC"/>
<path d="M195.334 27.1883V0.185318H200.582V11.0603C201.182 10.0845 201.999 9.3042 203.037 8.71599C204.074 8.12949 205.281 7.83538 206.655 7.83538C208.231 7.83538 209.555 8.16689 210.629 8.82989C211.703 9.4929 212.522 10.4551 213.084 11.7182C213.647 12.9813 213.927 14.5368 213.927 16.3865V27.1866H208.717V16.8727C208.717 15.397 208.404 14.2597 207.78 13.4607C207.155 12.66 206.193 12.2605 204.893 12.2605C204.069 12.2605 203.325 12.4611 202.662 12.8606C201.999 13.2601 201.487 13.8228 201.125 14.5487C200.763 15.2746 200.582 16.1485 200.582 17.1736V27.1866H195.334V27.1883Z" fill="#1594CC"/>
<path d="M130.529 43.3419C129.993 43.3351 129.468 43.2399 128.955 43.0563C128.442 42.8727 127.995 42.6245 127.614 42.3151C127.233 42.0057 126.968 41.6538 126.82 41.2594L127.74 40.8616C127.85 41.1523 128.061 41.4141 128.374 41.647C128.686 41.8799 129.042 42.0618 129.439 42.1944C129.837 42.327 130.224 42.3933 130.607 42.3933C131.038 42.3933 131.446 42.3185 131.827 42.1706C132.208 42.0227 132.517 41.8119 132.756 41.5416C132.996 41.2713 133.115 40.95 133.115 40.5828C133.115 40.1952 132.989 39.8909 132.738 39.6682C132.486 39.4455 132.165 39.2653 131.774 39.1259C131.383 38.9865 130.982 38.8573 130.569 38.7331C129.859 38.5274 129.244 38.3149 128.725 38.099C128.205 37.8831 127.804 37.606 127.521 37.2711C127.237 36.9362 127.094 36.4925 127.094 35.9434C127.094 35.3943 127.259 34.8809 127.588 34.461C127.918 34.0411 128.35 33.7164 128.885 33.4869C129.42 33.2574 129.995 33.1435 130.608 33.1435C131.402 33.1435 132.124 33.3186 132.773 33.6671C133.423 34.0156 133.878 34.4746 134.143 35.0424L133.292 35.5456C133.163 35.2481 132.959 34.9931 132.682 34.7806C132.405 34.5681 132.087 34.4032 131.733 34.2859C131.38 34.1686 131.02 34.1091 130.659 34.1023C130.207 34.0955 129.786 34.1652 129.395 34.3097C129.004 34.4542 128.69 34.665 128.452 34.9387C128.212 35.2124 128.093 35.5439 128.093 35.9315C128.093 36.3191 128.204 36.6166 128.423 36.8223C128.642 37.0297 128.95 37.1946 129.342 37.3204C129.737 37.4462 130.19 37.5941 130.707 37.7607C131.307 37.9477 131.868 38.1568 132.388 38.3846C132.908 38.6141 133.327 38.8998 133.647 39.2415C133.966 39.5832 134.123 40.0269 134.116 40.5692C134.116 41.137 133.946 41.6317 133.608 42.0516C133.27 42.4715 132.826 42.7945 132.281 43.0206C131.735 43.2467 131.152 43.3538 130.532 43.3402L130.529 43.3419Z" fill="#1E1E1E"/>
<path d="M139.274 39.4081V33.4699H140.319V39.2432C140.319 39.8178 140.46 40.3414 140.741 40.8123C141.021 41.2832 141.398 41.6589 141.869 41.936C142.34 42.2131 142.86 42.3525 143.427 42.3525C143.995 42.3525 144.524 42.2131 144.991 41.936C145.458 41.6589 145.834 41.2832 146.114 40.8123C146.395 40.3414 146.536 39.8178 146.536 39.2432V33.4699H147.581V43.1566H146.536V41.6555C146.187 42.1859 145.727 42.6092 145.156 42.9288C144.585 43.2484 143.956 43.4082 143.273 43.4082C142.537 43.4082 141.866 43.2297 141.259 42.871C140.652 42.5123 140.17 42.0295 139.811 41.4226C139.452 40.8157 139.274 40.1442 139.274 39.4081Z" fill="#1E1E1E"/>
<path d="M154.321 48H153.276V33.47H154.321V35.4658C154.662 34.7943 155.142 34.252 155.758 33.8389C156.375 33.4258 157.113 33.2184 157.971 33.2184C158.675 33.2184 159.332 33.351 159.946 33.6162C160.559 33.8814 161.1 34.2469 161.567 34.7161C162.034 35.1836 162.402 35.7259 162.667 36.3379C162.932 36.9516 163.064 37.6095 163.064 38.3133C163.064 39.0171 162.932 39.6784 162.667 40.2989C162.402 40.9194 162.036 41.4634 161.567 41.9309C161.098 42.3984 160.558 42.7656 159.946 43.0308C159.332 43.296 158.675 43.4286 157.971 43.4286C157.113 43.4286 156.375 43.2212 155.758 42.8081C155.142 42.395 154.662 41.8527 154.321 41.1812V48ZM157.963 34.2452C157.227 34.2452 156.593 34.4271 156.059 34.7926C155.527 35.1581 155.116 35.646 154.829 36.2597C154.542 36.8734 154.397 37.5568 154.397 38.3133C154.397 39.0698 154.538 39.7379 154.824 40.3567C155.108 40.9772 155.515 41.4719 156.049 41.8442C156.581 42.2148 157.218 42.4018 157.961 42.4018C158.704 42.4018 159.36 42.2216 159.97 41.8595C160.58 41.4974 161.073 41.0095 161.446 40.3924C161.82 39.7753 162.007 39.0834 162.007 38.315C162.007 37.5466 161.825 36.8921 161.46 36.2767C161.095 35.6596 160.609 35.1683 159.999 34.7994C159.388 34.4305 158.709 34.2469 157.961 34.2469L157.963 34.2452Z" fill="#1E1E1E"/>
<path d="M169.668 48H168.623V33.47H169.668V35.4658C170.01 34.7943 170.489 34.252 171.106 33.8389C171.723 33.4258 172.46 33.2184 173.319 33.2184C174.022 33.2184 174.68 33.351 175.293 33.6162C175.907 33.8814 176.447 34.2469 176.915 34.7161C177.382 35.1836 177.749 35.7259 178.014 36.3379C178.279 36.9516 178.412 37.6095 178.412 38.3133C178.412 39.0171 178.279 39.6784 178.014 40.2989C177.749 40.9194 177.384 41.4634 176.915 41.9309C176.446 42.3984 175.905 42.7656 175.293 43.0308C174.68 43.296 174.022 43.4286 173.319 43.4286C172.46 43.4286 171.723 43.2212 171.106 42.8081C170.489 42.395 170.01 41.8527 169.668 41.1812V48ZM173.31 34.2452C172.574 34.2452 171.94 34.4271 171.407 34.7926C170.875 35.1581 170.464 35.646 170.176 36.2597C169.889 36.8734 169.745 37.5568 169.745 38.3133C169.745 39.0698 169.886 39.7379 170.171 40.3567C170.455 40.9772 170.863 41.4719 171.397 41.8442C171.928 42.2148 172.566 42.4018 173.308 42.4018C174.051 42.4018 174.707 42.2216 175.317 41.8595C175.927 41.4974 176.42 41.0095 176.794 40.3924C177.168 39.7753 177.355 39.0834 177.355 38.315C177.355 37.5466 177.173 36.8921 176.808 36.2767C176.442 35.6596 175.956 35.1683 175.346 34.7994C174.736 34.4305 174.056 34.2469 173.308 34.2469L173.31 34.2452Z" fill="#1E1E1E"/>
<path d="M188.097 43.41C187.206 43.41 186.394 43.1805 185.662 42.7215C184.929 42.2625 184.345 41.6487 183.91 40.8769C183.474 40.1051 183.255 39.2517 183.255 38.315C183.255 37.6044 183.381 36.9414 183.633 36.3243C183.884 35.7072 184.231 35.1649 184.674 34.6974C185.116 34.2299 185.631 33.8627 186.219 33.5975C186.807 33.3323 187.432 33.1997 188.097 33.1997C188.987 33.1997 189.8 33.4292 190.532 33.8882C191.265 34.3472 191.849 34.9626 192.284 35.7378C192.719 36.513 192.939 37.3715 192.939 38.315C192.939 39.0188 192.813 39.6784 192.561 40.2904C192.31 40.9041 191.963 41.4447 191.521 41.9122C191.079 42.3797 190.566 42.747 189.982 43.0122C189.397 43.2774 188.77 43.41 188.099 43.41H188.097ZM188.097 42.3628C188.814 42.3628 189.458 42.1757 190.029 41.8C190.6 41.426 191.054 40.9313 191.389 40.3176C191.724 39.7039 191.892 39.0358 191.892 38.3133C191.892 37.5908 191.724 36.9091 191.389 36.2886C191.052 35.6681 190.599 35.1734 190.024 34.8011C189.45 34.4288 188.807 34.2435 188.097 34.2435C187.387 34.2435 186.736 34.4305 186.16 34.8045C185.585 35.1785 185.131 35.6749 184.798 36.292C184.465 36.9091 184.3 37.5823 184.3 38.3116C184.3 39.0409 184.474 39.7498 184.819 40.3601C185.164 40.9704 185.624 41.4566 186.199 41.8187C186.773 42.1808 187.405 42.361 188.097 42.361V42.3628Z" fill="#1E1E1E"/>
<path d="M198.496 43.1567V33.47H199.541V34.9524C199.89 34.4169 200.352 33.9902 200.926 33.674C201.501 33.3578 202.128 33.1997 202.804 33.1997C203.185 33.1997 203.55 33.249 203.899 33.3442L203.464 34.371C203.187 34.2928 202.915 34.2554 202.65 34.2554C202.082 34.2554 201.562 34.3948 201.091 34.6719C200.62 34.949 200.243 35.3247 199.963 35.7956C199.682 36.2665 199.541 36.7901 199.541 37.3647V43.1567H198.496Z" fill="#1E1E1E"/>
<path d="M214 34.5171H211.549L211.539 43.1583H210.494L210.504 34.5171H208.655V33.4716H210.504L210.494 30.4303H211.539L211.549 33.4716H214V34.5171Z" fill="#1E1E1E"/>
</svg>
