<svg width="1520" height="300" viewBox="0 0 1520 300" fill="none" xmlns="http://www.w3.org/2000/svg">
<path d="M0.0170846 355.993V83.2983H46.6978L52.7228 108.908C56.4948 103.633 61.1373 98.6814 66.6502 94.0374C72.1632 89.3935 78.7513 85.6886 86.4148 82.9227C94.0613 80.1569 102.92 78.7739 112.955 78.7739C130.518 78.7739 146.153 83.1788 159.824 91.9545C173.495 100.747 184.231 112.613 192.014 127.552C199.797 142.491 203.688 159.513 203.688 178.584C203.688 197.655 199.677 214.677 191.638 229.616C183.6 244.555 172.813 256.302 159.261 264.839C145.709 273.375 130.399 277.643 113.331 277.643C99.523 277.643 87.5413 275.134 77.3689 270.114C67.1964 265.095 58.9867 258.06 52.7057 249.029V355.993H0H0.0170846ZM100.564 231.699C110.105 231.699 118.639 229.446 126.166 224.921C133.693 220.397 139.598 214.131 143.865 206.089C148.132 198.048 150.266 188.897 150.266 178.601C150.266 168.306 148.132 158.762 143.865 150.738C139.598 142.696 133.693 136.362 126.166 131.718C118.639 127.074 110.105 124.752 100.564 124.752C91.0232 124.752 82.1649 127.074 74.7745 131.718C67.367 136.362 61.5298 142.696 57.2629 150.738C52.9959 158.779 50.8624 167.948 50.8624 178.226C50.8624 188.504 52.9959 198.065 57.2629 206.089C61.5298 214.131 67.367 220.397 74.7745 224.921C82.182 229.446 90.7842 231.699 100.564 231.699Z" fill="#B2E8FF"/>
<path d="M225.179 273.134V83.2959H271.86L276.758 118.33C281.52 110.05 287.306 103.016 294.082 97.2448C300.858 91.474 308.76 86.9496 317.806 83.6886C326.835 80.4276 336.632 78.7886 347.18 78.7886V134.533H329.481C321.954 134.533 314.99 135.421 308.59 137.162C302.189 138.921 296.659 141.755 292.017 145.63C287.374 149.523 283.858 154.799 281.469 161.44C279.079 168.099 277.884 176.448 277.884 186.487V273.117H225.179V273.134Z" fill="#B2E8FF"/>
<path d="M385.581 58.8141C376.04 58.8141 368.257 55.997 362.232 50.3458C356.207 44.6945 353.203 37.7286 353.203 29.4481C353.203 21.1675 356.224 13.8772 362.232 8.36257C368.257 2.8479 376.04 0.0820312 385.581 0.0820312C395.122 0.0820312 402.904 2.8479 408.929 8.36257C414.954 13.8943 417.958 20.9285 417.958 29.4481C417.958 37.9676 414.954 44.6945 408.929 50.3458C402.904 55.997 395.122 58.8141 385.581 58.8141ZM359.211 273.135V83.2972H411.916V273.118H359.211V273.135Z" fill="#B2E8FF"/>
<path d="M529.772 277.644C511.697 277.644 495.38 273.443 480.821 265.026C466.262 256.609 454.775 244.88 446.361 229.804C437.946 214.746 433.747 197.672 433.747 178.584C433.747 159.496 437.946 141.672 446.361 126.613C454.775 111.555 466.245 99.8082 480.821 91.3911C495.38 82.974 511.816 78.7739 530.147 78.7739C548.478 78.7739 564.914 82.974 579.473 91.3911C594.032 99.8082 605.519 111.486 613.916 126.425C622.331 141.365 626.529 158.626 626.529 178.209C626.529 197.792 622.262 215.053 613.729 229.992C605.195 244.931 593.708 256.609 579.286 265.026C564.846 273.443 548.341 277.644 529.772 277.644ZM529.772 232.075C538.049 232.075 545.337 230.06 551.601 226.048C557.865 222.036 562.951 216.009 566.843 207.967C570.734 199.926 572.68 190.023 572.68 178.209C572.68 166.394 570.803 156.492 567.031 148.45C563.259 140.408 558.19 134.399 551.789 130.369C545.389 126.357 538.169 124.343 530.147 124.343C522.125 124.343 515.213 126.357 508.693 130.369C502.156 134.382 497.018 140.408 493.263 148.45C489.491 156.492 487.614 166.411 487.614 178.209C487.614 190.006 489.491 199.926 493.263 207.967C497.035 216.009 502.104 222.036 508.505 226.048C514.905 230.06 521.989 232.075 529.772 232.075Z" fill="#B2E8FF"/>
<path d="M647.622 273.134V83.2959H694.303L699.202 118.33C703.964 110.05 709.75 103.016 716.526 97.2448C723.301 91.474 731.204 86.9496 740.25 83.6886C749.279 80.4276 759.076 78.7886 769.624 78.7886V134.533H751.924C744.397 134.533 737.434 135.421 731.033 137.162C724.633 138.921 719.103 141.755 714.46 145.63C709.818 149.523 706.302 154.799 703.912 161.44C701.523 168.099 700.328 176.448 700.328 186.487V273.117H647.622V273.134Z" fill="#B2E8FF"/>
<path d="M844.536 277.644C828.97 277.644 815.981 275.065 805.57 269.926C795.158 264.787 787.495 257.873 782.596 249.216C777.698 240.56 775.257 230.948 775.257 220.397C775.257 209.094 778.141 199.055 783.91 190.262C789.679 181.47 798.589 174.572 810.639 169.553C822.689 164.533 837.742 162.023 855.817 162.023H902.498C902.498 152.991 901.303 145.513 898.914 139.606C896.524 133.716 892.752 129.243 887.615 126.238C882.46 123.233 875.633 121.713 867.099 121.713C857.814 121.713 849.963 123.728 843.563 127.74C837.162 131.752 833.203 137.779 831.701 145.821H780.497C781.999 132.265 786.522 120.518 794.049 110.599C801.576 100.679 811.68 92.8935 824.361 87.2423C837.026 81.591 851.397 78.7739 867.475 78.7739C885.294 78.7739 900.791 81.7959 913.968 87.8057C927.144 93.8326 937.317 102.489 944.468 113.791C951.62 125.094 955.204 139.026 955.204 155.604V273.119H910.776L904.751 244.487C902.242 249.507 899.033 254.031 895.159 258.043C891.268 262.056 886.813 265.521 881.795 268.407C876.777 271.292 871.196 273.546 865.034 275.185C858.873 276.824 852.045 277.626 844.518 277.626L844.536 277.644ZM857.354 236.975C863.617 236.975 869.267 235.916 874.302 233.765C879.32 231.631 883.587 228.558 887.103 224.546C890.619 220.533 893.503 215.941 895.756 210.802C898.009 205.663 899.528 200.063 900.279 194.036V193.66H862.252C854.964 193.66 849.007 194.599 844.365 196.477C839.722 198.355 836.275 201.002 834.005 204.382C831.735 207.763 830.608 211.604 830.608 215.872C830.608 220.397 831.735 224.29 834.005 227.551C836.258 230.812 839.398 233.202 843.409 234.704C847.42 236.207 852.062 236.958 857.336 236.958L857.354 236.975Z" fill="#B2E8FF"/>
<path d="M1050.87 277.642C1035.56 277.642 1022.44 274.432 1011.53 268.029C1000.61 261.627 992.26 252.151 986.491 239.585C980.722 227.036 977.838 211.585 977.838 193.265V83.2964H1030.54V188.007C1030.54 202.826 1033.62 214.061 1039.76 221.709C1045.9 229.375 1055.51 233.2 1068.57 233.2C1076.85 233.2 1084.26 231.322 1090.79 227.549C1097.31 223.775 1102.4 218.312 1106.03 211.158C1109.67 204.004 1111.5 195.143 1111.5 184.609V83.2964H1164.2V273.117H1117.9L1113.75 242.607C1108.22 253.158 1100.13 261.627 1089.46 268.029C1078.79 274.432 1065.93 277.642 1050.87 277.642Z" fill="#B2E8FF"/>
<path d="M1277.53 273.138C1264.22 273.138 1252.49 271.004 1242.32 266.736C1232.15 262.467 1224.31 255.433 1218.78 245.65C1213.25 235.85 1210.51 222.55 1210.51 205.733V127.401H1177.75V83.3345H1210.51L1216.16 30.9878H1262.84V83.3345H1312.54V127.401H1263.21V206.126C1263.21 214.406 1265.04 220.194 1268.67 223.455C1272.31 226.716 1278.52 228.355 1287.31 228.355H1312.16V273.172H1277.53V273.138Z" fill="#B2E8FF"/>
<path d="M1333.26 273.132V1.94043H1385.97V111.158C1391.99 101.358 1400.2 93.5215 1410.63 87.6142C1421.04 81.7239 1433.16 78.7702 1446.97 78.7702C1462.79 78.7702 1476.08 82.0995 1486.87 88.7581C1497.66 95.4166 1505.88 105.08 1511.53 117.766C1517.18 130.451 1520 146.073 1520 164.649V273.115H1467.67V169.532C1467.67 154.712 1464.53 143.29 1458.27 135.266C1451.98 127.224 1442.32 123.212 1429.27 123.212C1420.99 123.212 1413.51 125.227 1406.86 129.239C1400.2 133.251 1395.06 138.902 1391.43 146.193C1387.79 153.483 1385.97 162.259 1385.97 172.554V273.115H1333.26V273.132Z" fill="#B2E8FF"/>
</svg>
