<svg width="55" height="48" viewBox="0 0 55 48" fill="none" xmlns="http://www.w3.org/2000/svg">
<path d="M28.7045 18.0254C28.7045 20.2842 27.9346 22.3717 26.6387 24.0512C24.7654 26.478 21.7922 28.0499 18.4477 28.0499V36.0541C21.3883 36.0541 24.1708 35.3773 26.6387 34.1765C32.7123 31.2224 36.8955 25.0941 36.8955 18.0254C36.8955 8.08648 28.6169 0 18.446 0C8.27519 0 0.216547 7.87655 0.00687451 17.6357H0V47.9999H8.19098V18.0254C8.19098 12.5 12.79 8.00418 18.446 8.00418C24.102 8.00418 28.7028 12.5 28.7028 18.0254H28.7045Z" fill="#163066"/>
<path d="M49.1184 17.6357H40.924C40.9274 17.7651 40.9308 17.8961 40.9308 18.0254C40.9308 30.1391 30.8459 39.9957 18.4478 39.9957V47.9999C35.3608 47.9999 49.1218 34.5544 49.1218 18.0254C49.1218 17.8961 49.1218 17.7651 49.1201 17.6357H49.1184Z" fill="#1594CC"/>
<path d="M54.2398 31.9916H46.0488V39.9958H54.2398V31.9916Z" fill="#1594CC"/>
<path d="M37.8574 47.9999H46.0484V39.9957C41.525 39.9957 37.8574 43.5796 37.8574 47.9999Z" fill="#1594CC"/>
</svg>
