<svg width="55" height="48" viewBox="0 0 55 48" fill="none" xmlns="http://www.w3.org/2000/svg">
<path d="M28.7045 18.0254C28.7045 20.2842 27.9346 22.3717 26.6387 24.0512C24.7654 26.478 21.7922 28.0499 18.4477 28.0499V36.0541C21.3883 36.0541 24.1708 35.3773 26.6387 34.1765C32.7123 31.2224 36.8955 25.0941 36.8955 18.0254C36.8955 8.08648 28.6169 0 18.446 0C8.27519 0 0.216547 7.87655 0.00687451 17.6357H0V47.9999H8.19098V18.0254C8.19098 12.5 12.79 8.00418 18.446 8.00418C24.102 8.00418 28.7028 12.5 28.7028 18.0254H28.7045Z" fill="#D1D1D1"/>
<path d="M49.1179 17.6357H40.9235C40.9269 17.7651 40.9304 17.8961 40.9304 18.0254C40.9304 30.1391 30.8454 39.9957 18.4473 39.9957V47.9999C35.3603 47.9999 49.1213 34.5544 49.1213 18.0254C49.1213 17.8961 49.1213 17.7651 49.1196 17.6357H49.1179Z" fill="#D1D1D1"/>
<path d="M54.2398 31.9917H46.0488V39.9959H54.2398V31.9917Z" fill="#D1D1D1"/>
<path d="M37.8574 48.0003H46.0484V39.9961C41.525 39.9961 37.8574 43.58 37.8574 48.0003Z" fill="#D1D1D1"/>
</svg>
