<svg width="20" height="20" viewBox="0 0 20 20" fill="none" xmlns="http://www.w3.org/2000/svg">
<path d="M9.99758 9.00372L9.62259 8.3542L9.62258 8.3542L9.99758 9.00372ZM8.369 4.61966L7.98747 3.97396L7.98746 3.97396L8.369 4.61966ZM12.6065 2.1158L12.988 2.7615L12.988 2.7615L12.6065 2.1158ZM17.0624 3.33777L16.4092 3.70626L16.4092 3.70627L17.0624 3.33777ZM16.1027 6.74211C15.8296 7.05361 15.8608 7.52746 16.1723 7.80048C16.4838 8.07351 16.9577 8.04232 17.2307 7.73082L16.1027 6.74211ZM4.13154 7.12353L4.51308 7.76923L4.51308 7.76923L4.13154 7.12353ZM2.93757 11.684L3.5908 11.3155L3.59079 11.3155L2.93757 11.684ZM5.33469 14.0801C5.74642 14.1254 6.1169 13.8283 6.16217 13.4166C6.20745 13.0049 5.91038 12.6344 5.49864 12.5891L5.33469 14.0801ZM8.93819 7.05044C9.14942 7.40675 9.6095 7.52435 9.96581 7.31311C10.3221 7.10188 10.4397 6.6418 10.2285 6.28549L8.93819 7.05044ZM16.8277 10.8338L16.1782 11.2088C17.3518 13.2416 16.6554 15.8408 14.6226 17.0145L14.9976 17.664L15.3726 18.3135C18.1228 16.7256 19.065 13.209 17.4772 10.4588L16.8277 10.8338ZM14.9976 17.664L14.6226 17.0145C12.5898 18.1881 9.99059 17.4916 8.81697 15.4588L8.16745 15.8338L7.51793 16.2088C9.10575 18.959 12.6224 19.9014 15.3726 18.3135L14.9976 17.664ZM16.8277 10.8338L17.4772 10.4588C15.8894 7.70866 12.3728 6.76638 9.62259 8.3542L9.99758 9.00372L10.3726 9.65324C12.4054 8.47962 15.0046 9.17611 16.1781 11.2088L16.8277 10.8338ZM9.99758 9.00372L9.62258 8.3542C6.87241 9.94205 5.93011 13.4587 7.51793 16.2088L8.16745 15.8338L8.81697 15.4588C7.64338 13.4261 8.33983 10.8269 10.3726 9.65323L9.99758 9.00372ZM16.8277 10.8338L16.4527 10.1843L7.79245 15.1843L8.16745 15.8338L8.54245 16.4833L17.2027 11.4833L16.8277 10.8338ZM8.369 4.61966L8.75053 5.26536L12.988 2.7615L12.6065 2.1158L12.225 1.4701L7.98747 3.97396L8.369 4.61966ZM12.6065 2.1158L12.988 2.7615C14.1793 2.0576 15.7107 2.46802 16.4092 3.70626L17.0624 3.33777L17.7157 2.96928C16.6126 1.01397 14.1541 0.330201 12.225 1.4701L12.6065 2.1158ZM17.0624 3.33777L16.4092 3.70627C16.9728 4.70535 16.8142 5.93025 16.1027 6.74211L16.6667 7.23647L17.2307 7.73082C18.3524 6.45102 18.5994 4.53584 17.7156 2.96927L17.0624 3.33777ZM8.369 4.61966L7.98746 3.97396L3.75001 6.47783L4.13154 7.12353L4.51308 7.76923L8.75054 5.26536L8.369 4.61966ZM4.13154 7.12353L3.75001 6.47782C1.83144 7.61148 1.18684 10.107 2.28434 12.0525L2.93757 11.684L3.59079 11.3155C2.88674 10.0674 3.31128 8.47935 4.51308 7.76923L4.13154 7.12353ZM2.93757 11.684L2.28434 12.0525C2.94719 13.2275 4.09969 13.9443 5.33469 14.0801L5.41667 13.3346L5.49864 12.5891C4.73292 12.5049 4.01113 12.0606 3.5908 11.3155L2.93757 11.684ZM8.369 4.61966L7.72385 5.00213L8.93819 7.05044L9.58333 6.66797L10.2285 6.28549L9.01415 4.23719L8.369 4.61966Z" fill="#3961B2"/>
</svg>
