<svg width="12" height="16" viewBox="0 0 12 16" fill="none" xmlns="http://www.w3.org/2000/svg">
<path d="M0.666748 8.83399C0.390606 8.83399 0.166748 9.05784 0.166748 9.33399C0.166748 9.61013 0.390606 9.83399 0.666748 9.83399V8.83399ZM2.82819 9.46305L2.61042 9.91313L2.61042 9.91314L2.82819 9.46305ZM4.18951 10.1217L4.40729 9.67164L4.40729 9.67163L4.18951 10.1217ZM6.62261 11.4853L6.48981 11.0032L6.48936 11.0033L6.62261 11.4853ZM4.92868 11.9537L5.0619 12.4356L5.06194 12.4356L4.92868 11.9537ZM4.01675 11.8716L4.23456 11.4215L4.23451 11.4215L4.01675 11.8716ZM2.77925 10.7174C2.53067 10.5972 2.23166 10.7012 2.1114 10.9498C1.99113 11.1983 2.09515 11.4973 2.34373 11.6176L2.77925 10.7174ZM6.5199 10.5227C6.25594 10.6038 6.1077 10.8835 6.1888 11.1475C6.2699 11.4115 6.54963 11.5597 6.81359 11.4786L6.5199 10.5227ZM9.72861 10.0599L9.87546 10.5379L9.87736 10.5373L9.72861 10.0599ZM11.1981 10.5622L10.7928 10.8549L10.7928 10.8549L11.1981 10.5622ZM10.9857 11.5968L11.2356 12.0299L11.2357 12.0299L10.9857 11.5968ZM5.97535 14.4877L5.72547 14.0546L5.72547 14.0546L5.97535 14.4877ZM4.93021 14.6124L5.07246 14.133L5.07245 14.133L4.93021 14.6124ZM0.808987 12.8679C0.544254 12.7894 0.265963 12.9403 0.187407 13.205C0.10885 13.4697 0.259776 13.748 0.524509 13.8266L0.808987 12.8679ZM8.33315 7.55359L8.58315 7.9866L8.58315 7.9866L8.33315 7.55359ZM3.78048 6.33371L3.34747 6.58371L3.34747 6.58371L3.78048 6.33371ZM5.00035 1.78105L4.75035 1.34804L4.75035 1.34804L5.00035 1.78105ZM0.666748 9.33399V9.83399H2.26329V9.33399V8.83399H0.666748V9.33399ZM2.26329 9.33399V9.83399C2.38444 9.83399 2.50335 9.86133 2.61042 9.91313L2.82819 9.46305L3.04597 9.01297C2.80226 8.89504 2.53435 8.83399 2.26329 8.83399V9.33399ZM2.82819 9.46305L2.61042 9.91314L3.97174 10.5718L4.18951 10.1217L4.40729 9.67163L3.04597 9.01297L2.82819 9.46305ZM4.18951 10.1217L3.97174 10.5718C4.21556 10.6898 4.48347 10.7507 4.75442 10.7507V10.2507V9.75072C4.63316 9.75072 4.51426 9.7234 4.40729 9.67164L4.18951 10.1217ZM4.75442 10.2507V10.7507H5.44948V10.2507V9.75072H4.75442V10.2507ZM5.44948 10.2507V10.7507C5.86121 10.7507 6.16675 11.0696 6.16675 11.4287H6.66675H7.16675C7.16675 10.4866 6.38229 9.75072 5.44948 9.75072V10.2507ZM6.66675 11.4287H6.16675C6.16675 11.2208 6.30797 11.0533 6.48981 11.0032L6.62261 11.4853L6.75542 11.9673C6.98952 11.9028 7.16675 11.6891 7.16675 11.4287H6.66675ZM6.62261 11.4853L6.48936 11.0033L4.79542 11.4717L4.92868 11.9537L5.06194 12.4356L6.75587 11.9672L6.62261 11.4853ZM4.92868 11.9537L4.79547 11.4717C4.60804 11.5235 4.40746 11.5052 4.23456 11.4215L4.01675 11.8716L3.79893 12.3216C4.19137 12.5116 4.64155 12.5518 5.0619 12.4356L4.92868 11.9537ZM4.01675 11.8716L4.23451 11.4215L2.77925 10.7174L2.56149 11.1675L2.34373 11.6176L3.79899 12.3217L4.01675 11.8716ZM6.66675 11.0007L6.81359 11.4786L9.87546 10.5379L9.72861 10.0599L9.58177 9.58197L6.5199 10.5227L6.66675 11.0007ZM9.72861 10.0599L9.87736 10.5373C10.209 10.4339 10.5749 10.5531 10.7928 10.8549L11.1981 10.5622L11.6035 10.2695C11.1414 9.6295 10.3338 9.34762 9.57987 9.58256L9.72861 10.0599ZM11.1981 10.5622L10.7928 10.8549C10.8701 10.962 10.8301 11.1093 10.7358 11.1637L10.9857 11.5968L11.2357 12.0299C11.8577 11.6709 12.0179 10.8432 11.6035 10.2694L11.1981 10.5622ZM10.9857 11.5968L10.7359 11.1637L5.72547 14.0546L5.97535 14.4877L6.22523 14.9207L11.2356 12.0299L10.9857 11.5968ZM5.97535 14.4877L5.72547 14.0546C5.52478 14.1704 5.29047 14.1977 5.07246 14.133L4.93021 14.6124L4.78797 15.0917C5.2709 15.235 5.78859 15.1727 6.22523 14.9207L5.97535 14.4877ZM4.93021 14.6124L5.07245 14.133L0.808987 12.8679L0.666748 13.3473L0.524509 13.8266L4.78798 15.0917L4.93021 14.6124ZM9.55301 3.00093L9.12 3.25093C9.90226 4.60582 9.43801 6.33832 8.08314 7.12058L8.33315 7.55359L8.58315 7.9866C10.4163 6.92821 11.0444 4.58412 9.98603 2.75093L9.55301 3.00093ZM8.33315 7.55359L8.08315 7.12057C6.72824 7.90283 4.99576 7.43858 4.21349 6.0837L3.78048 6.33371L3.34747 6.58371C4.40587 8.41686 6.74993 9.04501 8.58315 7.9866L8.33315 7.55359ZM9.55301 3.00093L9.98603 2.75093C8.92762 0.91774 6.58356 0.289642 4.75035 1.34804L5.00035 1.78105L5.25035 2.21407C6.60527 1.43181 8.33774 1.89603 9.12 3.25093L9.55301 3.00093ZM5.00035 1.78105L4.75035 1.34804C2.91717 2.40643 2.28907 4.75052 3.34747 6.58371L3.78048 6.33371L4.21349 6.0837C3.43124 4.72881 3.89546 2.99631 5.25035 2.21406L5.00035 1.78105ZM9.55301 3.00093L9.30301 2.56792L3.53048 5.90069L3.78048 6.33371L4.03048 6.76672L9.80301 3.43394L9.55301 3.00093Z" fill="#7A7A7A"/>
</svg>
