<svg width="16" height="16" viewBox="0 0 16 16" fill="none" xmlns="http://www.w3.org/2000/svg">
<path d="M2.42493 14.3097L2.69095 13.8863L2.42493 14.3097ZM1.69065 13.5754L2.11401 13.3094L1.69065 13.5754ZM14.3087 13.5754L13.8853 13.3094L14.3087 13.5754ZM13.5744 14.3097L13.3084 13.8863L13.5744 14.3097ZM13.5744 7.02496L13.3084 7.44832L13.5744 7.02496ZM14.3087 7.75924L13.8853 8.02526L14.3087 7.75924ZM2.42493 7.02496L2.69095 7.44832L2.42493 7.02496ZM1.69065 7.75924L2.11401 8.02526L1.69065 7.75924ZM12.423 4.18231L12.65 3.7368L12.423 4.18231ZM12.833 6.66732C12.833 6.94346 13.0569 7.16732 13.333 7.16732C13.6092 7.16732 13.833 6.94346 13.833 6.66732H12.833ZM13.1514 4.91067L12.7058 5.13766V5.13766L13.1514 4.91067ZM3.57636 4.18231L3.80335 4.62781L3.57636 4.18231ZM2.16634 6.66732C2.16634 6.94346 2.3902 7.16732 2.66634 7.16732C2.94248 7.16732 3.16634 6.94346 3.16634 6.66732H2.16634ZM2.848 4.91067L3.2935 5.13766L2.848 4.91067ZM11.6091 1.72451L11.2556 2.07806V2.07806L11.6091 1.72451ZM11.4997 4.00065C11.4997 4.27679 11.7235 4.50065 11.9997 4.50065C12.2758 4.50065 12.4997 4.27679 12.4997 4.00065H11.4997ZM3.49967 4.00065C3.49967 4.27679 3.72353 4.50065 3.99967 4.50065C4.27582 4.50065 4.49967 4.27679 4.49967 4.00065H3.49967ZM10.4997 9.33398C10.4997 9.05784 10.2758 8.83398 9.99967 8.83398C9.72353 8.83398 9.49967 9.05784 9.49967 9.33398H10.4997ZM6.49967 9.33398C6.49967 9.05784 6.27582 8.83398 5.99967 8.83398C5.72353 8.83398 5.49967 9.05784 5.49967 9.33398H6.49967ZM5.33301 6.66732V7.16732H10.6663V6.66732V6.16732H5.33301V6.66732ZM10.6663 14.6673V14.1673H5.33301V14.6673V15.1673H10.6663V14.6673ZM5.33301 14.6673V14.1673C4.54349 14.1673 3.98718 14.1668 3.55596 14.1249C3.13243 14.0839 2.88256 14.0067 2.69095 13.8863L2.42493 14.3097L2.15892 14.733C2.53649 14.9703 2.96103 15.0719 3.45943 15.1203C3.95013 15.1679 4.56327 15.1673 5.33301 15.1673V14.6673ZM1.33301 10.6673H0.833008C0.833008 11.4371 0.832459 12.0502 0.880048 12.5409C0.928384 13.0393 1.03004 13.4638 1.26729 13.8414L1.69065 13.5754L2.11401 13.3094C1.99362 13.1178 1.91645 12.8679 1.87538 12.4444C1.83356 12.0131 1.83301 11.4568 1.83301 10.6673H1.33301ZM2.42493 14.3097L2.69095 13.8863C2.45774 13.7398 2.26055 13.5426 2.11401 13.3094L1.69065 13.5754L1.26729 13.8414C1.49375 14.2018 1.79851 14.5066 2.15892 14.733L2.42493 14.3097ZM14.6663 10.6673H14.1663C14.1663 11.4568 14.1658 12.0131 14.124 12.4444C14.0829 12.8679 14.0057 13.1178 13.8853 13.3094L14.3087 13.5754L14.7321 13.8414C14.9693 13.4638 15.071 13.0393 15.1193 12.5409C15.1669 12.0502 15.1663 11.4371 15.1663 10.6673H14.6663ZM10.6663 14.6673V15.1673C11.4361 15.1673 12.0492 15.1679 12.5399 15.1203C13.0383 15.0719 13.4629 14.9703 13.8404 14.733L13.5744 14.3097L13.3084 13.8863C13.1168 14.0067 12.8669 14.0839 12.4434 14.1249C12.0122 14.1668 11.4559 14.1673 10.6663 14.1673V14.6673ZM14.3087 13.5754L13.8853 13.3094C13.7388 13.5426 13.5416 13.7398 13.3084 13.8863L13.5744 14.3097L13.8404 14.733C14.2008 14.5066 14.5056 14.2018 14.7321 13.8414L14.3087 13.5754ZM10.6663 6.66732V7.16732C11.4559 7.16732 12.0122 7.16787 12.4434 7.20969C12.8669 7.25076 13.1168 7.32793 13.3084 7.44832L13.5744 7.02496L13.8404 6.6016C13.4629 6.36435 13.0383 6.26269 12.5399 6.21436C12.0492 6.16677 11.4361 6.16732 10.6663 6.16732V6.66732ZM14.6663 10.6673H15.1663C15.1663 9.89758 15.1669 9.28444 15.1193 8.79374C15.071 8.29534 14.9693 7.8708 14.7321 7.49323L14.3087 7.75924L13.8853 8.02526C14.0057 8.21687 14.0829 8.46674 14.124 8.89027C14.1658 9.32149 14.1663 9.8778 14.1663 10.6673H14.6663ZM13.5744 7.02496L13.3084 7.44832C13.5416 7.59486 13.7388 7.79205 13.8853 8.02526L14.3087 7.75924L14.7321 7.49323C14.5056 7.13282 14.2008 6.82806 13.8404 6.6016L13.5744 7.02496ZM5.33301 6.66732V6.16732C4.56327 6.16732 3.95013 6.16677 3.45943 6.21436C2.96103 6.26269 2.53649 6.36435 2.15892 6.6016L2.42493 7.02496L2.69095 7.44832C2.88256 7.32793 3.13243 7.25076 3.55596 7.20969C3.98718 7.16787 4.54349 7.16732 5.33301 7.16732V6.66732ZM1.33301 10.6673H1.83301C1.83301 9.8778 1.83356 9.32149 1.87538 8.89027C1.91645 8.46674 1.99362 8.21687 2.11401 8.02526L1.69065 7.75924L1.26729 7.49323C1.03004 7.8708 0.928384 8.29534 0.880048 8.79374C0.832459 9.28444 0.833008 9.89758 0.833008 10.6673H1.33301ZM2.42493 7.02496L2.15892 6.6016C1.79851 6.82806 1.49375 7.13282 1.26729 7.49323L1.69065 7.75924L2.11401 8.02526C2.26055 7.79205 2.45774 7.59486 2.69095 7.44832L2.42493 7.02496ZM5.33301 4.00065V4.50065H10.6663V4.00065V3.50065H5.33301V4.00065ZM10.6663 4.00065V4.50065C11.1413 4.50065 11.4675 4.50104 11.7203 4.5217C11.9673 4.54188 12.1 4.57888 12.196 4.62781L12.423 4.18231L12.65 3.7368C12.3895 3.60408 12.1106 3.55025 11.8017 3.52502C11.4987 3.50026 11.1248 3.50065 10.6663 3.50065V4.00065ZM13.333 6.66732H13.833C13.833 6.20886 13.8334 5.83494 13.8086 5.53194C13.7834 5.2231 13.7296 4.94417 13.5969 4.68367L13.1514 4.91067L12.7058 5.13766C12.7548 5.23369 12.7918 5.36637 12.812 5.61337C12.8326 5.86621 12.833 6.19236 12.833 6.66732H13.333ZM12.423 4.18231L12.196 4.62781C12.4155 4.73966 12.594 4.91814 12.7058 5.13766L13.1514 4.91067L13.5969 4.68367C13.3891 4.27599 13.0577 3.94453 12.65 3.7368L12.423 4.18231ZM5.33301 4.00065V3.50065C4.87455 3.50065 4.50063 3.50026 4.19763 3.52502C3.88879 3.55025 3.60986 3.60408 3.34936 3.7368L3.57636 4.18231L3.80335 4.62781C3.89938 4.57888 4.03206 4.54188 4.27906 4.5217C4.5319 4.50104 4.85805 4.50065 5.33301 4.50065V4.00065ZM2.66634 6.66732H3.16634C3.16634 6.19236 3.16673 5.86621 3.18739 5.61337C3.20757 5.36637 3.24457 5.23369 3.2935 5.13766L2.848 4.91067L2.40249 4.68367C2.26977 4.94417 2.21594 5.2231 2.19071 5.53194C2.16595 5.83494 2.16634 6.20886 2.16634 6.66732H2.66634ZM3.57636 4.18231L3.34936 3.7368C2.94168 3.94453 2.61022 4.27599 2.40249 4.68367L2.848 4.91067L3.2935 5.13766C3.40535 4.91814 3.58383 4.73966 3.80335 4.62781L3.57636 4.18231ZM6.66634 1.33398V1.83398H9.33301V1.33398V0.833984H6.66634V1.33398ZM9.33301 1.33398V1.83398C9.97568 1.83398 10.4074 1.83505 10.7294 1.87834C11.0371 1.9197 11.1687 1.99118 11.2556 2.07806L11.6091 1.72451L11.9627 1.37096C11.6591 1.06731 11.2812 0.943528 10.8627 0.887259C10.4585 0.832923 9.94741 0.833984 9.33301 0.833984V1.33398ZM11.9997 4.00065H12.4997C12.4997 3.38625 12.5007 2.87514 12.4464 2.471C12.3901 2.05247 12.2664 1.6746 11.9627 1.37096L11.6091 1.72451L11.2556 2.07806C11.3425 2.16494 11.414 2.2966 11.4553 2.60425C11.4986 2.92627 11.4997 3.35798 11.4997 4.00065H11.9997ZM6.66634 1.33398V0.833984C6.05194 0.833984 5.54083 0.832923 5.13669 0.887259C4.71816 0.943528 4.34029 1.06731 4.03665 1.37096L4.3902 1.72451L4.74375 2.07806C4.83063 1.99118 4.9623 1.9197 5.26994 1.87834C5.59196 1.83505 6.02367 1.83398 6.66634 1.83398V1.33398ZM3.99967 4.00065H4.49967C4.49967 3.35798 4.50074 2.92627 4.54403 2.60425C4.58539 2.2966 4.65687 2.16494 4.74375 2.07806L4.3902 1.72451L4.03665 1.37096C3.733 1.6746 3.60922 2.05247 3.55295 2.471C3.49861 2.87514 3.49967 3.38625 3.49967 4.00065H3.99967ZM7.33301 10.6673V11.1673H8.66634V10.6673V10.1673H7.33301V10.6673ZM8.66634 10.6673V11.1673C9.67886 11.1673 10.4997 10.3465 10.4997 9.33398H9.99967H9.49967C9.49967 9.79422 9.12658 10.1673 8.66634 10.1673V10.6673ZM5.99967 9.33398H5.49967C5.49967 10.3465 6.32049 11.1673 7.33301 11.1673V10.6673V10.1673C6.87277 10.1673 6.49967 9.79422 6.49967 9.33398H5.99967Z" fill="#FF2E37"/>
</svg>
