<svg width="16" height="14" viewBox="0 0 16 14" fill="none" xmlns="http://www.w3.org/2000/svg">
<path d="M6.66659 4.66667H9.33325M3.85474 1.78795C4.28663 1.45546 4.50259 1.28922 4.75184 1.18215C4.86486 1.13361 4.98237 1.09439 5.10298 1.06494C5.36899 1 5.65105 1 6.21518 1H9.78465C10.3488 1 10.6309 1 10.8969 1.06494C11.0175 1.09439 11.135 1.13361 11.248 1.18215C11.4973 1.28922 11.7132 1.45546 12.1451 1.78795C13.5762 2.88965 14.2918 3.44051 14.5371 4.15385C14.6462 4.47115 14.6869 4.80485 14.6571 5.13641C14.5901 5.8818 14.0252 6.564 12.8955 7.92833L10.2331 11.1435C9.20832 12.3812 8.69592 13 7.99992 13C7.30392 13 6.79152 12.3812 5.76671 11.1435L3.10439 7.92833C1.97464 6.564 1.40976 5.8818 1.34272 5.13641C1.3129 4.80485 1.35368 4.47115 1.46279 4.15385C1.70808 3.44051 2.42363 2.88965 3.85474 1.78795Z" stroke="#7A7A7A" stroke-linecap="round"/>
</svg>
