<svg width="16" height="16" viewBox="0 0 16 16" fill="none" xmlns="http://www.w3.org/2000/svg">
<path d="M2.42591 14.3087L2.69193 13.8853L2.42591 14.3087ZM1.69163 13.5744L2.11499 13.3084L1.69163 13.5744ZM14.3097 13.5744L13.8863 13.3084L14.3097 13.5744ZM13.5754 14.3087L13.3094 13.8853L13.5754 14.3087ZM13.5754 7.02398L13.3094 7.44735L13.5754 7.02398ZM14.3097 7.75827L13.8863 8.02428L14.3097 7.75827ZM2.42591 7.02398L2.69193 7.44735L2.42591 7.02398ZM1.69163 7.75827L2.11499 8.02428L1.69163 7.75827ZM12.424 4.18133L12.651 3.73583L12.424 4.18133ZM12.834 6.66634C12.834 6.94248 13.0578 7.16634 13.334 7.16634C13.6101 7.16634 13.834 6.94248 13.834 6.66634H12.834ZM13.1523 4.90969L12.7068 5.13669V5.13669L13.1523 4.90969ZM3.57733 4.18133L3.80433 4.62683L3.57733 4.18133ZM2.16732 6.66634C2.16732 6.94248 2.39118 7.16634 2.66732 7.16634C2.94346 7.16634 3.16732 6.94248 3.16732 6.66634H2.16732ZM2.84897 4.90969L3.29448 5.13669L2.84897 4.90969ZM11.6101 1.72353L11.2566 2.07709V2.07709L11.6101 1.72353ZM11.5007 3.99967C11.5007 4.27582 11.7245 4.49967 12.0007 4.49967C12.2768 4.49967 12.5007 4.27582 12.5007 3.99967H11.5007ZM3.50065 3.99967C3.50065 4.27582 3.72451 4.49967 4.00065 4.49967C4.27679 4.49967 4.50065 4.27582 4.50065 3.99967H3.50065ZM10.5007 9.33301C10.5007 9.05687 10.2768 8.83301 10.0007 8.83301C9.72451 8.83301 9.50065 9.05687 9.50065 9.33301H10.5007ZM6.50065 9.33301C6.50065 9.05687 6.27679 8.83301 6.00065 8.83301C5.72451 8.83301 5.50065 9.05687 5.50065 9.33301H6.50065ZM5.33398 6.66634V7.16634H10.6673V6.66634V6.16634H5.33398V6.66634ZM10.6673 14.6663V14.1663H5.33398V14.6663V15.1663H10.6673V14.6663ZM5.33398 14.6663V14.1663C4.54447 14.1663 3.98816 14.1658 3.55693 14.124C3.1334 14.0829 2.88354 14.0057 2.69193 13.8853L2.42591 14.3087L2.15989 14.7321C2.53747 14.9693 2.96201 15.071 3.46041 15.1193C3.9511 15.1669 4.56424 15.1663 5.33398 15.1663V14.6663ZM1.33398 10.6663H0.833984C0.833984 11.4361 0.833435 12.0492 0.881025 12.5399C0.92936 13.0383 1.03102 13.4629 1.26827 13.8404L1.69163 13.5744L2.11499 13.3084C1.99459 13.1168 1.91743 12.8669 1.87635 12.4434C1.83453 12.0122 1.83398 11.4559 1.83398 10.6663H1.33398ZM2.42591 14.3087L2.69193 13.8853C2.45872 13.7388 2.26152 13.5416 2.11499 13.3084L1.69163 13.5744L1.26827 13.8404C1.49473 14.2008 1.79948 14.5056 2.15989 14.7321L2.42591 14.3087ZM14.6673 10.6663H14.1673C14.1673 11.4559 14.1668 12.0122 14.1249 12.4434C14.0839 12.8669 14.0067 13.1168 13.8863 13.3084L14.3097 13.5744L14.733 13.8404C14.9703 13.4629 15.0719 13.0383 15.1203 12.5399C15.1679 12.0492 15.1673 11.4361 15.1673 10.6663H14.6673ZM10.6673 14.6663V15.1663C11.4371 15.1663 12.0502 15.1669 12.5409 15.1193C13.0393 15.071 13.4638 14.9693 13.8414 14.7321L13.5754 14.3087L13.3094 13.8853C13.1178 14.0057 12.8679 14.0829 12.4444 14.124C12.0131 14.1658 11.4568 14.1663 10.6673 14.1663V14.6663ZM14.3097 13.5744L13.8863 13.3084C13.7398 13.5416 13.5426 13.7388 13.3094 13.8853L13.5754 14.3087L13.8414 14.7321C14.2018 14.5056 14.5066 14.2008 14.733 13.8404L14.3097 13.5744ZM10.6673 6.66634V7.16634C11.4568 7.16634 12.0131 7.16689 12.4444 7.20871C12.8679 7.24979 13.1178 7.32695 13.3094 7.44735L13.5754 7.02398L13.8414 6.60062C13.4638 6.36338 13.0393 6.26172 12.5409 6.21338C12.0502 6.16579 11.4371 6.16634 10.6673 6.16634V6.66634ZM14.6673 10.6663H15.1673C15.1673 9.8966 15.1679 9.28346 15.1203 8.79276C15.0719 8.29437 14.9703 7.86982 14.733 7.49225L14.3097 7.75827L13.8863 8.02428C14.0067 8.2159 14.0839 8.46576 14.1249 8.88929C14.1668 9.32052 14.1673 9.87682 14.1673 10.6663H14.6673ZM13.5754 7.02398L13.3094 7.44735C13.5426 7.59388 13.7398 7.79108 13.8863 8.02428L14.3097 7.75827L14.733 7.49225C14.5066 7.13184 14.2018 6.82708 13.8414 6.60062L13.5754 7.02398ZM5.33398 6.66634V6.16634C4.56424 6.16634 3.9511 6.16579 3.4604 6.21338C2.96201 6.26172 2.53747 6.36338 2.15989 6.60062L2.42591 7.02398L2.69193 7.44735C2.88354 7.32695 3.1334 7.24979 3.55693 7.20871C3.98816 7.16689 4.54447 7.16634 5.33398 7.16634V6.66634ZM1.33398 10.6663H1.83398C1.83398 9.87682 1.83453 9.32052 1.87635 8.88929C1.91743 8.46576 1.99459 8.2159 2.11499 8.02428L1.69163 7.75827L1.26827 7.49225C1.03102 7.86982 0.92936 8.29437 0.881025 8.79276C0.833435 9.28346 0.833984 9.8966 0.833984 10.6663H1.33398ZM2.42591 7.02398L2.15989 6.60062C1.79948 6.82708 1.49473 7.13184 1.26827 7.49225L1.69163 7.75827L2.11499 8.02428C2.26152 7.79108 2.45872 7.59388 2.69193 7.44735L2.42591 7.02398ZM5.33398 3.99967V4.49967H10.6673V3.99967V3.49967H5.33398V3.99967ZM10.6673 3.99967V4.49967C11.1423 4.49967 11.4684 4.50006 11.7213 4.52072C11.9683 4.5409 12.1009 4.57791 12.197 4.62683L12.424 4.18133L12.651 3.73583C12.3905 3.6031 12.1115 3.54928 11.8027 3.52404C11.4997 3.49929 11.1258 3.49967 10.6673 3.49967V3.99967ZM13.334 6.66634H13.834C13.834 6.20788 13.8344 5.83397 13.8096 5.53096C13.7844 5.22212 13.7306 4.94319 13.5978 4.68269L13.1523 4.90969L12.7068 5.13669C12.7558 5.23271 12.7928 5.36539 12.8129 5.61239C12.8336 5.86523 12.834 6.19138 12.834 6.66634H13.334ZM12.424 4.18133L12.197 4.62683C12.4165 4.73869 12.595 4.91716 12.7068 5.13669L13.1523 4.90969L13.5978 4.6827C13.3901 4.27501 13.0586 3.94355 12.651 3.73583L12.424 4.18133ZM5.33398 3.99967V3.49967C4.87552 3.49967 4.50161 3.49929 4.19861 3.52404C3.88976 3.54928 3.61083 3.6031 3.35034 3.73583L3.57733 4.18133L3.80433 4.62683C3.90035 4.57791 4.03304 4.5409 4.28004 4.52072C4.53287 4.50006 4.85902 4.49967 5.33398 4.49967V3.99967ZM2.66732 6.66634H3.16732C3.16732 6.19138 3.16771 5.86523 3.18836 5.61239C3.20854 5.36539 3.24555 5.23271 3.29448 5.13669L2.84897 4.90969L2.40347 4.6827C2.27074 4.94319 2.21692 5.22212 2.19169 5.53096C2.16693 5.83397 2.16732 6.20788 2.16732 6.66634H2.66732ZM3.57733 4.18133L3.35034 3.73583C2.94265 3.94355 2.6112 4.27501 2.40347 4.6827L2.84897 4.90969L3.29448 5.13669C3.40633 4.91716 3.58481 4.73869 3.80433 4.62683L3.57733 4.18133ZM6.66732 1.33301V1.83301H9.33398V1.33301V0.833008H6.66732V1.33301ZM9.33398 1.33301V1.83301C9.97666 1.83301 10.4084 1.83407 10.7304 1.87736C11.038 1.91873 11.1697 1.99021 11.2566 2.07709L11.6101 1.72353L11.9637 1.36998C11.66 1.06633 11.2822 0.942552 10.8636 0.886282C10.4595 0.831946 9.94839 0.833008 9.33398 0.833008V1.33301ZM12.0007 3.99967H12.5007C12.5007 3.38527 12.5017 2.87417 12.4474 2.47002C12.3911 2.05149 12.2673 1.67363 11.9637 1.36998L11.6101 1.72353L11.2566 2.07709C11.3435 2.16396 11.4149 2.29563 11.4563 2.60327C11.4996 2.92529 11.5007 3.357 11.5007 3.99967H12.0007ZM6.66732 1.33301V0.833008C6.05291 0.833008 5.54181 0.831946 5.13767 0.886282C4.71914 0.942552 4.34127 1.06633 4.03762 1.36998L4.39118 1.72353L4.74473 2.07709C4.83161 1.99021 4.96327 1.91873 5.27091 1.87736C5.59294 1.83407 6.02464 1.83301 6.66732 1.83301V1.33301ZM4.00065 3.99967H4.50065C4.50065 3.357 4.50171 2.92529 4.54501 2.60327C4.58637 2.29563 4.65785 2.16396 4.74473 2.07709L4.39118 1.72353L4.03762 1.36998C3.73398 1.67363 3.61019 2.05149 3.55393 2.47002C3.49959 2.87417 3.50065 3.38527 3.50065 3.99967H4.00065ZM7.33398 10.6663V11.1663H8.66732V10.6663V10.1663H7.33398V10.6663ZM8.66732 10.6663V11.1663C9.67984 11.1663 10.5007 10.3455 10.5007 9.33301H10.0007H9.50065C9.50065 9.79325 9.12756 10.1663 8.66732 10.1663V10.6663ZM6.00065 9.33301H5.50065C5.50065 10.3455 6.32146 11.1663 7.33398 11.1663V10.6663V10.1663C6.87375 10.1663 6.50065 9.79325 6.50065 9.33301H6.00065Z" fill="#525252"/>
</svg>
