<svg width="12" height="16" viewBox="0 0 12 16" fill="none" xmlns="http://www.w3.org/2000/svg">
<path d="M10.0001 12.0007C10.8299 12.2836 11.3334 12.6552 11.3334 13.0623C11.3334 13.9487 8.9456 14.6673 6.00008 14.6673C3.05456 14.6673 0.666748 13.9487 0.666748 13.0623C0.666748 12.6552 1.17026 12.2836 2.00008 12.0007M8.00008 6.33398C8.00008 7.43855 7.10465 8.33398 6.00008 8.33398C4.89551 8.33398 4.00008 7.43855 4.00008 6.33398C4.00008 5.22941 4.89551 4.33398 6.00008 4.33398C7.10465 4.33398 8.00008 5.22941 8.00008 6.33398ZM6.00008 1.33398C3.29422 1.33398 1.00008 3.61934 1.00008 6.39192C1.00008 9.21839 3.33558 11.1722 5.48508 12.5294C5.64202 12.6198 5.8195 12.6673 6.00008 12.6673C6.18066 12.6673 6.35814 12.6198 6.51508 12.5294C8.66859 11.1853 11.0001 9.20865 11.0001 6.39192C11.0001 3.61934 8.70595 1.33398 6.00008 1.33398Z" stroke="#7A7A7A" stroke-linecap="round"/>
</svg>
