<svg width="14" height="14" viewBox="0 0 14 14" fill="none" xmlns="http://www.w3.org/2000/svg">
<path d="M4.7725 2.80815L4.50406 2.20417C4.32854 1.80925 4.24078 1.61179 4.10953 1.46067C3.94504 1.27129 3.73064 1.13196 3.49078 1.05857C3.29938 1 3.0833 1 2.65113 1C2.01893 1 1.70283 1 1.43748 1.12153C1.1249 1.26468 0.842617 1.57552 0.730144 1.9004C0.634664 2.17619 0.662017 2.45962 0.71671 3.02647C1.29893 9.06013 4.60687 12.3681 10.6405 12.9503C11.2074 13.005 11.4908 13.0323 11.7666 12.9369C12.0915 12.8244 12.4023 12.5421 12.5455 12.2295C12.667 11.9641 12.667 11.6481 12.667 11.0159C12.667 10.5837 12.667 10.3676 12.6084 10.1762C12.535 9.93633 12.3957 9.72193 12.2063 9.55747C12.0552 9.4262 11.8578 9.33847 11.4628 9.16293L10.8588 8.89447C10.4312 8.7044 10.2173 8.6094 10 8.58873C9.79203 8.56893 9.58236 8.59813 9.3877 8.67393C9.1843 8.75313 9.00456 8.90293 8.64496 9.20253C8.2871 9.5008 8.10816 9.64993 7.8895 9.7298C7.69563 9.8006 7.43936 9.82687 7.23523 9.79673C7.0049 9.7628 6.82856 9.6686 6.47583 9.48007C5.3785 8.89367 4.77334 8.28853 4.1869 7.19113C3.99842 6.83847 3.90418 6.66207 3.87024 6.4318C3.84015 6.2276 3.86638 5.97133 3.93719 5.77753C4.01707 5.55885 4.1662 5.37991 4.46445 5.022C4.76407 4.66245 4.91388 4.48268 4.99309 4.27927C5.06889 4.08463 5.09807 3.87493 5.07829 3.66699C5.05762 3.44968 4.96258 3.23584 4.7725 2.80815Z" stroke="#7A7A7A"/>
</svg>
