<svg width="15" height="16" viewBox="0 0 15 16" fill="none" xmlns="http://www.w3.org/2000/svg">
<path d="M1 14.6673H14.3333M5 14.6673V4.00065C5 2.89754 5.23022 2.66732 6.33333 2.66732H9C10.1031 2.66732 10.3333 2.89754 10.3333 4.00065V14.6673M5 14.6673H10.3333M5 14.6673H1.66667V10.0007C1.66667 8.89752 1.89689 8.66732 3 8.66732H5V14.6673ZM10.3333 14.6673V8.66732H12.3333C13.4365 8.66732 13.6667 8.89752 13.6667 10.0007V14.6673H10.3333ZM7.66667 2.66732V1.33398M7.66667 14.6673V13.334M7 10.0007H8.33333M7 7.66732H8.33333M7 5.33398H8.33333" stroke="#7A7A7A" stroke-linecap="round" stroke-linejoin="round"/>
</svg>
