<svg width="22" height="22" viewBox="0 0 22 22" fill="none" xmlns="http://www.w3.org/2000/svg">
<path d="M3.47513 8.5L4.22513 8.50006V8.5H3.47513ZM18.5249 8.5H17.7749V8.50006L18.5249 8.5ZM18.5679 16.6134L18.855 17.3063H18.855L18.5679 16.6134ZM3.43205 16.6134L3.71909 15.9205H3.71909L3.43205 16.6134ZM19.2144 11.5029L18.5939 11.9242L18.5963 11.9277L19.2144 11.5029ZM20.4701 13.7696L19.7287 13.8827V13.8827L20.4701 13.7696ZM2.78561 11.5029L3.40371 11.9277L3.4061 11.9242L2.78561 11.5029ZM1.52992 13.7696L0.788499 13.6565H0.788499L1.52992 13.7696ZM7.72484 17.8074C7.61845 17.4071 7.20769 17.1688 6.80737 17.2752C6.40705 17.3815 6.16877 17.7923 6.27516 18.1926L7.72484 17.8074ZM15.7248 18.1926C15.8312 17.7923 15.5929 17.3815 15.1926 17.2752C14.7923 17.1688 14.3815 17.4071 14.2752 17.8074L15.7248 18.1926ZM18.2809 15.9206C14.0019 17.6932 7.99806 17.6932 3.71909 15.9205L3.14501 17.3063C7.79156 19.2312 14.2084 19.2312 18.855 17.3063L18.2809 15.9206ZM19.2749 8.5C19.2749 3.94131 15.5677 0.25 11 0.25V1.75C14.744 1.75 17.7749 4.77442 17.7749 8.5H19.2749ZM4.22513 8.5C4.22513 4.77442 7.256 1.75 11 1.75V0.25C6.43226 0.25 2.72513 3.94131 2.72513 8.5H4.22513ZM3.71909 15.9205C2.7102 15.5026 2.13339 14.7871 2.27135 13.8827L0.788499 13.6565C0.501146 15.5402 1.82579 16.7598 3.14502 17.3063L3.71909 15.9205ZM18.855 17.3063C20.1742 16.7598 21.4989 15.5402 21.2115 13.6565L19.7287 13.8827C19.8666 14.7871 19.2898 15.5026 18.2809 15.9206L18.855 17.3063ZM19.8349 11.0816C19.3462 10.3619 19.275 9.56116 19.2749 8.49994L17.7749 8.50006C17.775 9.58249 17.8284 10.7967 18.5939 11.9242L19.8349 11.0816ZM3.4061 11.9242C4.17165 10.7967 4.22503 9.58249 4.22513 8.50006L2.72513 8.49994C2.72504 9.56116 2.6538 10.3619 2.16511 11.0816L3.4061 11.9242ZM2.16751 11.0781C1.98227 11.3476 1.62967 11.8051 1.39502 12.1727C1.13278 12.5836 0.876576 13.0791 0.788499 13.6565L2.27135 13.8827C2.31396 13.6034 2.44621 13.3138 2.65945 12.9797C2.90028 12.6024 3.11018 12.3548 3.4037 11.9277L2.16751 11.0781ZM18.5963 11.9277C18.8898 12.3548 19.0997 12.6024 19.3405 12.9797C19.5538 13.3138 19.686 13.6034 19.7287 13.8827L21.2115 13.6565C21.1234 13.0791 20.8672 12.5836 20.605 12.1727C20.3703 11.8051 20.0177 11.3476 19.8325 11.0781L18.5963 11.9277ZM11 20.25C9.40923 20.25 8.09438 19.1979 7.72484 17.8074L6.27516 18.1926C6.82259 20.2525 8.74183 21.75 11 21.75V20.25ZM14.2752 17.8074C13.9056 19.1979 12.5908 20.25 11 20.25V21.75C13.2582 21.75 15.1774 20.2525 15.7248 18.1926L14.2752 17.8074Z" fill="#A3A3A3"/>
</svg>
