<svg width="45" height="40" viewBox="0 0 45 40" fill="none" xmlns="http://www.w3.org/2000/svg">
<path d="M23.3744 15.0214C23.3744 16.9046 22.7472 18.6434 21.6913 20.0422C20.166 22.0654 17.7441 23.3744 15.0215 23.3744V30.0442C17.4162 30.0442 19.6817 29.4809 21.6913 28.4795C26.6372 26.0181 30.0443 20.9103 30.0443 15.0214C30.0443 6.73923 23.3037 0 15.0215 0C6.73925 0 0.176884 6.56371 0.00544372 14.6962H0V40H6.66986V15.0214C6.66986 10.417 10.4157 6.66984 15.0215 6.66984C19.6272 6.66984 23.3744 10.417 23.3744 15.0214Z" fill="#163066"/>
<path d="M40.0001 14.696H33.3261C33.3289 14.8049 33.3316 14.9123 33.3316 15.0212C33.3316 25.1171 25.1188 33.3286 15.0242 33.3286V39.9984C28.7966 39.9984 40.0028 28.7936 40.0028 15.0198C40.0028 14.911 40.0028 14.8035 40.0014 14.6946L40.0001 14.696Z" fill="#1594CC"/>
<path d="M44.1684 26.6591H37.4985V33.329H44.1684V26.6591Z" fill="#1594CC"/>
<path d="M30.8296 39.9985H37.4994V33.3287C33.8162 33.3287 30.8296 36.3153 30.8296 39.9985Z" fill="#1594CC"/>
</svg>
