<svg width="20" height="20" viewBox="0 0 20 20" fill="none" xmlns="http://www.w3.org/2000/svg">
<path d="M5.83557 5.75073C6.24978 5.74949 6.58456 5.4127 6.58332 4.99849C6.58208 4.58427 6.24528 4.2495 5.83107 4.25074L5.83557 5.75073ZM3.7906 5.22228L3.50033 4.53072H3.50033L3.7906 5.22228ZM2.30675 6.63498L2.98213 6.9611L2.98213 6.96109L2.30675 6.63498ZM1.93162 9.15883L2.6802 9.20499V9.20499L1.93162 9.15883ZM1.80259 11.2511L2.55116 11.2972V11.2972L1.80259 11.2511ZM2.46973 17.2827L1.91969 17.7925L1.91971 17.7925L2.46973 17.2827ZM17.5302 17.2827L16.9802 16.7728L16.9802 16.7728L17.5302 17.2827ZM18.1974 11.2511L18.946 11.2049V11.2049L18.1974 11.2511ZM18.0683 9.15883L17.3197 9.20499L17.3197 9.20501L18.0683 9.15883ZM17.6932 6.63498L18.3686 6.30888L18.3686 6.30886L17.6932 6.63498ZM16.2094 5.22228L16.4997 4.53073L16.4997 4.53072L16.2094 5.22228ZM14.1689 4.25074C13.7547 4.2495 13.4179 4.58427 13.4167 4.99849C13.4154 5.4127 13.7502 5.74949 14.1644 5.75073L14.1689 4.25074ZM13.4703 6.11219C13.6241 6.49678 14.0606 6.68385 14.4452 6.53002C14.8298 6.37619 15.0168 5.93971 14.863 5.55512L13.4703 6.11219ZM13.4285 3.98818L14.1248 3.70965L14.1248 3.70963L13.4285 3.98818ZM12.0138 1.88328L11.681 2.55541L11.6811 2.55543L12.0138 1.88328ZM7.98611 1.88328L7.65335 1.21115L7.65334 1.21115L7.98611 1.88328ZM6.57151 3.98818L7.26787 4.26673L7.26787 4.26672L6.57151 3.98818ZM5.13696 5.55512C4.98313 5.9397 5.17019 6.37618 5.55478 6.53002C5.93936 6.68385 6.37584 6.49679 6.52968 6.1122L5.13696 5.55512ZM9.99982 4.25033C9.58561 4.25033 9.24982 4.58611 9.24982 5.00033C9.24982 5.41454 9.58561 5.75033 9.99982 5.75033V4.25033ZM10.0073 5.75033C10.4215 5.75033 10.7573 5.41454 10.7573 5.00033C10.7573 4.58611 10.4215 4.25033 10.0073 4.25033V5.75033ZM5.83107 4.25074C4.85167 4.25367 4.12725 4.26759 3.50033 4.53072L4.08086 5.91383C4.37911 5.78865 4.78057 5.75389 5.83557 5.75073L5.83107 4.25074ZM3.50033 4.53072C2.68212 4.87415 2.01836 5.50739 1.63136 6.30886L2.98213 6.96109C3.21163 6.4858 3.60319 6.11432 4.08086 5.91383L3.50033 4.53072ZM1.63136 6.30886C1.45635 6.6713 1.36906 7.05721 1.31201 7.4946C1.2559 7.92478 1.22358 8.45527 1.18304 9.11266L2.6802 9.20499C2.722 8.52721 2.75145 8.05631 2.79941 7.68862C2.84643 7.32815 2.90553 7.11973 2.98213 6.9611L1.63136 6.30886ZM1.18304 9.11266L1.05401 11.2049L2.55116 11.2972L2.6802 9.20499L1.18304 9.11266ZM1.05401 11.2049C0.952951 12.8435 0.870825 14.1487 0.946015 15.1728C1.02272 16.2174 1.26916 17.0907 1.91969 17.7925L3.01977 16.7728C2.69599 16.4235 2.50647 15.9412 2.44199 15.0629C2.37599 14.164 2.44745 12.979 2.55116 11.2972L1.05401 11.2049ZM1.91971 17.7925C2.57173 18.4959 3.42078 18.8017 4.44975 18.9451C5.45607 19.0854 6.749 19.0837 8.36824 19.0837V17.5837C6.70466 17.5837 5.53548 17.5819 4.65683 17.4595C3.80082 17.3401 3.34203 17.1204 3.01975 16.7728L1.91971 17.7925ZM8.36824 19.0837H11.6317V17.5837H8.36824V19.0837ZM11.6317 19.0837C13.251 19.0837 14.5439 19.0854 15.5502 18.9451C16.5792 18.8017 17.4283 18.4959 18.0803 17.7925L16.9802 16.7728C16.658 17.1204 16.1992 17.3401 15.3432 17.4595C14.4645 17.5819 13.2953 17.5837 11.6317 17.5837V19.0837ZM18.0803 17.7925C18.7308 17.0907 18.9773 16.2174 19.054 15.1728C19.1292 14.1487 19.047 12.8435 18.946 11.2049L17.4488 11.2972C17.5525 12.979 17.624 14.164 17.558 15.0629C17.4935 15.9412 17.304 16.4235 16.9802 16.7728L18.0803 17.7925ZM18.946 11.2049L18.8169 9.11264L17.3197 9.20501L17.4488 11.2973L18.946 11.2049ZM18.8169 9.11267C18.7764 8.45528 18.7441 7.92479 18.6879 7.49461C18.6309 7.05723 18.5436 6.67132 18.3686 6.30888L17.0178 6.96107C17.0944 7.1197 17.1535 7.32814 17.2005 7.68861C17.2485 8.0563 17.2779 8.5272 17.3197 9.20499L18.8169 9.11267ZM18.3686 6.30886C17.9816 5.50739 17.3179 4.87415 16.4997 4.53073L15.9191 5.91383C16.3968 6.11432 16.7883 6.4858 17.0178 6.96109L18.3686 6.30886ZM16.4997 4.53072C15.8728 4.26759 15.1483 4.25367 14.1689 4.25074L14.1644 5.75073C15.2194 5.75389 15.6209 5.78865 15.9191 5.91383L16.4997 4.53072ZM14.863 5.55512L14.1248 3.70965L12.7321 4.26672L13.4703 6.11219L14.863 5.55512ZM14.1248 3.70963C13.9829 3.35485 13.806 2.85441 13.5625 2.42154C13.3066 1.9665 12.9366 1.50326 12.3466 1.21114L11.6811 2.55543C11.91 2.66877 12.0881 2.85986 12.2551 3.15685C12.4346 3.47601 12.5556 3.82529 12.7321 4.26673L14.1248 3.70963ZM12.3466 1.21116C12.0131 1.04605 11.6702 0.978183 11.301 0.946734C10.9444 0.916365 10.5131 0.916992 9.99999 0.916992V2.41699C10.5382 2.41699 10.8954 2.41762 11.1737 2.44132C11.4393 2.46395 11.5777 2.50423 11.681 2.55541L12.3466 1.21116ZM9.99999 0.916992C9.48692 0.916992 9.05555 0.916365 8.69898 0.946734C8.32973 0.978183 7.98682 1.04605 7.65335 1.21115L8.31888 2.55542C8.42228 2.50423 8.56064 2.46395 8.82627 2.44132C9.10459 2.41762 9.46173 2.41699 9.99999 2.41699V0.916992ZM7.65334 1.21115C7.06331 1.50327 6.69333 1.96652 6.43742 2.42155C6.19398 2.85442 6.01706 3.35486 5.87515 3.70965L7.26787 4.26672C7.44444 3.82528 7.56535 3.476 7.74484 3.15684C7.91187 2.85985 8.08996 2.66876 8.31888 2.55542L7.65334 1.21115ZM5.87515 3.70964L5.13696 5.55512L6.52968 6.1122L7.26787 4.26673L5.87515 3.70964ZM12.1667 11.667C12.1667 12.8636 11.1966 13.8337 9.99999 13.8337V15.3337C12.025 15.3337 13.6667 13.692 13.6667 11.667H12.1667ZM9.99999 13.8337C8.80337 13.8337 7.83332 12.8636 7.83332 11.667H6.33332C6.33332 13.692 7.97494 15.3337 9.99999 15.3337V13.8337ZM7.83332 11.667C7.83332 10.4704 8.80337 9.50033 9.99999 9.50033V8.00033C7.97494 8.00033 6.33332 9.64195 6.33332 11.667H7.83332ZM9.99999 9.50033C11.1966 9.50033 12.1667 10.4704 12.1667 11.667H13.6667C13.6667 9.64195 12.025 8.00033 9.99999 8.00033V9.50033ZM9.99982 5.75033H10.0073V4.25033H9.99982V5.75033Z" fill="#525252"/>
</svg>
