<svg width="16" height="16" viewBox="0 0 16 16" fill="none" xmlns="http://www.w3.org/2000/svg">
<path d="M1.33325 14.6673H14.6666M5.33325 14.6673V4.00065C5.33325 2.89754 5.56347 2.66732 6.66659 2.66732H9.33325C10.4364 2.66732 10.6666 2.89754 10.6666 4.00065V14.6673M5.33325 14.6673H10.6666M5.33325 14.6673H1.99992V10.0007C1.99992 8.89752 2.23014 8.66732 3.33325 8.66732H5.33325V14.6673ZM10.6666 14.6673V8.66732H12.6666C13.7697 8.66732 13.9999 8.89752 13.9999 10.0007V14.6673H10.6666ZM7.99992 2.66732V1.33398M7.99992 14.6673V13.334M7.33325 10.0007H8.66659M7.33325 7.66732H8.66659M7.33325 5.33398H8.66659" stroke="#3961B2" stroke-linecap="round" stroke-linejoin="round"/>
</svg>
