<svg width="16" height="16" viewBox="0 0 16 16" fill="none" xmlns="http://www.w3.org/2000/svg">
<path d="M6.08341 5.33325C6.08341 4.91904 5.74763 4.58325 5.33341 4.58325C4.9192 4.58325 4.58341 4.91904 4.58341 5.33325H6.08341ZM4.58341 6.66659C4.58341 7.0808 4.9192 7.41659 5.33341 7.41659C5.74763 7.41659 6.08341 7.0808 6.08341 6.66659H4.58341ZM6.08341 9.99992C6.08341 9.58571 5.74763 9.24992 5.33341 9.24992C4.9192 9.24992 4.58341 9.58571 4.58341 9.99992H6.08341ZM4.58341 11.3333C4.58341 11.7475 4.9192 12.0833 5.33341 12.0833C5.74763 12.0833 6.08341 11.7475 6.08341 11.3333H4.58341ZM13.3334 3.33325H12.5834C12.5834 3.33395 12.5834 3.33628 12.582 3.34169C12.5804 3.34746 12.5765 3.35917 12.5667 3.37707C12.5463 3.4144 12.5028 3.47422 12.4167 3.55055C12.24 3.70729 11.9413 3.88271 11.508 4.04522C10.6468 4.36817 9.40672 4.58325 8.00008 4.58325V5.33325V6.08325C9.53897 6.08325 10.9656 5.85062 12.0347 5.44971C12.5664 5.2503 13.0489 4.99475 13.4118 4.67294C13.7739 4.3519 14.0834 3.9009 14.0834 3.33325H13.3334ZM8.00008 5.33325V4.58325C6.59345 4.58325 5.35339 4.36817 4.49219 4.04522C4.05882 3.88271 3.76021 3.70729 3.58342 3.55055C3.49734 3.47422 3.45383 3.4144 3.43346 3.37707C3.42369 3.35917 3.41977 3.34746 3.41821 3.34169C3.41674 3.33628 3.41675 3.33395 3.41675 3.33325H2.66675H1.91675C1.91675 3.9009 2.22621 4.3519 2.58831 4.67294C2.95129 4.99475 3.43373 5.2503 3.9655 5.44971C5.03459 5.85062 6.4612 6.08325 8.00008 6.08325V5.33325ZM2.66675 3.33325H3.41675C3.41675 3.33256 3.41674 3.33022 3.41821 3.32481C3.41977 3.31905 3.42369 3.30733 3.43346 3.28944C3.45383 3.2521 3.49734 3.19228 3.58342 3.11596C3.76021 2.95921 4.05882 2.7838 4.49219 2.62129C5.35339 2.29833 6.59345 2.08325 8.00008 2.08325V1.33325V0.583252C6.4612 0.583252 5.03459 0.815885 3.9655 1.21679C3.43373 1.41621 2.95129 1.67176 2.58831 1.99357C2.22621 2.31461 1.91675 2.7656 1.91675 3.33325H2.66675ZM8.00008 1.33325V2.08325C9.40672 2.08325 10.6468 2.29833 11.508 2.62129C11.9413 2.7838 12.24 2.95921 12.4167 3.11596C12.5028 3.19228 12.5463 3.2521 12.5667 3.28944C12.5765 3.30733 12.5804 3.31905 12.582 3.32481C12.5834 3.33022 12.5834 3.33256 12.5834 3.33325H13.3334H14.0834C14.0834 2.7656 13.7739 2.31461 13.4118 1.99357C13.0489 1.67176 12.5664 1.41621 12.0347 1.21679C10.9656 0.815885 9.53897 0.583252 8.00008 0.583252V1.33325ZM13.3334 7.99992H12.5834C12.5834 8.00062 12.5834 8.00296 12.582 8.00837C12.5804 8.01413 12.5765 8.02585 12.5667 8.04375C12.5463 8.08109 12.5028 8.14091 12.4167 8.21723C12.24 8.37397 11.9413 8.54939 11.508 8.7119C10.6468 9.03484 9.40673 9.24992 8.00008 9.24992V9.99992V10.7499C9.53897 10.7499 10.9656 10.5173 12.0347 10.1164C12.5664 9.91698 13.0489 9.66143 13.4119 9.33961C13.774 9.01857 14.0834 8.56757 14.0834 7.99992H13.3334ZM8.00008 9.99992V9.24992C6.59344 9.24992 5.35339 9.03484 4.49218 8.7119C4.05882 8.54938 3.76021 8.37397 3.58342 8.21723C3.49734 8.14091 3.45384 8.08108 3.43346 8.04375C3.4237 8.02585 3.41977 8.01413 3.41821 8.00837C3.41674 8.00296 3.41675 8.00062 3.41675 7.99992H2.66675H1.91675C1.91675 8.56757 2.22621 9.01857 2.58831 9.33961C2.95129 9.66143 3.43373 9.91698 3.9655 10.1164C5.03459 10.5173 6.4612 10.7499 8.00008 10.7499V9.99992ZM13.3334 3.33325H12.5834V12.6666H13.3334H14.0834V3.33325H13.3334ZM13.3334 12.6666H12.5834C12.5834 12.6673 12.5834 12.6696 12.582 12.675C12.5804 12.6808 12.5765 12.6925 12.5667 12.7104C12.5463 12.7478 12.5028 12.8076 12.4167 12.8839C12.24 13.0406 11.9413 13.2161 11.508 13.3786C10.6468 13.7015 9.40673 13.9166 8.00008 13.9166V14.6666V15.4166C9.53897 15.4166 10.9656 15.184 12.0347 14.7831C12.5664 14.5836 13.0489 14.3281 13.4119 14.0063C13.774 13.6852 14.0834 13.2342 14.0834 12.6666H13.3334ZM8.00008 14.6666V13.9166C6.59344 13.9166 5.35339 13.7015 4.49218 13.3786C4.05882 13.2161 3.76021 13.0406 3.58342 12.8839C3.49734 12.8076 3.45384 12.7478 3.43346 12.7104C3.4237 12.6925 3.41977 12.6808 3.41821 12.675C3.41674 12.6696 3.41675 12.6673 3.41675 12.6666H2.66675H1.91675C1.91675 13.2342 2.22621 13.6852 2.58831 14.0063C2.95129 14.3281 3.43373 14.5836 3.9655 14.7831C5.03459 15.184 6.4612 15.4166 8.00008 15.4166V14.6666ZM2.66675 12.6666H3.41675V3.33325H2.66675H1.91675V12.6666H2.66675ZM5.33341 5.33325H4.58341V6.66659H5.33341H6.08341V5.33325H5.33341ZM5.33341 9.99992H4.58341V11.3333H5.33341H6.08341V9.99992H5.33341Z" fill="#525252"/>
</svg>
