<svg width="20" height="20" viewBox="0 0 20 20" fill="none" xmlns="http://www.w3.org/2000/svg">
<path d="M12.4998 11.667C12.4998 12.5875 11.7537 13.3337 10.8332 13.3337H9.99984C9.22325 13.3337 8.835 13.3337 8.52867 13.2068C8.12032 13.0377 7.79586 12.7132 7.6267 12.3048C7.49984 11.9985 7.49984 11.6102 7.49984 10.8337V9.16699C7.49984 8.39041 7.49984 8.00214 7.6267 7.69585C7.79586 7.28748 8.12032 6.96302 8.52867 6.79386C8.835 6.66699 9.22325 6.66699 9.99984 6.66699H10.8332C11.7537 6.66699 12.4998 7.41318 12.4998 8.33366M18.3332 10.0003C18.3332 14.6027 14.6022 18.3337 9.99984 18.3337C5.39746 18.3337 1.6665 14.6027 1.6665 10.0003C1.6665 5.39795 5.39746 1.66699 9.99984 1.66699C14.6022 1.66699 18.3332 5.39795 18.3332 10.0003Z" stroke="#85ACFF" stroke-width="1.5"/>
</svg>
