<svg width="20" height="20" viewBox="0 0 20 20" fill="none" xmlns="http://www.w3.org/2000/svg">
<path d="M6.66663 3.75V2.5M13.3333 3.75V2.5" stroke="#525252" stroke-linecap="round" stroke-linejoin="round"/>
<path d="M16.25 6.66675H17.5M16.25 13.3334H17.5" stroke="#525252" stroke-linecap="round" stroke-linejoin="round"/>
<path d="M6.66663 17.5V16.25M13.3333 17.5V16.25" stroke="#525252" stroke-linecap="round" stroke-linejoin="round"/>
<path d="M2.5 6.66675H3.75M2.5 13.3334H3.75" stroke="#525252" stroke-linecap="round" stroke-linejoin="round"/>
<path d="M6.66663 9.16675C6.66663 7.98824 6.66663 7.39898 7.03274 7.03286C7.39886 6.66675 7.98812 6.66675 9.16663 6.66675H10.8333C12.0118 6.66675 12.601 6.66675 12.9672 7.03286C13.3333 7.39898 13.3333 7.98824 13.3333 9.16675V10.8334C13.3333 12.0119 13.3333 12.6012 12.9672 12.9673C12.601 13.3334 12.0118 13.3334 10.8333 13.3334H9.16663C7.98812 13.3334 7.39886 13.3334 7.03274 12.9673C6.66663 12.6012 6.66663 12.0119 6.66663 10.8334V9.16675Z" stroke="#525252"/>
</svg>
