<svg width="14" height="16" viewBox="0 0 14 16" fill="none" xmlns="http://www.w3.org/2000/svg">
<path d="M11.5868 10.3497L11.0878 10.3189L11.5868 10.3497ZM12.499 3.69719C12.5161 3.42157 12.3065 3.18433 12.0309 3.16729C11.7552 3.15026 11.518 3.35987 11.501 3.63549L12.499 3.69719ZM2.49909 3.63621C2.48245 3.36057 2.24551 3.15061 1.96987 3.16725C1.69423 3.18389 1.48427 3.42083 1.50091 3.69647L2.49909 3.63621ZM2.40307 10.3431L2.90216 10.313L2.40307 10.3431ZM11.0005 13.5249L11.4106 13.8109V13.8109L11.0005 13.5249ZM10.2005 14.277L9.94034 13.85H9.94034L10.2005 14.277ZM2.98579 13.5229L3.39619 13.2373L3.39619 13.2373L2.98579 13.5229ZM3.78604 14.2763L4.04639 13.8494L3.78604 14.2763ZM1 3.16634C0.723858 3.16634 0.5 3.3902 0.5 3.66634C0.5 3.94248 0.723858 4.16634 1 4.16634V3.16634ZM13 4.16634C13.2761 4.16634 13.5 3.94248 13.5 3.66634C13.5 3.3902 13.2761 3.16634 13 3.16634V4.16634ZM9.2487 2.72749L8.79878 2.9456L8.79878 2.9456L9.2487 2.72749ZM4.7724 2.78051L5.22737 2.9879L4.7724 2.78051ZM5.4782 1.60845L5.78254 2.00516L5.78254 2.00516L5.4782 1.60845ZM5.66379 1.48909L5.42905 1.04762V1.04762L5.66379 1.48909ZM8.53448 1.59755L8.83341 1.19675L8.83341 1.19675L8.53448 1.59755ZM8.35135 1.48281L8.12109 1.92663V1.92663L8.35135 1.48281ZM4.83333 10.9997C4.83333 11.2758 5.05719 11.4997 5.33333 11.4997C5.60948 11.4997 5.83333 11.2758 5.83333 10.9997H4.83333ZM5.83333 6.99967C5.83333 6.72353 5.60948 6.49967 5.33333 6.49967C5.05719 6.49967 4.83333 6.72353 4.83333 6.99967H5.83333ZM8.16667 10.9997C8.16667 11.2758 8.39052 11.4997 8.66667 11.4997C8.94281 11.4997 9.16667 11.2758 9.16667 10.9997H8.16667ZM9.16667 6.99967C9.16667 6.72353 8.94281 6.49967 8.66667 6.49967C8.39052 6.49967 8.16667 6.72353 8.16667 6.99967H9.16667ZM11.5868 10.3497L12.0859 10.3806L12.499 3.69719L12 3.66634L11.501 3.63549L11.0878 10.3189L11.5868 10.3497ZM2 3.66634L1.50091 3.69647L1.90398 10.3732L2.40307 10.3431L2.90216 10.313L2.49909 3.63621L2 3.66634ZM11.5868 10.3497L11.0878 10.3189C11.0344 11.1824 10.996 11.7947 10.9208 12.2691C10.8468 12.7356 10.7437 13.019 10.5904 13.2389L11.0005 13.5249L11.4106 13.8109C11.6853 13.417 11.8226 12.9666 11.9084 12.4258C11.9929 11.893 12.0337 11.2247 12.0859 10.3806L11.5868 10.3497ZM6.99516 14.6663V15.1663C7.84086 15.1663 8.51047 15.1669 9.04745 15.1154C9.59251 15.0631 10.0505 14.9539 10.4606 14.704L10.2005 14.277L9.94034 13.85C9.71139 13.9895 9.42212 14.0749 8.95201 14.12C8.47381 14.1658 7.8603 14.1663 6.99516 14.1663V14.6663ZM11.0005 13.5249L10.5904 13.2389C10.4184 13.4855 10.1971 13.6936 9.94034 13.85L10.2005 14.277L10.4606 14.704C10.8358 14.4754 11.1593 14.1713 11.4106 13.8109L11.0005 13.5249ZM2.40307 10.3431L1.90398 10.3732C1.95501 11.2185 1.99488 11.8878 2.07876 12.4213C2.1639 12.9629 2.30079 13.4139 2.57539 13.8085L2.98579 13.5229L3.39619 13.2373C3.24291 13.017 3.14006 12.7332 3.06662 12.266C2.99192 11.7909 2.95436 11.1777 2.90216 10.313L2.40307 10.3431ZM6.99516 14.6663V14.1663C6.12889 14.1663 5.51456 14.1658 5.03575 14.1199C4.56504 14.0747 4.27548 13.9892 4.04639 13.8494L3.78604 14.2763L3.52568 14.7032C3.93609 14.9535 4.39456 15.0629 4.94026 15.1153C5.47787 15.1669 6.14835 15.1663 6.99516 15.1663V14.6663ZM2.98579 13.5229L2.57539 13.8085C2.82659 14.1695 3.15023 14.4742 3.52568 14.7032L3.78604 14.2763L4.04639 13.8494C3.7895 13.6927 3.56807 13.4843 3.39619 13.2373L2.98579 13.5229ZM1 3.66634V4.16634H4.36862V3.66634V3.16634H1V3.66634ZM4.36862 3.66634V4.16634H9.70382V3.66634V3.16634H4.36862V3.66634ZM9.70382 3.66634V4.16634H13V3.66634V3.16634H9.70382V3.66634ZM9.2487 2.72749L8.79878 2.9456L9.2539 3.88445L9.70382 3.66634L10.1537 3.44824L9.69862 2.50939L9.2487 2.72749ZM4.7724 2.78051L4.31744 2.57313L3.91365 3.45895L4.36862 3.66634L4.82358 3.87373L5.22737 2.9879L4.7724 2.78051ZM4.7724 2.78051L5.22737 2.9879C5.37843 2.65649 5.4784 2.43833 5.57118 2.27572C5.65925 2.12136 5.72244 2.05127 5.78254 2.00516L5.4782 1.60845L5.17386 1.21175C4.97018 1.36799 4.82782 1.5607 4.70261 1.78016C4.5821 1.99138 4.46106 2.25807 4.31744 2.57313L4.7724 2.78051ZM7.02302 1.33301V0.833008C6.67677 0.833008 6.3839 0.83253 6.14172 0.854577C5.89009 0.877485 5.6557 0.9271 5.42905 1.04762L5.66379 1.48909L5.89853 1.93056C5.96541 1.895 6.0554 1.86657 6.23238 1.85046C6.41883 1.83349 6.6588 1.83301 7.02302 1.83301V1.33301ZM5.4782 1.60845L5.78254 2.00516C5.81907 1.97713 5.85787 1.95218 5.89853 1.93056L5.66379 1.48909L5.42905 1.04762C5.3396 1.09518 5.25424 1.15008 5.17386 1.21175L5.4782 1.60845ZM9.2487 2.72749L9.69862 2.50939C9.55131 2.20549 9.42702 1.94805 9.3047 1.74426C9.17757 1.53246 9.03465 1.34684 8.83341 1.19675L8.53448 1.59755L8.23554 1.99834C8.29505 2.04273 8.35808 2.11026 8.4473 2.2589C8.54132 2.41555 8.64378 2.62585 8.79878 2.9456L9.2487 2.72749ZM7.02302 1.33301V1.83301C7.37835 1.83301 7.61228 1.83347 7.79426 1.84974C7.96693 1.86519 8.05519 1.89244 8.12109 1.92663L8.35135 1.48281L8.58161 1.03898C8.35877 0.923372 8.12939 0.875728 7.88335 0.853721C7.64661 0.832547 7.36074 0.833008 7.02302 0.833008V1.33301ZM8.53448 1.59755L8.83341 1.19675C8.75388 1.13743 8.66967 1.08467 8.58161 1.03898L8.35135 1.48281L8.12109 1.92663C8.16112 1.9474 8.19939 1.97138 8.23555 1.99835L8.53448 1.59755ZM5.33333 10.9997H5.83333L5.83333 6.99967H5.33333H4.83333L4.83333 10.9997H5.33333ZM8.66667 10.9997H9.16667V6.99967H8.66667H8.16667V10.9997H8.66667Z" fill="#FF2E37"/>
</svg>
