<svg width="16" height="16" viewBox="0 0 16 16" fill="none" xmlns="http://www.w3.org/2000/svg">
<path d="M12.5868 10.3497L11.8383 10.3035L12.5868 10.3497ZM13.7486 3.71262C13.7741 3.29919 13.4597 2.94333 13.0463 2.91777C12.6329 2.89221 12.277 3.20664 12.2514 3.62007L13.7486 3.71262ZM3.74864 3.62115C3.72368 3.20769 3.36827 2.89274 2.95481 2.9177C2.54134 2.94266 2.2264 3.29808 2.25136 3.71154L3.74864 3.62115ZM3.40307 10.3431L4.15171 10.2979L3.40307 10.3431ZM12.0005 13.5249L12.6157 13.9539L12.6157 13.9539L12.0005 13.5249ZM11.2005 14.277L10.8103 13.6365H10.8103L11.2005 14.277ZM3.98579 13.5229L4.60139 13.0945H4.60139L3.98579 13.5229ZM4.78604 14.2763L5.17657 13.636L4.78604 14.2763ZM2 2.91634C1.58579 2.91634 1.25 3.25213 1.25 3.66634C1.25 4.08055 1.58579 4.41634 2 4.41634V2.91634ZM14 4.41634C14.4142 4.41634 14.75 4.08055 14.75 3.66634C14.75 3.25213 14.4142 2.91634 14 2.91634V4.41634ZM10.2487 2.72749L9.57382 3.05465V3.05465L10.2487 2.72749ZM5.7724 2.78051L6.45485 3.09159L5.7724 2.78051ZM6.4782 1.60845L6.93471 2.20351L6.93471 2.20351L6.4782 1.60845ZM6.66379 1.48909L6.31167 0.826882L6.31167 0.826883L6.66379 1.48909ZM9.53448 1.59755L9.98287 0.996348L9.98287 0.996345L9.53448 1.59755ZM9.35135 1.48281L9.00596 2.14855L9.00596 2.14855L9.35135 1.48281ZM5.58333 10.9997C5.58333 11.4139 5.91912 11.7497 6.33333 11.7497C6.74755 11.7497 7.08333 11.4139 7.08333 10.9997H5.58333ZM7.08333 6.99967C7.08333 6.58546 6.74755 6.24967 6.33333 6.24967C5.91912 6.24967 5.58333 6.58546 5.58333 6.99967H7.08333ZM8.91667 10.9997C8.91667 11.4139 9.25245 11.7497 9.66667 11.7497C10.0809 11.7497 10.4167 11.4139 10.4167 10.9997H8.91667ZM10.4167 6.99967C10.4167 6.58546 10.0809 6.24967 9.66667 6.24967C9.25245 6.24967 8.91667 6.58546 8.91667 6.99967H10.4167ZM12.5868 10.3497L13.3354 10.396L13.7486 3.71262L13 3.66634L12.2514 3.62007L11.8383 10.3035L12.5868 10.3497ZM3 3.66634L2.25136 3.71154L2.65443 10.3883L3.40307 10.3431L4.15171 10.2979L3.74864 3.62115L3 3.66634ZM12.5868 10.3497L11.8383 10.3035C11.7846 11.1718 11.7468 11.7701 11.6739 12.23C11.6028 12.6778 11.5083 12.9195 11.3853 13.0959L12.0005 13.5249L12.6157 13.9539C12.9207 13.5165 13.0666 13.0244 13.1553 12.465C13.2422 11.9176 13.2835 11.2352 13.3354 10.396L12.5868 10.3497ZM7.99516 14.6663V15.4163C8.836 15.4163 9.51963 15.4171 10.0713 15.3643C10.6351 15.3102 11.1353 15.195 11.5907 14.9175L11.2005 14.277L10.8103 13.6365C10.6266 13.7484 10.3795 13.8278 9.92815 13.8711C9.46464 13.9155 8.86516 13.9163 7.99516 13.9163V14.6663ZM12.0005 13.5249L11.3853 13.0959C11.2332 13.3141 11.0374 13.4982 10.8103 13.6365L11.2005 14.277L11.5907 14.9175C11.9955 14.6709 12.3446 14.3427 12.6157 13.9539L12.0005 13.5249ZM3.40307 10.3431L2.65443 10.3883C2.70517 11.2287 2.74562 11.912 2.83179 12.4602C2.91986 13.0203 3.06526 13.5132 3.37019 13.9513L3.98579 13.5229L4.60139 13.0945C4.47844 12.9178 4.38411 12.6757 4.31359 12.2272C4.24118 11.7666 4.2042 11.1675 4.15171 10.2979L3.40307 10.3431ZM7.99516 14.6663V13.9163C7.12403 13.9163 6.52373 13.9155 6.05963 13.871C5.60766 13.8277 5.36033 13.7481 5.17657 13.636L4.78604 14.2763L4.3955 14.9166C4.85124 15.1946 5.35194 15.31 5.91638 15.3642C6.4687 15.4171 7.15321 15.4163 7.99516 15.4163V14.6663ZM3.98579 13.5229L3.37019 13.9513C3.64122 14.3408 3.99041 14.6695 4.3955 14.9166L4.78604 14.2763L5.17657 13.636C4.94932 13.4974 4.75344 13.313 4.60139 13.0945L3.98579 13.5229ZM2 3.66634V4.41634H5.36862V3.66634V2.91634H2V3.66634ZM5.36862 3.66634V4.41634H10.7038V3.66634V2.91634H5.36862V3.66634ZM10.7038 3.66634V4.41634H14V3.66634V2.91634H10.7038V3.66634ZM10.2487 2.72749L9.57382 3.05465L10.0289 3.9935L10.7038 3.66634L11.3787 3.33918L10.9236 2.40034L10.2487 2.72749ZM5.7724 2.78051L5.08996 2.46943L4.68617 3.35526L5.36862 3.66634L6.05106 3.97742L6.45485 3.09159L5.7724 2.78051ZM5.7724 2.78051L6.45485 3.09159C6.60778 2.7561 6.70248 2.55007 6.78832 2.39961C6.86711 2.26153 6.9105 2.22208 6.93471 2.20351L6.4782 1.60845L6.02169 1.01339C5.78212 1.19718 5.61996 1.42053 5.48546 1.65627C5.35802 1.87964 5.23171 2.15846 5.08996 2.46943L5.7724 2.78051ZM8.02302 1.33301V0.583008C7.68126 0.583008 7.37516 0.582291 7.11906 0.605606C6.84876 0.630213 6.57827 0.685125 6.31167 0.826882L6.66379 1.48909L7.0159 2.15129C7.04284 2.13697 7.09673 2.11384 7.25505 2.09943C7.42756 2.08372 7.65431 2.08301 8.02302 2.08301V1.33301ZM6.4782 1.60845L6.93471 2.20351C6.96028 2.1839 6.98744 2.16643 7.0159 2.15129L6.66379 1.48909L6.31167 0.826883C6.21003 0.880932 6.11303 0.943315 6.02169 1.01339L6.4782 1.60845ZM10.2487 2.72749L10.9236 2.40034C10.7782 2.1004 10.6484 1.83117 10.5191 1.6156C10.3824 1.388 10.2195 1.17287 9.98287 0.996348L9.53448 1.59755L9.08608 2.19874C9.11016 2.2167 9.15321 2.25471 9.23294 2.38756C9.3199 2.53243 9.4169 2.73094 9.57382 3.05465L10.2487 2.72749ZM8.02302 1.33301V2.08301C8.38276 2.08301 8.6037 2.0837 8.77199 2.09875C8.92631 2.11255 8.9793 2.13471 9.00596 2.14855L9.35135 1.48281L9.69674 0.817071C9.43466 0.681104 9.17001 0.628362 8.90562 0.604715C8.65519 0.582317 8.35634 0.583008 8.02302 0.583008V1.33301ZM9.53448 1.59755L9.98287 0.996345C9.8925 0.928947 9.79681 0.868991 9.69674 0.817071L9.35135 1.48281L9.00596 2.14855C9.03398 2.16308 9.06077 2.17987 9.08608 2.19874L9.53448 1.59755ZM6.33333 10.9997H7.08333L7.08333 6.99967H6.33333H5.58333L5.58333 10.9997H6.33333ZM9.66667 10.9997H10.4167V6.99967H9.66667H8.91667V10.9997H9.66667Z" fill="#1E1E1E"/>
</svg>
