<svg width="16" height="16" viewBox="0 0 16 16" fill="none" xmlns="http://www.w3.org/2000/svg">
<path d="M12.5868 10.3502L12.0878 10.3194L12.5868 10.3502ZM13.499 3.69768C13.5161 3.42206 13.3065 3.18482 13.0309 3.16778C12.7552 3.15074 12.518 3.36036 12.501 3.63598L13.499 3.69768ZM3.49909 3.6367C3.48245 3.36106 3.24551 3.1511 2.96987 3.16774C2.69423 3.18438 2.48427 3.42132 2.50091 3.69696L3.49909 3.6367ZM3.40307 10.3436L3.90216 10.3135L3.40307 10.3436ZM12.0005 13.5254L12.4106 13.8114V13.8114L12.0005 13.5254ZM11.2005 14.2775L10.9403 13.8505H10.9403L11.2005 14.2775ZM3.98579 13.5234L4.39619 13.2378L4.39619 13.2378L3.98579 13.5234ZM4.78604 14.2768L5.04639 13.8499L4.78604 14.2768ZM2 3.16683C1.72386 3.16683 1.5 3.39069 1.5 3.66683C1.5 3.94297 1.72386 4.16683 2 4.16683V3.16683ZM14 4.16683C14.2761 4.16683 14.5 3.94297 14.5 3.66683C14.5 3.39069 14.2761 3.16683 14 3.16683V4.16683ZM10.2487 2.72798L9.79878 2.94608L9.79878 2.94609L10.2487 2.72798ZM5.7724 2.781L6.22737 2.98839L5.7724 2.781ZM6.4782 1.60894L6.78254 2.00565L6.78254 2.00565L6.4782 1.60894ZM6.66379 1.48958L6.42905 1.04811V1.04811L6.66379 1.48958ZM9.53448 1.59803L9.83341 1.19724L9.83341 1.19723L9.53448 1.59803ZM9.35135 1.4833L9.12109 1.92712V1.92712L9.35135 1.4833ZM5.83333 11.0002C5.83333 11.2763 6.05719 11.5002 6.33333 11.5002C6.60948 11.5002 6.83333 11.2763 6.83333 11.0002H5.83333ZM6.83333 7.00016C6.83333 6.72402 6.60948 6.50016 6.33333 6.50016C6.05719 6.50016 5.83333 6.72402 5.83333 7.00016H6.83333ZM9.16667 11.0002C9.16667 11.2763 9.39052 11.5002 9.66667 11.5002C9.94281 11.5002 10.1667 11.2763 10.1667 11.0002H9.16667ZM10.1667 7.00016C10.1667 6.72402 9.94281 6.50016 9.66667 6.50016C9.39052 6.50016 9.16667 6.72402 9.16667 7.00016H10.1667ZM12.5868 10.3502L13.0859 10.3811L13.499 3.69768L13 3.66683L12.501 3.63598L12.0878 10.3194L12.5868 10.3502ZM3 3.66683L2.50091 3.69696L2.90398 10.3737L3.40307 10.3436L3.90216 10.3135L3.49909 3.6367L3 3.66683ZM12.5868 10.3502L12.0878 10.3194C12.0344 11.1829 11.996 11.7952 11.9208 12.2696C11.8468 12.7361 11.7437 13.0195 11.5904 13.2394L12.0005 13.5254L12.4106 13.8114C12.6853 13.4175 12.8226 12.9671 12.9084 12.4263C12.9929 11.8935 13.0337 11.2252 13.0859 10.3811L12.5868 10.3502ZM7.99516 14.6668V15.1668C8.84086 15.1668 9.51047 15.1674 10.0474 15.1159C10.5925 15.0636 11.0505 14.9544 11.4606 14.7045L11.2005 14.2775L10.9403 13.8505C10.7114 13.99 10.4221 14.0754 9.95201 14.1204C9.47381 14.1663 8.8603 14.1668 7.99516 14.1668V14.6668ZM12.0005 13.5254L11.5904 13.2394C11.4184 13.486 11.1971 13.6941 10.9403 13.8505L11.2005 14.2775L11.4606 14.7045C11.8358 14.4759 12.1593 14.1718 12.4106 13.8114L12.0005 13.5254ZM3.40307 10.3436L2.90398 10.3737C2.95501 11.219 2.99488 11.8883 3.07876 12.4218C3.1639 12.9634 3.30079 13.4144 3.57539 13.809L3.98579 13.5234L4.39619 13.2378C4.24291 13.0175 4.14006 12.7337 4.06662 12.2665C3.99192 11.7914 3.95436 11.1782 3.90216 10.3135L3.40307 10.3436ZM7.99516 14.6668V14.1668C7.12889 14.1668 6.51456 14.1663 6.03575 14.1204C5.56504 14.0752 5.27548 13.9896 5.04639 13.8499L4.78604 14.2768L4.52568 14.7037C4.93609 14.954 5.39456 15.0634 5.94026 15.1158C6.47787 15.1674 7.14835 15.1668 7.99516 15.1668V14.6668ZM3.98579 13.5234L3.57539 13.809C3.82659 14.17 4.15023 14.4747 4.52568 14.7037L4.78604 14.2768L5.04639 13.8499C4.7895 13.6932 4.56807 13.4848 4.39619 13.2378L3.98579 13.5234ZM2 3.66683V4.16683H5.36862V3.66683V3.16683H2V3.66683ZM5.36862 3.66683V4.16683H10.7038V3.66683V3.16683H5.36862V3.66683ZM10.7038 3.66683V4.16683H14V3.66683V3.16683L10.7038 3.16683V3.66683ZM10.2487 2.72798L9.79878 2.94609L10.2539 3.88493L10.7038 3.66683L11.1537 3.44872L10.6986 2.50988L10.2487 2.72798ZM5.7724 2.781L5.31744 2.57361L4.91365 3.45944L5.36862 3.66683L5.82358 3.87422L6.22737 2.98839L5.7724 2.781ZM5.7724 2.781L6.22737 2.98839C6.37843 2.65698 6.4784 2.43882 6.57118 2.27621C6.65925 2.12185 6.72244 2.05175 6.78254 2.00565L6.4782 1.60894L6.17386 1.21223C5.97018 1.36848 5.82782 1.56118 5.70261 1.78065C5.5821 1.99186 5.46106 2.25855 5.31744 2.57361L5.7724 2.781ZM8.02302 1.3335V0.833496C7.67677 0.833496 7.3839 0.833018 7.14172 0.855065C6.89009 0.877973 6.6557 0.927588 6.42905 1.04811L6.66379 1.48958L6.89853 1.93105C6.96541 1.89548 7.0554 1.86706 7.23238 1.85095C7.41883 1.83397 7.6588 1.8335 8.02302 1.8335V1.3335ZM6.4782 1.60894L6.78254 2.00565C6.81907 1.97762 6.85787 1.95267 6.89853 1.93105L6.66379 1.48958L6.42905 1.04811C6.3396 1.09567 6.25424 1.15057 6.17386 1.21223L6.4782 1.60894ZM10.2487 2.72798L10.6986 2.50988C10.5513 2.20598 10.427 1.94854 10.3047 1.74475C10.1776 1.53294 10.0346 1.34733 9.83341 1.19724L9.53448 1.59803L9.23554 1.99883C9.29505 2.04322 9.35808 2.11075 9.4473 2.25939C9.54132 2.41604 9.64378 2.62634 9.79878 2.94608L10.2487 2.72798ZM8.02302 1.3335V1.8335C8.37835 1.8335 8.61228 1.83396 8.79426 1.85023C8.96693 1.86568 9.05519 1.89293 9.12109 1.92712L9.35135 1.4833L9.58161 1.03947C9.35877 0.92386 9.12939 0.876216 8.88335 0.854209C8.64661 0.833035 8.36074 0.833496 8.02302 0.833496V1.3335ZM9.53448 1.59803L9.83341 1.19723C9.75388 1.13792 9.66967 1.08516 9.58161 1.03947L9.35135 1.4833L9.12109 1.92712C9.16112 1.94789 9.19939 1.97187 9.23555 1.99883L9.53448 1.59803ZM6.33333 11.0002H6.83333L6.83333 7.00016H6.33333H5.83333L5.83333 11.0002H6.33333ZM9.66667 11.0002H10.1667V7.00016H9.66667H9.16667V11.0002H9.66667Z" fill="#7A7A7A"/>
</svg>
