<svg width="11" height="14" viewBox="0 0 11 14" fill="none" xmlns="http://www.w3.org/2000/svg">
<path d="M0.583984 4.08366C0.928058 4.43765 1.84383 5.83366 2.33398 5.83366C2.82414 5.83366 3.73991 4.43765 4.08398 4.08366M2.33398 5.25033V1.16699M0.583984 7.58366V8.48444C0.583984 10.3774 0.583984 11.3238 1.10086 11.9649C1.20528 12.0944 1.32325 12.2123 1.45276 12.3168C2.09383 12.8337 3.0403 12.8337 4.9332 12.8337C5.3448 12.8337 5.55054 12.8337 5.73902 12.7672C5.77822 12.7533 5.8166 12.7374 5.85411 12.7195C6.03442 12.6332 6.1799 12.4877 6.47093 12.1967L9.23388 9.43376C9.57111 9.09653 9.73969 8.92795 9.82853 8.71352C9.91732 8.49914 9.91732 8.26068 9.91732 7.7838V5.83366C9.91732 3.63377 9.91732 2.53383 9.23388 1.85041C8.55051 1.16699 7.45052 1.16699 5.25065 1.16699M5.83398 12.542V12.2503C5.83398 10.6004 5.83398 9.77548 6.34656 9.2629C6.85913 8.75033 7.68408 8.75033 9.33398 8.75033H9.62565" stroke="white" stroke-linecap="round" stroke-linejoin="round"/>
</svg>
