<svg width="16" height="16" viewBox="0 0 16 16" fill="none" xmlns="http://www.w3.org/2000/svg">
<path d="M14.6663 6.41788V12.8103C14.6663 13.8394 13.8425 14.6668 12.8324 14.6668H3.16695C2.1499 14.6668 1.33301 13.837 1.33301 12.8103L1.33301 3.19004C1.33301 2.16566 2.15223 1.3335 3.16695 1.3335L9.58575 1.3335M11.9852 2.03673L13.8471 3.91202M13.7825 1.33351C14.0176 1.33351 14.2387 1.42727 14.4063 1.59605C14.753 1.94766 14.753 2.51963 14.4063 2.87125L7.02162 10.3466L5.56703 10.5248L5.72063 9.12769L13.1588 1.59605C13.3264 1.42727 13.5475 1.33351 13.7825 1.33351Z" stroke="#7A7A7A" stroke-linecap="round" stroke-linejoin="round"/>
</svg>
