<svg width="20" height="20" viewBox="0 0 20 20" fill="none" xmlns="http://www.w3.org/2000/svg">
<path d="M1.66663 5.00034L7.42748 8.26448C9.55129 9.46785 10.4486 9.46785 12.5724 8.26448L18.3333 5.00034M7.58231 2.94746C9.19938 2.90683 10.8005 2.90684 12.4176 2.94747C15.0414 3.01339 16.3532 3.04635 17.2958 3.99254C18.2384 4.93874 18.2657 6.21604 18.3202 8.77065C18.3377 9.59206 18.3377 10.4086 18.3202 11.23C18.2657 13.7846 18.2384 15.0619 17.2958 16.0081C16.3532 16.9543 15.0414 16.9873 12.4176 17.0532C10.8005 17.0938 9.19939 17.0938 7.58232 17.0532C4.95857 16.9873 3.6467 16.9543 2.70409 16.0081C1.76148 15.0619 1.73424 13.7846 1.67976 11.23C1.66225 10.4086 1.66225 9.59205 1.67976 8.77064C1.73424 6.21603 1.76148 4.93872 2.70409 3.99253C3.64669 3.04634 4.95857 3.01338 7.58231 2.94746Z" stroke="#3961B2" stroke-width="1.5" stroke-linejoin="round"/>
</svg>
