<svg width="120" height="80" viewBox="0 0 120 80" fill="none" xmlns="http://www.w3.org/2000/svg">
<rect width="120" height="80" fill="white"/>
<path d="M61.0938 19.4214C63.0134 19.4214 64.5701 21.2766 64.5703 23.5649C64.5703 25.8535 63.0135 27.7095 61.0938 27.7095H92.875C94.7948 27.7095 96.3515 29.5645 96.3516 31.853C96.3516 34.1416 94.7948 35.9966 92.875 35.9966H103.801C105.72 35.9969 107.276 37.8527 107.276 40.1411C107.276 42.4294 105.72 44.2844 103.801 44.2847H94.3652C92.4455 44.2847 90.8888 46.1398 90.8887 48.4282C90.8887 50.7168 92.4454 52.5728 94.3652 52.5728H97.3447C99.2645 52.5728 100.82 54.4277 100.82 56.7163C100.82 59.0048 99.2645 60.8598 97.3447 60.8599H71.5225C71.2668 60.8599 71.0173 60.8276 70.7773 60.7651C70.5374 60.8276 70.2879 60.8599 70.0322 60.8599H24.8428C22.9231 60.8597 21.3672 59.0047 21.3672 56.7163C21.3672 54.4278 22.9231 52.573 24.8428 52.5728H5.47656C3.55676 52.5728 2 50.7168 2 48.4282C2.00014 46.1398 3.55685 44.2847 5.47656 44.2847H25.3398C27.2595 44.2846 28.8153 42.4295 28.8154 40.1411C28.8154 37.8526 27.2596 35.9967 25.3398 35.9966H12.9248C11.0051 35.9964 9.44922 34.1415 9.44922 31.853C9.44926 29.5646 11.0051 27.7096 12.9248 27.7095H32.7881C30.8685 27.7092 29.3125 25.8534 29.3125 23.5649C29.3127 21.2767 30.8686 19.4216 32.7881 19.4214H61.0938ZM114.625 52.3491C116.876 52.3491 118.702 54.174 118.702 56.4253C118.702 58.6768 116.876 60.5024 114.625 60.5024C112.374 60.5023 110.549 58.6767 110.549 56.4253C110.549 54.1741 112.374 52.3493 114.625 52.3491Z" fill="#F5F5F5"/>
<path d="M60.0343 57.3577C72.8356 57.3577 83.2132 46.9802 83.2132 34.1789C83.2132 21.3775 72.8356 11 60.0343 11C47.233 11 36.8555 21.3775 36.8555 34.1789C36.8555 46.9802 47.233 57.3577 60.0343 57.3577Z" fill="#F3F7FF" stroke="#666C7C" stroke-width="2.5"/>
<path fill-rule="evenodd" clip-rule="evenodd" d="M56.3202 52.1641C57.5371 52.3887 58.7751 52.5054 60.0343 52.5143C70.1607 52.5143 78.3698 44.3052 78.3698 34.1788C78.3698 24.0523 70.1607 15.8433 60.0343 15.8433C57.433 15.8433 54.9582 16.385 52.7166 17.3617C48.8212 19.0592 45.6299 22.0704 43.7025 25.8357C42.4215 28.3384 41.6988 31.1742 41.6988 34.1788C41.6988 36.9049 42.2937 39.492 43.3608 41.8175C44.1227 43.4777 45.1252 45.0045 46.3237 46.3533" fill="white"/>
<path d="M56.3202 52.1641C57.5371 52.3887 58.7751 52.5054 60.0343 52.5143C70.1607 52.5143 78.3698 44.3052 78.3698 34.1788C78.3698 24.0523 70.1607 15.8433 60.0343 15.8433C57.433 15.8433 54.9582 16.385 52.7166 17.3617C48.8212 19.0592 45.6299 22.0704 43.7025 25.8357C42.4215 28.3384 41.6988 31.1742 41.6988 34.1788C41.6988 36.9049 42.2937 39.492 43.3608 41.8175C44.1227 43.4777 45.1252 45.0045 46.3237 46.3533" stroke="#666C7C" stroke-width="2.5" stroke-linecap="round"/>
<path d="M48.4773 48.4141C49.9636 49.6221 51.6427 50.6021 53.4614 51.3006" stroke="#666C7C" stroke-width="2.5" stroke-linecap="round"/>
<path d="M79.0617 52.5142L83.2131 56.6656" stroke="#666C7C" stroke-width="2.5"/>
<path fill-rule="evenodd" clip-rule="evenodd" d="M82.5413 55.9954C81.2317 57.3049 81.2317 59.4282 82.5413 60.7378L90.2113 68.4078C91.5208 69.7173 93.6441 69.7173 94.9537 68.4078C96.2632 67.0982 96.2632 64.9749 94.9537 63.6654L87.2837 55.9954C85.9741 54.6858 83.8508 54.6858 82.5413 55.9954Z" fill="#CCCCCC" stroke="#666C7C" stroke-width="2.5"/>
<path d="M85.9808 57.3579L93.5917 64.9689" stroke="white" stroke-width="2.5" stroke-linecap="round"/>
<path fill-rule="evenodd" clip-rule="evenodd" d="M55.5373 26.2222C55.5373 34.2469 62.0426 40.7522 70.0673 40.7522C71.6437 40.7522 73.1615 40.5012 74.5828 40.0369C72.2628 45.7942 66.6233 49.8582 60.0346 49.8582C51.3753 49.8582 44.3556 42.8384 44.3556 34.1791C44.3556 26.3326 50.1194 19.8323 57.6441 18.6812C56.3073 20.8802 55.5373 23.4613 55.5373 26.2222Z" fill="#EBEBEB"/>
<path d="M60.3803 21.3784C59.4992 21.3784 58.6384 21.4651 57.8059 21.6304M55.2911 22.3997C50.5579 24.3888 47.2341 29.0685 47.2341 34.5246" stroke="#A8A8A8" stroke-width="2.5" stroke-linecap="round"/>
<path d="M97.1729 34.3709H91.5161M101.549 28.9897H89.6647H101.549ZM106.392 28.9897H104.855H106.392Z" stroke="#CCCCCC" stroke-width="2.5" stroke-linecap="round" stroke-linejoin="round"/>
<path d="M34.9003 49.5926H29.2435M31.6651 43.5195H19.7811H31.6651ZM15.7513 43.5195H12.8306H15.7513Z" stroke="#CCCCCC" stroke-width="2.5" stroke-linecap="round" stroke-linejoin="round"/>
</svg>
