<svg width="16" height="12" viewBox="0 0 16 12" fill="none" xmlns="http://www.w3.org/2000/svg">
<path d="M14.3627 5.36398C14.5653 5.64818 14.6667 5.79032 14.6667 6.00065C14.6667 6.21098 14.5653 6.35312 14.3627 6.63732C13.4519 7.91438 11.1261 10.6673 8 10.6673C4.87385 10.6673 2.54806 7.91438 1.63735 6.63732C1.43467 6.35312 1.33333 6.21098 1.33333 6.00065C1.33333 5.79032 1.43467 5.64818 1.63735 5.36398C2.54806 4.08694 4.87385 1.33398 8 1.33398C11.1261 1.33398 13.4519 4.08694 14.3627 5.36398Z" stroke="#525252" stroke-width="1.5"/>
<path d="M10 6.00065C10 4.89605 9.1046 4.00065 8 4.00065C6.8954 4.00065 6 4.89605 6 6.00065C6 7.10525 6.8954 8.00065 8 8.00065C9.1046 8.00065 10 7.10525 10 6.00065Z" stroke="#525252" stroke-width="1.5"/>
</svg>
