<svg width="15" height="16" viewBox="0 0 15 16" fill="none" xmlns="http://www.w3.org/2000/svg">
<path d="M12.0868 10.3497L11.3383 10.3035L12.0868 10.3497ZM13.2486 3.71262C13.2741 3.29919 12.9597 2.94333 12.5463 2.91777C12.1329 2.89221 11.777 3.20664 11.7514 3.62007L13.2486 3.71262ZM3.24864 3.62115C3.22368 3.20769 2.86827 2.89274 2.45481 2.9177C2.04134 2.94266 1.7264 3.29808 1.75136 3.71154L3.24864 3.62115ZM2.90307 10.3431L3.65171 10.2979L2.90307 10.3431ZM11.5005 13.5249L12.1157 13.9539L12.1157 13.9539L11.5005 13.5249ZM10.7005 14.277L10.3103 13.6365H10.3103L10.7005 14.277ZM3.48579 13.5229L4.10139 13.0945H4.10139L3.48579 13.5229ZM4.28604 14.2763L4.67657 13.636L4.28604 14.2763ZM1.5 2.91634C1.08579 2.91634 0.75 3.25213 0.75 3.66634C0.75 4.08055 1.08579 4.41634 1.5 4.41634V2.91634ZM13.5 4.41634C13.9142 4.41634 14.25 4.08055 14.25 3.66634C14.25 3.25213 13.9142 2.91634 13.5 2.91634V4.41634ZM9.7487 2.72749L9.07382 3.05465V3.05465L9.7487 2.72749ZM5.2724 2.78051L5.95485 3.09159L5.2724 2.78051ZM5.9782 1.60845L6.43471 2.20351L6.43471 2.20351L5.9782 1.60845ZM6.16379 1.48909L5.81167 0.826882L5.81167 0.826883L6.16379 1.48909ZM9.03448 1.59755L9.48287 0.996348L9.48287 0.996345L9.03448 1.59755ZM8.85135 1.48281L8.50596 2.14855L8.50596 2.14855L8.85135 1.48281ZM5.08333 10.9997C5.08333 11.4139 5.41912 11.7497 5.83333 11.7497C6.24755 11.7497 6.58333 11.4139 6.58333 10.9997H5.08333ZM6.58333 6.99967C6.58333 6.58546 6.24755 6.24967 5.83333 6.24967C5.41912 6.24967 5.08333 6.58546 5.08333 6.99967H6.58333ZM8.41667 10.9997C8.41667 11.4139 8.75245 11.7497 9.16667 11.7497C9.58088 11.7497 9.91667 11.4139 9.91667 10.9997H8.41667ZM9.91667 6.99967C9.91667 6.58546 9.58088 6.24967 9.16667 6.24967C8.75245 6.24967 8.41667 6.58546 8.41667 6.99967H9.91667ZM12.0868 10.3497L12.8354 10.396L13.2486 3.71262L12.5 3.66634L11.7514 3.62007L11.3383 10.3035L12.0868 10.3497ZM2.5 3.66634L1.75136 3.71154L2.15443 10.3883L2.90307 10.3431L3.65171 10.2979L3.24864 3.62115L2.5 3.66634ZM12.0868 10.3497L11.3383 10.3035C11.2846 11.1718 11.2468 11.7701 11.1739 12.23C11.1028 12.6778 11.0083 12.9195 10.8853 13.0959L11.5005 13.5249L12.1157 13.9539C12.4207 13.5165 12.5666 13.0244 12.6553 12.465C12.7422 11.9176 12.7835 11.2352 12.8354 10.396L12.0868 10.3497ZM7.49516 14.6663V15.4163C8.336 15.4163 9.01963 15.4171 9.57131 15.3643C10.1351 15.3102 10.6353 15.195 11.0907 14.9175L10.7005 14.277L10.3103 13.6365C10.1266 13.7484 9.87953 13.8278 9.42815 13.8711C8.96464 13.9155 8.36516 13.9163 7.49516 13.9163V14.6663ZM11.5005 13.5249L10.8853 13.0959C10.7332 13.3141 10.5374 13.4982 10.3103 13.6365L10.7005 14.277L11.0907 14.9175C11.4955 14.6709 11.8446 14.3427 12.1157 13.9539L11.5005 13.5249ZM2.90307 10.3431L2.15443 10.3883C2.20517 11.2287 2.24562 11.912 2.33179 12.4602C2.41986 13.0203 2.56526 13.5132 2.87019 13.9513L3.48579 13.5229L4.10139 13.0945C3.97844 12.9178 3.88411 12.6757 3.81359 12.2272C3.74118 11.7666 3.7042 11.1675 3.65171 10.2979L2.90307 10.3431ZM7.49516 14.6663V13.9163C6.62403 13.9163 6.02373 13.9155 5.55963 13.871C5.10766 13.8277 4.86033 13.7481 4.67657 13.636L4.28604 14.2763L3.8955 14.9166C4.35124 15.1946 4.85194 15.31 5.41638 15.3642C5.9687 15.4171 6.65321 15.4163 7.49516 15.4163V14.6663ZM3.48579 13.5229L2.87019 13.9513C3.14122 14.3408 3.49041 14.6695 3.8955 14.9166L4.28604 14.2763L4.67657 13.636C4.44932 13.4974 4.25344 13.313 4.10139 13.0945L3.48579 13.5229ZM1.5 3.66634V4.41634H4.86862V3.66634V2.91634H1.5V3.66634ZM4.86862 3.66634V4.41634H10.2038V3.66634V2.91634H4.86862V3.66634ZM10.2038 3.66634V4.41634H13.5V3.66634V2.91634H10.2038V3.66634ZM9.7487 2.72749L9.07382 3.05465L9.52893 3.9935L10.2038 3.66634L10.8787 3.33918L10.4236 2.40034L9.7487 2.72749ZM5.2724 2.78051L4.58996 2.46943L4.18617 3.35526L4.86862 3.66634L5.55106 3.97742L5.95485 3.09159L5.2724 2.78051ZM5.2724 2.78051L5.95485 3.09159C6.10778 2.7561 6.20248 2.55007 6.28832 2.39961C6.36711 2.26153 6.4105 2.22208 6.43471 2.20351L5.9782 1.60845L5.52169 1.01339C5.28212 1.19718 5.11996 1.42053 4.98546 1.65627C4.85802 1.87964 4.73171 2.15846 4.58996 2.46943L5.2724 2.78051ZM7.52302 1.33301V0.583008C7.18126 0.583008 6.87516 0.582291 6.61906 0.605606C6.34876 0.630213 6.07827 0.685125 5.81167 0.826882L6.16379 1.48909L6.5159 2.15129C6.54284 2.13697 6.59673 2.11384 6.75505 2.09943C6.92756 2.08372 7.15431 2.08301 7.52302 2.08301V1.33301ZM5.9782 1.60845L6.43471 2.20351C6.46028 2.1839 6.48744 2.16643 6.5159 2.15129L6.16379 1.48909L5.81167 0.826883C5.71003 0.880932 5.61303 0.943315 5.52169 1.01339L5.9782 1.60845ZM9.7487 2.72749L10.4236 2.40034C10.2782 2.1004 10.1484 1.83117 10.0191 1.6156C9.88245 1.388 9.71954 1.17287 9.48287 0.996348L9.03448 1.59755L8.58608 2.19874C8.61016 2.2167 8.65321 2.25471 8.73294 2.38756C8.8199 2.53243 8.9169 2.73094 9.07382 3.05465L9.7487 2.72749ZM7.52302 1.33301V2.08301C7.88276 2.08301 8.1037 2.0837 8.27199 2.09875C8.42631 2.11255 8.4793 2.13471 8.50596 2.14855L8.85135 1.48281L9.19674 0.817071C8.93466 0.681104 8.67001 0.628362 8.40562 0.604715C8.15519 0.582317 7.85634 0.583008 7.52302 0.583008V1.33301ZM9.03448 1.59755L9.48287 0.996345C9.3925 0.928947 9.29681 0.868991 9.19674 0.817071L8.85135 1.48281L8.50596 2.14855C8.53398 2.16308 8.56077 2.17987 8.58608 2.19874L9.03448 1.59755ZM5.83333 10.9997H6.58333L6.58333 6.99967H5.83333H5.08333L5.08333 10.9997H5.83333ZM9.16667 10.9997H9.91667V6.99967H9.16667H8.41667V10.9997H9.16667Z" fill="#FF2E37"/>
</svg>
