<svg width="14" height="14" viewBox="0 0 14 14" fill="none" xmlns="http://www.w3.org/2000/svg">
<path d="M1 2.91699C0.585786 2.91699 0.25 3.25278 0.25 3.66699C0.25 4.08121 0.585786 4.41699 1 4.41699V2.91699ZM1 9.58366C0.585786 9.58366 0.25 9.91945 0.25 10.3337C0.25 10.7479 0.585786 11.0837 1 11.0837V9.58366ZM5 11.0837C5.41421 11.0837 5.75 10.7479 5.75 10.3337C5.75 9.91945 5.41421 9.58366 5 9.58366V11.0837ZM13 11.0837C13.4142 11.0837 13.75 10.7479 13.75 10.3337C13.75 9.91945 13.4142 9.58366 13 9.58366V11.0837ZM9 2.91699C8.58579 2.91699 8.25 3.25278 8.25 3.66699C8.25 4.08121 8.58579 4.41699 9 4.41699V2.91699ZM13 4.41699C13.4142 4.41699 13.75 4.08121 13.75 3.66699C13.75 3.25278 13.4142 2.91699 13 2.91699V4.41699ZM6.17691 5.5655L5.8899 4.87259L6.17691 5.5655ZM6.17691 1.76849L5.8899 2.4614L6.17691 1.76849ZM10.1769 12.2322L9.8899 11.5393L10.1769 12.2322ZM10.1769 8.43515L9.8899 9.12806L10.1769 8.43515ZM1 3.66699V4.41699H3V3.66699V2.91699H1V3.66699ZM1 10.3337V11.0837H5V10.3337V9.58366H1V10.3337ZM11 10.3337V11.0837H13V10.3337V9.58366H11V10.3337ZM9 3.66699V4.41699L13 4.41699V3.66699V2.91699L9 2.91699V3.66699ZM5 5.66699V4.91699C4.67911 4.91699 4.476 4.91659 4.32151 4.90604C4.17376 4.89596 4.126 4.87917 4.1101 4.87259L3.82309 5.5655L3.53608 6.25841C3.76521 6.35332 3.99528 6.38727 4.21941 6.40257C4.4368 6.4174 4.69963 6.41699 5 6.41699V5.66699ZM3 3.66699H2.25C2.25 3.96736 2.24959 4.23019 2.26443 4.44759C2.27972 4.67172 2.31367 4.90178 2.40858 5.13092L3.10149 4.8439L3.7944 4.55689C3.78782 4.54099 3.77103 4.49324 3.76095 4.34548C3.75041 4.19099 3.75 3.98788 3.75 3.66699H3ZM3.82309 5.5655L4.1101 4.87259C3.96717 4.81338 3.85361 4.69982 3.7944 4.55689L3.10149 4.8439L2.40858 5.13092C2.62003 5.64139 3.0256 6.04696 3.53608 6.25841L3.82309 5.5655ZM7 3.66699H6.25C6.25 3.98788 6.24959 4.19099 6.23905 4.34548C6.22897 4.49324 6.21218 4.54099 6.2056 4.55689L6.89851 4.8439L7.59142 5.13092C7.68633 4.90178 7.72028 4.67172 7.73557 4.44759C7.75041 4.23019 7.75 3.96736 7.75 3.66699H7ZM5 5.66699V6.41699C5.30037 6.41699 5.5632 6.4174 5.78059 6.40257C6.00472 6.38727 6.23479 6.35332 6.46392 6.25841L6.17691 5.5655L5.8899 4.87259C5.874 4.87917 5.82624 4.89596 5.67849 4.90604C5.524 4.91659 5.32089 4.91699 5 4.91699V5.66699ZM6.89851 4.8439L6.2056 4.55689C6.14639 4.69982 6.03283 4.81338 5.8899 4.87259L6.17691 5.5655L6.46392 6.25841C6.9744 6.04696 7.37997 5.64139 7.59142 5.13092L6.89851 4.8439ZM5 1.66699V2.41699C5.32089 2.41699 5.524 2.4174 5.67849 2.42794C5.82624 2.43802 5.874 2.45481 5.8899 2.4614L6.17691 1.76849L6.46392 1.07558C6.23479 0.980667 6.00472 0.946711 5.78059 0.931419C5.5632 0.916586 5.30037 0.916992 5 0.916992V1.66699ZM7 3.66699H7.75C7.75 3.36663 7.75041 3.10379 7.73557 2.8864C7.72028 2.66227 7.68633 2.4322 7.59142 2.20307L6.89851 2.49008L6.2056 2.77709C6.21218 2.79299 6.22897 2.84075 6.23905 2.9885C6.24959 3.143 6.25 3.3461 6.25 3.66699H7ZM6.17691 1.76849L5.8899 2.4614C6.03283 2.5206 6.14639 2.63416 6.2056 2.77709L6.89851 2.49008L7.59142 2.20307C7.37997 1.69259 6.9744 1.28702 6.46392 1.07558L6.17691 1.76849ZM5 1.66699V0.916992C4.69963 0.916992 4.4368 0.916586 4.21941 0.931419C3.99528 0.946711 3.76521 0.980667 3.53608 1.07558L3.82309 1.76849L4.1101 2.4614C4.126 2.45481 4.17376 2.43802 4.32151 2.42794C4.476 2.4174 4.67911 2.41699 5 2.41699V1.66699ZM3 3.66699H3.75C3.75 3.3461 3.75041 3.143 3.76095 2.9885C3.77103 2.84075 3.78782 2.79299 3.7944 2.77709L3.10149 2.49008L2.40858 2.20307C2.31367 2.4322 2.27972 2.66227 2.26443 2.8864C2.24959 3.10379 2.25 3.36663 2.25 3.66699H3ZM3.82309 1.76849L3.53608 1.07558C3.0256 1.28702 2.62003 1.69259 2.40858 2.20307L3.10149 2.49008L3.7944 2.77709C3.85361 2.63416 3.96717 2.5206 4.1101 2.4614L3.82309 1.76849ZM9 12.3337V11.5837C8.67911 11.5837 8.47601 11.5833 8.32151 11.5727C8.17376 11.5626 8.126 11.5458 8.1101 11.5393L7.82309 12.2322L7.53608 12.9251C7.76521 13.02 7.99528 13.0539 8.21941 13.0692C8.4368 13.0841 8.69963 13.0837 9 13.0837V12.3337ZM7 10.3337H6.25C6.25 10.634 6.24959 10.8969 6.26443 11.1143C6.27972 11.3384 6.31367 11.5684 6.40858 11.7976L7.10149 11.5106L7.7944 11.2236C7.78782 11.2077 7.77103 11.1599 7.76095 11.0121C7.75041 10.8577 7.75 10.6545 7.75 10.3337H7ZM7.82309 12.2322L8.1101 11.5393C7.96717 11.4801 7.85361 11.3665 7.7944 11.2236L7.10149 11.5106L6.40858 11.7976C6.62003 12.3081 7.0256 12.7136 7.53608 12.9251L7.82309 12.2322ZM11 10.3337H10.25C10.25 10.6545 10.2496 10.8577 10.2391 11.0121C10.229 11.1599 10.2122 11.2077 10.2056 11.2236L10.8985 11.5106L11.5914 11.7976C11.6863 11.5684 11.7203 11.3384 11.7356 11.1143C11.7504 10.8969 11.75 10.634 11.75 10.3337H11ZM9 12.3337V13.0837C9.30037 13.0837 9.5632 13.0841 9.78059 13.0692C10.0047 13.0539 10.2348 13.02 10.4639 12.9251L10.1769 12.2322L9.8899 11.5393C9.874 11.5458 9.82624 11.5626 9.67849 11.5727C9.524 11.5833 9.32089 11.5837 9 11.5837V12.3337ZM10.8985 11.5106L10.2056 11.2236C10.1464 11.3665 10.0328 11.4801 9.8899 11.5393L10.1769 12.2322L10.4639 12.9251C10.9744 12.7136 11.38 12.3081 11.5914 11.7976L10.8985 11.5106ZM9 8.33366V9.08366C9.32089 9.08366 9.524 9.08406 9.67849 9.09461C9.82624 9.10469 9.874 9.12148 9.8899 9.12806L10.1769 8.43515L10.4639 7.74224C10.2348 7.64733 10.0047 7.61338 9.78059 7.59808C9.5632 7.58325 9.30037 7.58366 9 7.58366V8.33366ZM11 10.3337H11.75C11.75 10.0333 11.7504 9.77046 11.7356 9.55306C11.7203 9.32894 11.6863 9.09887 11.5914 8.86973L10.8985 9.15675L10.2056 9.44376C10.2122 9.45966 10.229 9.50742 10.2391 9.65517C10.2496 9.80966 10.25 10.0128 10.25 10.3337H11ZM10.1769 8.43515L9.8899 9.12806C10.0328 9.18727 10.1464 9.30083 10.2056 9.44376L10.8985 9.15675L11.5914 8.86973C11.38 8.35926 10.9744 7.95369 10.4639 7.74224L10.1769 8.43515ZM9 8.33366V7.58366C8.69963 7.58366 8.4368 7.58325 8.21941 7.59808C7.99528 7.61338 7.76521 7.64733 7.53608 7.74224L7.82309 8.43515L8.1101 9.12806C8.126 9.12148 8.17376 9.10469 8.32151 9.09461C8.47601 9.08406 8.67911 9.08366 9 9.08366V8.33366ZM7 10.3337H7.75C7.75 10.0128 7.75041 9.80966 7.76095 9.65517C7.77103 9.50742 7.78782 9.45966 7.7944 9.44376L7.10149 9.15675L6.40858 8.86973C6.31367 9.09887 6.27972 9.32894 6.26443 9.55306C6.24959 9.77046 6.25 10.0333 6.25 10.3337H7ZM7.82309 8.43515L7.53608 7.74224C7.0256 7.95369 6.62003 8.35926 6.40858 8.86973L7.10149 9.15675L7.7944 9.44376C7.85361 9.30083 7.96717 9.18727 8.1101 9.12806L7.82309 8.43515Z" fill="white"/>
</svg>
