<svg width="24" height="24" viewBox="0 0 24 24" fill="none" xmlns="http://www.w3.org/2000/svg">
<path d="M9 10.5004C8.90164 10.5016 8.80411 10.4822 8.71369 10.4434C8.62328 10.4047 8.54197 10.3474 8.475 10.2754L1.725 3.52535C1.425 3.22535 1.425 2.76035 1.725 2.46035C2.025 2.16035 2.49 2.16035 2.79 2.46035L9.525 9.22535C9.825 9.52535 9.825 9.99035 9.525 10.2904C9.375 10.4404 9.18 10.5154 9 10.5154V10.5004ZM2.34 21.6604C2.24164 21.6616 2.14411 21.6422 2.05369 21.6034C1.96328 21.5647 1.88197 21.5074 1.815 21.4354C1.515 21.1354 1.515 20.6704 1.815 20.3704L8.475 13.7104C8.775 13.4104 9.24 13.4104 9.54 13.7104C9.84 14.0104 9.84 14.4754 9.54 14.7754L2.88 21.4354C2.73 21.5854 2.535 21.6604 2.355 21.6604H2.34ZM21.465 21.4654C21.3666 21.4666 21.2691 21.4472 21.1787 21.4084C21.0883 21.3696 21.007 21.3124 20.94 21.2404L14.475 14.7754C14.175 14.4754 14.175 14.0104 14.475 13.7104C14.775 13.4104 15.24 13.4104 15.54 13.7104L22.005 20.1754C22.305 20.4754 22.305 20.9404 22.005 21.2404C21.855 21.3904 21.66 21.4654 21.48 21.4654H21.465Z" fill="#1E1E1E"/>
<path d="M1.5 9.495C1.08 9.495 0.75 9.165 0.75 8.745V3.75C0.75 2.505 1.755 1.5 3 1.5H8.505C8.925 1.5 9.255 1.83 9.255 2.25C9.255 2.67 8.925 3 8.505 3H3C2.58 3 2.25 3.33 2.25 3.75V8.745C2.25 9.165 1.92 9.495 1.5 9.495ZM7.995 22.5H3C1.755 22.5 0.75 21.495 0.75 20.25V14.745C0.75 14.325 1.08 13.995 1.5 13.995C1.92 13.995 2.25 14.325 2.25 14.745V20.25C2.25 20.67 2.58 21 3 21H7.995C8.415 21 8.745 21.33 8.745 21.75C8.745 22.17 8.415 22.5 7.995 22.5ZM21 22.5H15.495C15.075 22.5 14.745 22.17 14.745 21.75C14.745 21.33 15.075 21 15.495 21H21C21.42 21 21.75 20.67 21.75 20.25V15.255C21.75 14.835 22.08 14.505 22.5 14.505C22.92 14.505 23.25 14.835 23.25 15.255V20.25C23.25 21.495 22.245 22.5 21 22.5ZM22.5 10.005C22.08 10.005 21.75 9.675 21.75 9.255V3.75C21.75 3.33 21.42 3 21 3H16.005C15.585 3 15.255 2.67 15.255 2.25C15.255 1.83 15.585 1.5 16.005 1.5H21C22.245 1.5 23.25 2.505 23.25 3.75V9.255C23.25 9.675 22.92 10.005 22.5 10.005Z" fill="#1E1E1E"/>
<path d="M15 10.5C14.9016 10.5012 14.8041 10.4818 14.7137 10.4431C14.6233 10.4043 14.542 10.3471 14.475 10.275C14.175 9.975 14.175 9.51 14.475 9.21L21.225 2.475C21.525 2.175 21.99 2.175 22.29 2.475C22.59 2.775 22.59 3.24 22.29 3.54L15.54 10.29C15.39 10.44 15.195 10.515 15.015 10.515L15 10.5Z" fill="#1E1E1E"/>
</svg>
