<svg width="17" height="15" viewBox="0 0 17 15" fill="none" xmlns="http://www.w3.org/2000/svg">
<path d="M4.33507 0.650391L4.46199 1.28891C4.62053 2.08647 5.24399 2.70993 6.04154 2.86847L6.68007 2.99539V3.66539L6.04154 3.79232C5.24399 3.95085 4.62053 4.57431 4.46199 5.37187L4.33507 6.01039H3.66507L3.53814 5.37187C3.37961 4.57431 2.75615 3.95085 1.95859 3.79232L1.32007 3.66539V2.99539L1.95859 2.86847C2.75615 2.70993 3.37961 2.08647 3.53814 1.28891L3.66507 0.650391H4.33507Z" fill="#A8A8A8"/>
<path d="M3.00499 9.32031L3.13191 9.95882C3.29045 10.7564 3.91391 11.3798 4.71147 11.5384L5.34999 11.6653V12.3353L4.71147 12.4622C3.91391 12.6208 3.29045 13.2442 3.13191 14.0418L3.00499 14.6803H2.33499L2.20807 14.0418C2.04953 13.2442 1.42607 12.6208 0.628516 12.4622L-0.0100098 12.3353V11.6653L0.628515 11.5384C1.42607 11.3798 2.04953 10.7564 2.20807 9.95882L2.33499 9.32031H3.00499Z" fill="#A8A8A8"/>
<path d="M10.67 2.64062L11.1707 4.93958C11.4497 6.22045 12.4502 7.22088 13.731 7.49987L16.03 8.00062V9.34062L13.731 9.84138C12.4502 10.1204 11.4497 11.1208 11.1707 12.4017L10.67 14.7006H9.32997L8.82921 12.4017C8.55022 11.1208 7.54978 10.1204 6.26892 9.84138L3.96997 9.34062V8.00062L6.26893 7.49987C7.54978 7.22088 8.55022 6.22045 8.82921 4.93958L9.32997 2.64062H10.67Z" fill="#A8A8A8"/>
<path opacity="0.55" d="M11.0299 6.16837L10.3174 3.31836V6.66836C10.3174 7.59343 11.0673 8.34336 11.9924 8.34336H15.3424L12.4924 7.63088C11.7722 7.45085 11.2099 6.88852 11.0299 6.16837Z" fill="white"/>
<path opacity="0.55" d="M2.77454 10.4331L2.66504 9.99512V11.3351C2.66504 11.7052 2.96501 12.0051 3.33504 12.0051H4.67504L4.23703 11.8956C3.51688 11.7156 2.95458 11.1533 2.77454 10.4331Z" fill="white"/>
<path opacity="0.55" d="M4.10438 1.7632L3.99487 1.3252V2.6652C3.99487 3.03522 4.29485 3.3352 4.66487 3.3352H6.00487L5.56687 3.22569C4.84671 3.04565 4.28441 2.48336 4.10438 1.7632Z" fill="white"/>
</svg>
