<svg width="34" height="30" viewBox="0 0 34 30" fill="none" xmlns="http://www.w3.org/2000/svg">
<path d="M17.5416 11.2659C17.5416 12.6776 17.0711 13.9823 16.2792 15.032C15.1344 16.5487 13.3175 17.5312 11.2736 17.5312V22.5338C13.0706 22.5338 14.771 22.1108 16.2792 21.3603C19.9909 19.514 22.5472 15.6838 22.5472 11.2659C22.5472 5.05405 17.4881 0 11.2726 0C5.05706 0 0.132334 4.92284 0.00420109 11.0223H0V29.9999H5.0056V11.2659C5.0056 7.81252 7.81613 5.00262 11.2726 5.00262C14.729 5.00262 17.5406 7.81252 17.5406 11.2659H17.5416Z" fill="#163066"/>
<path d="M30.0166 11.0225H25.0089C25.011 11.1033 25.0131 11.1852 25.0131 11.266C25.0131 18.8371 18.8501 24.9975 11.2734 24.9975V30.0001C21.6092 30.0001 30.0187 21.5966 30.0187 11.266C30.0187 11.1852 30.0187 11.1033 30.0176 11.0225H30.0166Z" fill="#1594CC"/>
<path d="M33.1467 19.9951H28.1411V24.9977H33.1467V19.9951Z" fill="#1594CC"/>
<path d="M23.1353 30.0007H28.1409V24.998C25.3765 24.998 23.1353 27.238 23.1353 30.0007Z" fill="#1594CC"/>
</svg>
