<svg width="20" height="20" viewBox="0 0 20 20" fill="none" xmlns="http://www.w3.org/2000/svg">
<path d="M6.66667 3.75V2.5M13.3333 3.75V2.5M16.25 6.66667H17.5M16.25 13.3333H17.5M6.66667 17.5V16.25M13.3333 17.5V16.25M2.5 6.66667H3.75M2.5 13.3333H3.75M6.66667 9.16667C6.66667 7.98816 6.66667 7.3989 7.03278 7.03278C7.3989 6.66667 7.98816 6.66667 9.16667 6.66667H10.8333C12.0118 6.66667 12.6011 6.66667 12.9673 7.03278C13.3333 7.3989 13.3333 7.98816 13.3333 9.16667V10.8333C13.3333 12.0118 13.3333 12.6011 12.9673 12.9673C12.6011 13.3333 12.0118 13.3333 10.8333 13.3333H9.16667C7.98816 13.3333 7.3989 13.3333 7.03278 12.9673C6.66667 12.6011 6.66667 12.0118 6.66667 10.8333V9.16667Z" stroke="#3961B2" stroke-width="1.5" stroke-linecap="round"/>
</svg>
