<svg width="16" height="20" viewBox="0 0 16 20" fill="none" xmlns="http://www.w3.org/2000/svg">
<path d="M1.33337 10.917C0.91916 10.917 0.583374 11.2528 0.583374 11.667C0.583374 12.0812 0.91916 12.417 1.33337 12.417V10.917ZM4.03518 11.8283L3.70851 12.5034L3.70853 12.5035L4.03518 11.8283ZM5.73683 12.6517L6.0635 11.9765L6.06349 11.9765L5.73683 12.6517ZM8.77821 14.3561L8.579 13.633L8.57832 13.6332L8.77821 14.3561ZM6.66079 14.9416L6.86061 15.6645L6.86068 15.6644L6.66079 14.9416ZM5.52087 14.839L5.84759 14.1639L5.84751 14.1639L5.52087 14.839ZM4.02844 13.2838C3.65557 13.1034 3.20706 13.2594 3.02666 13.6323C2.84627 14.0051 3.0023 14.4536 3.37516 14.634L4.02844 13.2838ZM8.6131 13.0334C8.21716 13.1551 7.9948 13.5746 8.11645 13.9706C8.2381 14.3665 8.6577 14.5889 9.05364 14.4673L8.6131 13.0334ZM12.6607 12.5744L12.881 13.2913L12.8838 13.2905L12.6607 12.5744ZM14.4976 13.2022L13.8896 13.6413L13.8896 13.6414L14.4976 13.2022ZM14.2321 14.4955L14.6069 15.1451L14.607 15.1451L14.2321 14.4955ZM7.96912 18.1091L7.59431 17.4594L7.5943 17.4595L7.96912 18.1091ZM6.66271 18.265L6.87607 17.546L6.87607 17.546L6.66271 18.265ZM1.54673 15.9646C1.14963 15.8467 0.732197 16.0731 0.614362 16.4702C0.496527 16.8673 0.722916 17.2848 1.12002 17.4026L1.54673 15.9646ZM10.9164 9.44149L11.2914 10.091L11.2914 10.091L10.9164 9.44149ZM5.22554 7.91664L4.57602 8.29165L4.57603 8.29165L5.22554 7.91664ZM6.75037 2.22583L6.37538 1.57631L6.37537 1.57631L6.75037 2.22583ZM1.33337 11.667V12.417H3.32906V11.667V10.917H1.33337V11.667ZM3.32906 11.667V12.417C3.46175 12.417 3.59176 12.447 3.70851 12.5034L4.03518 11.8283L4.36185 11.1532C4.04012 10.9975 3.68661 10.917 3.32906 10.917V11.667ZM4.03518 11.8283L3.70853 12.5035L5.41018 13.3268L5.73683 12.6517L6.06349 11.9765L4.36184 11.1532L4.03518 11.8283ZM5.73683 12.6517L5.41016 13.3268C5.73205 13.4825 6.08557 13.5629 6.44296 13.5629V12.8129V12.0629C6.31009 12.0629 6.1801 12.033 6.0635 11.9765L5.73683 12.6517ZM6.44296 12.8129V13.5629H7.31179V12.8129V12.0629H6.44296V12.8129ZM7.31179 12.8129V13.5629C7.76132 13.5629 8.08337 13.9094 8.08337 14.2853H8.83337H9.58337C9.58337 13.0349 8.54293 12.0629 7.31179 12.0629V12.8129ZM8.83337 14.2853H8.08337C8.08337 13.9669 8.29971 13.71 8.579 13.633L8.77821 14.3561L8.97742 15.0791C9.32203 14.9842 9.58337 14.6694 9.58337 14.2853H8.83337ZM8.77821 14.3561L8.57832 13.6332L6.4609 14.2187L6.66079 14.9416L6.86068 15.6644L8.97809 15.0789L8.77821 14.3561ZM6.66079 14.9416L6.46097 14.2187C6.2558 14.2754 6.03628 14.2552 5.84759 14.1639L5.52087 14.839L5.19415 15.5141C5.71214 15.7648 6.30607 15.8178 6.86061 15.6645L6.66079 14.9416ZM5.52087 14.839L5.84751 14.1639L4.02844 13.2838L3.7018 13.9589L3.37516 14.634L5.19424 15.5141L5.52087 14.839ZM8.83337 13.7503L9.05364 14.4673L12.881 13.2913L12.6607 12.5744L12.4404 11.8575L8.6131 13.0334L8.83337 13.7503ZM12.6607 12.5744L12.8838 13.2905C13.2456 13.1777 13.6477 13.3064 13.8896 13.6413L14.4976 13.2022L15.1057 12.7632C14.4975 11.9209 13.4328 11.5482 12.4376 11.8584L12.6607 12.5744ZM14.4976 13.2022L13.8896 13.6414C13.9129 13.6736 13.9225 13.7158 13.9133 13.7607C13.9041 13.8055 13.8809 13.8323 13.8573 13.8459L14.2321 14.4955L14.607 15.1451C15.4505 14.6583 15.6658 13.5387 15.1056 12.7631L14.4976 13.2022ZM14.2321 14.4955L13.8573 13.8459L7.59431 17.4594L7.96912 18.1091L8.34394 18.7587L14.6069 15.1451L14.2321 14.4955ZM7.96912 18.1091L7.5943 17.4595C7.37293 17.5872 7.11547 17.617 6.87607 17.546L6.66271 18.265L6.44934 18.984C7.08611 19.173 7.76865 19.0906 8.34395 18.7587L7.96912 18.1091ZM6.66271 18.265L6.87607 17.546L1.54673 15.9646L1.33337 16.6836L1.12002 17.4026L6.44935 18.984L6.66271 18.265ZM12.4412 3.75068L11.7917 4.12568C12.735 5.7595 12.1752 7.84868 10.5414 8.79198L10.9164 9.44149L11.2914 10.091C13.6426 8.73351 14.4483 5.72695 13.0907 3.37567L12.4412 3.75068ZM10.9164 9.44149L10.5414 8.79197C8.90752 9.73528 6.81837 9.17545 5.87505 7.54163L5.22554 7.91664L4.57603 8.29165C5.93354 10.6429 8.94006 11.4485 11.2914 10.091L10.9164 9.44149ZM12.4412 3.75068L13.0907 3.37567C11.7332 1.0244 8.72668 0.218793 6.37538 1.57631L6.75037 2.22583L7.12537 2.87535C8.75923 1.93204 10.8484 2.49184 11.7917 4.12568L12.4412 3.75068ZM6.75037 2.22583L6.37537 1.57631C4.02411 2.93382 3.21851 5.94038 4.57602 8.29165L5.22554 7.91664L5.87506 7.54164C4.93176 5.90781 5.49155 3.81864 7.12537 2.87534L6.75037 2.22583ZM12.4412 3.75068L12.0662 3.10116L4.85054 7.26712L5.22554 7.91664L5.60054 8.56616L12.8162 4.4002L12.4412 3.75068Z" fill="#3961B2"/>
</svg>
