<svg width="18" height="18" viewBox="0 0 18 18" fill="none" xmlns="http://www.w3.org/2000/svg">
<path d="M8.25033 1.50195C5.20958 1.50742 3.61728 1.58207 2.59968 2.59964C1.50153 3.69777 1.50153 5.46519 1.50153 8.99997C1.50153 12.5348 1.50153 14.3022 2.59968 15.4003C3.69783 16.4985 5.4653 16.4985 9.00025 16.4985C12.5351 16.4985 14.3026 16.4985 15.4008 15.4003C16.4183 14.3828 16.493 12.7906 16.4985 9.74989M16.0669 1.93148L11.4425 6.54314M16.0669 1.93148C15.6553 1.51939 12.8823 1.5578 12.296 1.56614M16.0669 1.93148C16.4785 2.34357 16.4402 5.11963 16.4318 5.7065" stroke="#3961B2" stroke-width="1.5" stroke-linecap="round" stroke-linejoin="round"/>
</svg>
