<svg width="20" height="20" viewBox="0 0 20 20" fill="none" xmlns="http://www.w3.org/2000/svg">
<path d="M14.9999 15.0001C16.0372 15.3538 16.6666 15.8183 16.6666 16.3271C16.6666 17.4352 13.6818 18.3334 9.99992 18.3334C6.31802 18.3334 3.33325 17.4352 3.33325 16.3271C3.33325 15.8183 3.96265 15.3538 4.99992 15.0001M12.4999 7.91675C12.4999 9.29746 11.3806 10.4167 9.99992 10.4167C8.61921 10.4167 7.49992 9.29746 7.49992 7.91675C7.49992 6.53604 8.61921 5.41675 9.99992 5.41675C11.3806 5.41675 12.4999 6.53604 12.4999 7.91675ZM9.99992 1.66675C6.61759 1.66675 3.74992 4.52344 3.74992 7.98917C3.74992 11.5223 6.66929 13.9645 9.35617 15.6611C9.55234 15.774 9.77419 15.8334 9.99992 15.8334C10.2256 15.8334 10.4475 15.774 10.6437 15.6611C13.3356 13.9809 16.2499 11.5101 16.2499 7.98917C16.2499 4.52344 13.3822 1.66675 9.99992 1.66675Z" stroke="#525252" stroke-linecap="round"/>
</svg>
