<svg width="20" height="20" viewBox="0 0 20 20" fill="none" xmlns="http://www.w3.org/2000/svg">
<path d="M14.9999 15.0003C16.0372 15.354 16.6666 15.8186 16.6666 16.3274C16.6666 17.4354 13.6818 18.3337 9.99992 18.3337C6.31802 18.3337 3.33325 17.4354 3.33325 16.3274C3.33325 15.8186 3.96265 15.354 4.99992 15.0003M12.4999 7.91699C12.4999 9.2977 11.3806 10.417 9.99992 10.417C8.61921 10.417 7.49992 9.2977 7.49992 7.91699C7.49992 6.53628 8.61921 5.41699 9.99992 5.41699C11.3806 5.41699 12.4999 6.53628 12.4999 7.91699ZM9.99992 1.66699C6.61759 1.66699 3.74992 4.52368 3.74992 7.98941C3.74992 11.5225 6.66929 13.9648 9.35617 15.6613C9.55234 15.7743 9.77419 15.8337 9.99992 15.8337C10.2256 15.8337 10.4475 15.7743 10.6437 15.6613C13.3356 13.9812 16.2499 11.5103 16.2499 7.98941C16.2499 4.52368 13.3822 1.66699 9.99992 1.66699Z" stroke="#3961B2" stroke-width="1.5" stroke-linecap="round"/>
</svg>
