<svg width="24" height="24" viewBox="0 0 24 24" fill="none" xmlns="http://www.w3.org/2000/svg">
<path d="M4.26781 18.8447L5.25887 18.7113L5.25887 18.7113L4.26781 18.8447ZM7.55966 21.9009L7.51373 22.8998H7.51375L7.55966 21.9009ZM16.4403 21.9009L16.4862 22.8998H16.4862L16.4403 21.9009ZM19.7322 18.8447L18.7411 18.7112L18.7411 18.7113L19.7322 18.8447ZM19.7322 12.1553L18.7411 12.2887L18.7411 12.2888L19.7322 12.1553ZM16.4403 9.09909L16.4862 8.10014L16.4862 8.10014L16.4403 9.09909ZM7.55966 9.09909L7.51374 8.10014L7.51373 8.10014L7.55966 9.09909ZM4.26781 12.1553L5.25887 12.2887L5.25887 12.2887L4.26781 12.1553ZM6.5 9C6.5 9.55228 6.94772 10 7.5 10C8.05228 10 8.5 9.55228 8.5 9H6.5ZM15.5 9C15.5 9.55228 15.9477 10 16.5 10C17.0523 10 17.5 9.55228 17.5 9H15.5ZM11.9961 14.5C11.4438 14.5 10.9961 14.9477 10.9961 15.5C10.9961 16.0523 11.4438 16.5 11.9961 16.5V14.5ZM12.0051 16.5C12.5574 16.5 13.0051 16.0523 13.0051 15.5C13.0051 14.9477 12.5574 14.5 12.0051 14.5V16.5ZM4.26781 18.8447L3.27675 18.9781C3.56388 21.1108 5.33084 22.7995 7.51373 22.8998L7.55966 21.9009L7.60559 20.902C6.42142 20.8475 5.4215 19.9192 5.25887 18.7113L4.26781 18.8447ZM7.55966 21.9009L7.51375 22.8998C8.94609 22.9657 10.4004 23 12 23V22V21C10.4302 21 9.00645 20.9663 7.60557 20.902L7.55966 21.9009ZM12 22V23C13.5996 23 15.0539 22.9657 16.4862 22.8998L16.4403 21.9009L16.3944 20.902C14.9935 20.9663 13.5698 21 12 21V22ZM16.4403 21.9009L16.4862 22.8998C18.6692 22.7995 20.4361 21.1108 20.7233 18.9781L19.7322 18.8447L18.7411 18.7113C18.5785 19.9192 17.5786 20.8475 16.3944 20.902L16.4403 21.9009ZM19.7322 18.8447L20.7233 18.9782C20.8719 17.8743 21 16.705 21 15.5H20H19C19 16.5702 18.8861 17.6351 18.7411 18.7112L19.7322 18.8447ZM20 15.5H21C21 14.295 20.8719 13.1257 20.7233 12.0218L19.7322 12.1553L18.7411 12.2888C18.8861 13.3649 19 14.4298 19 15.5H20ZM19.7322 12.1553L20.7233 12.0219C20.4361 9.8892 18.6692 8.2005 16.4862 8.10014L16.4403 9.09909L16.3944 10.098C17.5786 10.1525 18.5785 11.0808 18.7411 12.2887L19.7322 12.1553ZM16.4403 9.09909L16.4862 8.10014C15.0539 8.0343 13.5996 8 12 8V9V10C13.5698 10 14.9935 10.0336 16.3944 10.098L16.4403 9.09909ZM12 9V8C10.4004 8 8.9461 8.0343 7.51374 8.10014L7.55966 9.09909L7.60558 10.098C9.00644 10.0336 10.4302 10 12 10V9ZM7.55966 9.09909L7.51373 8.10014C5.33083 8.2005 3.56388 9.8892 3.27675 12.0219L4.26781 12.1553L5.25887 12.2887C5.4215 11.0808 6.42143 10.1525 7.60559 10.098L7.55966 9.09909ZM4.26781 12.1553L3.27675 12.0219C3.12813 13.1256 3 14.295 3 15.5H4H5C5 14.4298 5.11395 13.365 5.25887 12.2887L4.26781 12.1553ZM4 15.5H3C3 16.705 3.12813 17.8744 3.27675 18.9781L4.26781 18.8447L5.25887 18.7113C5.11395 17.635 5 16.5702 5 15.5H4ZM7.5 9H8.5V6.5H7.5H6.5V9H7.5ZM7.5 6.5H8.5C8.5 4.567 10.067 3 12 3V2V1C8.96244 1 6.5 3.46244 6.5 6.5H7.5ZM12 2V3C13.933 3 15.5 4.567 15.5 6.5H16.5H17.5C17.5 3.46244 15.0376 1 12 1V2ZM16.5 6.5H15.5V9H16.5H17.5V6.5H16.5ZM11.9961 15.5V16.5H12.0051V15.5V14.5H11.9961V15.5Z" fill="#007AFF"/>
</svg>
