<svg width="20" height="20" viewBox="0 0 20 20" fill="none" xmlns="http://www.w3.org/2000/svg">
<path d="M1.66675 5.00009L7.4276 8.26424C9.55141 9.4676 10.4488 9.4676 12.5726 8.26424L18.3334 5.00009M7.58243 2.94722C9.1995 2.90659 10.8007 2.90659 12.4177 2.94722C15.0415 3.01315 16.3534 3.04611 17.296 3.9923C18.2386 4.93849 18.2658 6.2158 18.3203 8.77041C18.3378 9.59181 18.3378 10.4084 18.3203 11.2298C18.2658 13.7844 18.2386 15.0617 17.296 16.0079C16.3533 16.9541 15.0415 16.987 12.4177 17.0529C10.8007 17.0936 9.19951 17.0936 7.58244 17.0529C4.95869 16.987 3.64682 16.9541 2.70421 16.0079C1.76161 15.0617 1.73437 13.7844 1.67989 11.2298C1.66237 10.4084 1.66237 9.5918 1.67989 8.7704C1.73436 6.21579 1.7616 4.93848 2.70421 3.99229C3.64682 3.04609 4.95869 3.01313 7.58243 2.94722Z" stroke="#525252" stroke-linejoin="round"/>
</svg>
