<svg width="40" height="40" viewBox="0 0 40 40" fill="none" xmlns="http://www.w3.org/2000/svg">
<rect x="0.5" y="0.5" width="39" height="39" rx="7.5" fill="white"/>
<rect x="0.5" y="0.5" width="39" height="39" rx="7.5" stroke="#EBEBEB"/>
<path d="M13.7289 17.917L14.4789 17.9171V17.917H13.7289ZM26.2704 17.917H25.5204V17.9171L26.2704 17.917ZM26.3063 24.6782L26.5933 25.3711H26.5933L26.3063 24.6782ZM13.6931 24.6782L13.9801 23.9853H13.9801L13.6931 24.6782ZM26.845 20.4194L26.2245 20.8407L26.2269 20.8442L26.845 20.4194ZM27.8914 22.3083L27.15 22.4214V22.4214L27.8914 22.3083ZM13.1543 20.4194L13.7725 20.8442L13.7748 20.8407L13.1543 20.4194ZM12.1079 22.3083L11.3665 22.1952H11.3665L12.1079 22.3083ZM17.3912 25.641C17.2848 25.2407 16.874 25.0024 16.4737 25.1088C16.0734 25.2152 15.8351 25.626 15.9415 26.0263L17.3912 25.641ZM24.0578 26.0263C24.1642 25.626 23.926 25.2152 23.5256 25.1088C23.1253 25.0024 22.7146 25.2407 22.6082 25.641L24.0578 26.0263ZM26.3063 24.6782L26.0193 23.9853C22.4841 25.4498 17.5153 25.4498 13.9801 23.9853L13.6931 24.6782L13.406 25.3711C17.3088 26.9878 22.6906 26.9878 26.5933 25.3711L26.3063 24.6782ZM26.2704 17.917H27.0204C27.0204 14.0487 23.8748 10.917 19.9997 10.917V11.667V12.417C23.051 12.417 25.5204 14.8818 25.5204 17.917H26.2704ZM13.7289 17.917H14.4789C14.4789 14.8818 16.9483 12.417 19.9997 12.417V11.667V10.917C16.1246 10.917 12.9789 14.0487 12.9789 17.917H13.7289ZM13.6931 24.6782L13.9801 23.9853C13.1652 23.6477 12.7469 23.0934 12.8494 22.4214L12.1079 22.3083L11.3665 22.1952C11.1146 23.8466 12.2808 24.905 13.406 25.3711L13.6931 24.6782ZM26.3063 24.6782L26.5933 25.3711C27.7185 24.905 28.8847 23.8466 28.6328 22.1952L27.8914 22.3083L27.15 22.4214C27.2525 23.0934 26.8341 23.6477 26.0193 23.9853L26.3063 24.6782ZM26.845 20.4194L27.4655 19.9981C27.0813 19.4323 27.0205 18.7995 27.0204 17.9169L26.2704 17.917L25.5204 17.9171C25.5205 18.8208 25.5635 19.8671 26.2245 20.8407L26.845 20.4194ZM13.1543 20.4194L13.7748 20.8407C14.4359 19.8671 14.4789 18.8208 14.4789 17.9171L13.7289 17.917L12.9789 17.9169C12.9789 18.7995 12.918 19.4323 12.5339 19.9981L13.1543 20.4194ZM13.1543 20.4194L12.5363 19.9946C12.3909 20.2061 12.0852 20.6048 11.8902 20.9104C11.6675 21.2592 11.4437 21.6893 11.3665 22.1952L12.1079 22.3083L12.8494 22.4214C12.8811 22.2135 12.981 21.9894 13.1546 21.7173C13.3558 21.4021 13.5188 21.2133 13.7724 20.8442L13.1543 20.4194ZM26.845 20.4194L26.2269 20.8442C26.4805 21.2133 26.6436 21.4021 26.8448 21.7173C27.0184 21.9894 27.1183 22.2135 27.15 22.4214L27.8914 22.3083L28.6328 22.1952C28.5556 21.6893 28.3318 21.2592 28.1092 20.9104C27.9142 20.6048 27.6084 20.2061 27.4631 19.9946L26.845 20.4194ZM19.9997 28.3337V27.5837C18.7297 27.5837 17.6843 26.744 17.3912 25.641L16.6663 25.8337L15.9415 26.0263C16.4125 27.7987 18.0622 29.0837 19.9997 29.0837V28.3337ZM23.333 25.8337L22.6082 25.641C22.315 26.744 21.2697 27.5837 19.9997 27.5837V28.3337V29.0837C21.9371 29.0837 23.5868 27.7987 24.0578 26.0263L23.333 25.8337Z" fill="#525252"/>
</svg>
