<svg width="20" height="20" viewBox="0 0 20 20" fill="none" xmlns="http://www.w3.org/2000/svg">
<path d="M3.72895 7.9165L4.47895 7.91657V7.9165H3.72895ZM16.2704 7.9165H15.5204V7.91657L16.2704 7.9165ZM16.3063 14.6777L16.5933 15.3706H16.5933L16.3063 14.6777ZM3.69305 14.6777L3.98009 13.9848H3.98009L3.69305 14.6777ZM16.845 10.4189L16.2245 10.8402L16.2269 10.8437L16.845 10.4189ZM17.8914 12.3079L17.15 12.421V12.421L17.8914 12.3079ZM3.15435 10.4189L3.77245 10.8437L3.77484 10.8402L3.15435 10.4189ZM2.10794 12.3079L1.36652 12.1948H1.36652L2.10794 12.3079ZM7.39118 15.6405C7.2848 15.2402 6.87403 15.0019 6.47371 15.1083C6.07339 15.2147 5.83511 15.6255 5.9415 16.0258L7.39118 15.6405ZM14.0578 16.0258C14.1642 15.6255 13.926 15.2147 13.5256 15.1083C13.1253 15.0019 12.7146 15.2402 12.6082 15.6405L14.0578 16.0258ZM16.3063 14.6777L16.0193 13.9848C12.4841 15.4493 7.51527 15.4493 3.98009 13.9848L3.69305 14.6777L3.40601 15.3706C7.30876 16.9874 12.6906 16.9874 16.5933 15.3706L16.3063 14.6777ZM16.2704 7.9165H17.0204C17.0204 4.04817 13.8748 0.916504 9.99968 0.916504V1.6665V2.4165C13.051 2.4165 15.5204 4.88128 15.5204 7.9165H16.2704ZM3.72895 7.9165H4.47895C4.47895 4.88128 6.94832 2.4165 9.99968 2.4165V1.6665V0.916504C6.12458 0.916504 2.97895 4.04817 2.97895 7.9165H3.72895ZM3.69305 14.6777L3.98009 13.9848C3.16521 13.6472 2.74685 13.093 2.84937 12.421L2.10794 12.3079L1.36652 12.1948C1.11461 13.8461 2.2808 14.9045 3.40601 15.3706L3.69305 14.6777ZM16.3063 14.6777L16.5933 15.3706C17.7185 14.9045 18.8847 13.8461 18.6328 12.1948L17.8914 12.3079L17.15 12.421C17.2525 13.093 16.8341 13.6472 16.0193 13.9848L16.3063 14.6777ZM16.845 10.4189L17.4655 9.99764C17.0813 9.43182 17.0205 8.79903 17.0204 7.91644L16.2704 7.9165L15.5204 7.91657C15.5205 8.82036 15.5635 9.86663 16.2245 10.8402L16.845 10.4189ZM3.15435 10.4189L3.77484 10.8402C4.43587 9.86663 4.47887 8.82036 4.47895 7.91657L3.72895 7.9165L2.97895 7.91644C2.97887 8.79903 2.91802 9.43182 2.53385 9.99764L3.15435 10.4189ZM3.15435 10.4189L2.53625 9.99413C2.39091 10.2056 2.08518 10.6043 1.89015 10.9099C1.66754 11.2587 1.44371 11.6888 1.36652 12.1948L2.10794 12.3079L2.84937 12.421C2.88109 12.213 2.98097 11.9889 3.15459 11.7168C3.35579 11.4016 3.51881 11.2128 3.77244 10.8437L3.15435 10.4189ZM16.845 10.4189L16.2269 10.8437C16.4805 11.2128 16.6436 11.4016 16.8448 11.7168C17.0184 11.9889 17.1183 12.213 17.15 12.421L17.8914 12.3079L18.6328 12.1948C18.5556 11.6888 18.3318 11.2587 18.1092 10.9099C17.9142 10.6043 17.6084 10.2056 17.4631 9.99413L16.845 10.4189ZM9.99967 18.3332V17.5832C8.72965 17.5832 7.68431 16.7435 7.39118 15.6405L6.66634 15.8332L5.9415 16.0258C6.41252 17.7982 8.06225 19.0832 9.99967 19.0832V18.3332ZM13.333 15.8332L12.6082 15.6405C12.315 16.7435 11.2697 17.5832 9.99967 17.5832V18.3332V19.0832C11.9371 19.0832 13.5868 17.7982 14.0578 16.0258L13.333 15.8332Z" fill="#525252"/>
</svg>
