<svg width="20" height="20" viewBox="0 0 20 20" fill="none" xmlns="http://www.w3.org/2000/svg">
<path d="M3.72943 7.9165L4.47943 7.91657V7.9165H3.72943ZM16.2709 7.9165H15.5209V7.91657L16.2709 7.9165ZM16.3068 14.6777L16.5938 15.3706H16.5938L16.3068 14.6777ZM3.69354 14.6777L3.98058 13.9848H3.98058L3.69354 14.6777ZM16.8455 10.4189L16.225 10.8402L16.2274 10.8437L16.8455 10.4189ZM17.8919 12.3079L17.1505 12.421V12.421L17.8919 12.3079ZM3.15484 10.4189L3.77294 10.8437L3.77533 10.8402L3.15484 10.4189ZM2.10843 12.3079L1.36701 12.1948H1.36701L2.10843 12.3079ZM7.39167 15.6405C7.28528 15.2402 6.87452 15.0019 6.4742 15.1083C6.07388 15.2147 5.8356 15.6255 5.94199 16.0258L7.39167 15.6405ZM14.0583 16.0258C14.1647 15.6255 13.9264 15.2147 13.5261 15.1083C13.1258 15.0019 12.715 15.2402 12.6087 15.6405L14.0583 16.0258ZM16.3068 14.6777L16.0197 13.9848C12.4846 15.4493 7.51576 15.4493 3.98058 13.9848L3.69354 14.6777L3.4065 15.3706C7.30925 16.9874 12.6911 16.9874 16.5938 15.3706L16.3068 14.6777ZM16.2709 7.9165H17.0209C17.0209 4.04817 13.8753 0.916504 10.0002 0.916504V1.6665V2.4165C13.0515 2.4165 15.5209 4.88128 15.5209 7.9165H16.2709ZM3.72943 7.9165H4.47943C4.47943 4.88128 6.94881 2.4165 10.0002 2.4165V1.6665V0.916504C6.12506 0.916504 2.97943 4.04817 2.97943 7.9165H3.72943ZM3.69354 14.6777L3.98058 13.9848C3.1657 13.6472 2.74734 13.093 2.84985 12.421L2.10843 12.3079L1.36701 12.1948C1.1151 13.8461 2.28129 14.9045 3.4065 15.3706L3.69354 14.6777ZM16.3068 14.6777L16.5938 15.3706C17.719 14.9045 18.8852 13.8461 18.6333 12.1948L17.8919 12.3079L17.1505 12.421C17.253 13.093 16.8346 13.6472 16.0197 13.9848L16.3068 14.6777ZM16.8455 10.4189L17.466 9.99764C17.0818 9.43182 17.021 8.79903 17.0209 7.91644L16.2709 7.9165L15.5209 7.91657C15.521 8.82036 15.564 9.86663 16.225 10.8402L16.8455 10.4189ZM3.15484 10.4189L3.77533 10.8402C4.43636 9.86663 4.47936 8.82036 4.47943 7.91657L3.72943 7.9165L2.97943 7.91644C2.97936 8.79903 2.91851 9.43182 2.53434 9.99764L3.15484 10.4189ZM3.15484 10.4189L2.53674 9.99413C2.39139 10.2056 2.08567 10.6043 1.89064 10.9099C1.66803 11.2587 1.44419 11.6888 1.36701 12.1948L2.10843 12.3079L2.84985 12.421C2.88158 12.213 2.98146 11.9889 3.15508 11.7168C3.35628 11.4016 3.5193 11.2128 3.77293 10.8437L3.15484 10.4189ZM16.8455 10.4189L16.2274 10.8437C16.481 11.2128 16.644 11.4016 16.8452 11.7168C17.0189 11.9889 17.1187 12.213 17.1505 12.421L17.8919 12.3079L18.6333 12.1948C18.5561 11.6888 18.3323 11.2587 18.1097 10.9099C17.9147 10.6043 17.6089 10.2056 17.4636 9.99413L16.8455 10.4189ZM10.0002 18.3332V17.5832C8.73014 17.5832 7.6848 16.7435 7.39167 15.6405L6.66683 15.8332L5.94199 16.0258C6.41301 17.7982 8.06274 19.0832 10.0002 19.0832V18.3332ZM13.3335 15.8332L12.6087 15.6405C12.3155 16.7435 11.2702 17.5832 10.0002 17.5832V18.3332V19.0832C11.9376 19.0832 13.5873 17.7982 14.0583 16.0258L13.3335 15.8332Z" fill="#EEEEEE"/>
</svg>
