<svg width="16" height="16" viewBox="0 0 16 16" fill="none" xmlns="http://www.w3.org/2000/svg">
<path d="M7.68164 11.75C7.68164 12.0261 7.9055 12.25 8.18164 12.25C8.45778 12.25 8.68164 12.0261 8.68164 11.75H7.68164ZM7.43164 6.75C7.1555 6.75 6.93164 6.97386 6.93164 7.25C6.93164 7.52614 7.1555 7.75 7.43164 7.75V6.75ZM8.07181 7.35983L8.42536 7.00628L8.07181 7.35983ZM7.994 4.5C7.71785 4.5 7.494 4.72386 7.494 5C7.494 5.27614 7.71785 5.5 7.994 5.5V4.5ZM8.00073 5.5C8.27688 5.5 8.50073 5.27614 8.50073 5C8.50073 4.72386 8.27688 4.5 8.00073 4.5V5.5ZM15.5 8H16C16 3.58172 12.4183 0 8 0V0.5V1C11.866 1 15 4.13401 15 8H15.5ZM8 0.5V0C3.58172 0 0 3.58172 0 8H0.5H1C1 4.13401 4.13401 1 8 1V0.5ZM0.5 8H0C0 12.4183 3.58172 16 8 16V15.5V15C4.13401 15 1 11.866 1 8H0.5ZM8 15.5V16C12.4183 16 16 12.4183 16 8H15.5H15C15 11.866 11.866 15 8 15V15.5ZM8.18164 8H7.68164V11.75H8.18164H8.68164V8H8.18164ZM7.43164 7.25V7.75C7.52189 7.75 7.59236 7.75003 7.65276 7.75156C7.71342 7.75309 7.75151 7.75591 7.77649 7.75927C7.82317 7.76555 7.77172 7.76686 7.71825 7.71339L8.07181 7.35983L8.42536 7.00628C8.26206 6.84298 8.0673 6.78937 7.90974 6.76819C7.76656 6.74894 7.59428 6.75 7.43164 6.75V7.25ZM8.18164 8H8.68164C8.68164 7.83736 8.6827 7.66508 8.66345 7.5219C8.64227 7.36434 8.58866 7.16958 8.42536 7.00628L8.07181 7.35983L7.71825 7.71339C7.66479 7.65992 7.66609 7.60847 7.67237 7.65515C7.67573 7.68013 7.67855 7.71822 7.68008 7.77888C7.68161 7.83928 7.68164 7.90975 7.68164 8H8.18164ZM7.994 5V5.5H8.00073V5V4.5H7.994V5Z" fill="#3961B2"/>
</svg>
