<svg width="14" height="14" viewBox="0 0 14 14" fill="none" xmlns="http://www.w3.org/2000/svg">
<path d="M5.10569 2.80815L4.83725 2.20417C4.66173 1.80925 4.57397 1.61179 4.44272 1.46067C4.27823 1.27129 4.06383 1.13196 3.82397 1.05857C3.63257 1 3.41649 1 2.98432 1C2.35212 1 2.03602 1 1.77067 1.12153C1.45809 1.26468 1.17581 1.57552 1.06333 1.9004C0.967855 2.17619 0.995208 2.45962 1.0499 3.02647C1.63212 9.06013 4.94006 12.3681 10.9737 12.9503C11.5406 13.005 11.824 13.0323 12.0998 12.9369C12.4247 12.8244 12.7355 12.5421 12.8787 12.2295C13.0002 11.9641 13.0002 11.6481 13.0002 11.0159C13.0002 10.5837 13.0002 10.3676 12.9416 10.1762C12.8682 9.93633 12.7289 9.72193 12.5395 9.55747C12.3884 9.4262 12.191 9.33847 11.796 9.16293L11.192 8.89447C10.7644 8.7044 10.5505 8.6094 10.3332 8.58873C10.1252 8.56893 9.91555 8.59813 9.72089 8.67393C9.51749 8.75313 9.33775 8.90293 8.97815 9.20253C8.62029 9.5008 8.44135 9.64993 8.22269 9.7298C8.02882 9.8006 7.77255 9.82687 7.56842 9.79673C7.33809 9.7628 7.16175 9.6686 6.80902 9.48007C5.71169 8.89367 5.10653 8.28853 4.52009 7.19113C4.33161 6.83847 4.23737 6.66207 4.20343 6.4318C4.17334 6.2276 4.19957 5.97133 4.27038 5.77753C4.35026 5.55885 4.49939 5.37991 4.79764 5.022C5.09726 4.66245 5.24707 4.48268 5.32628 4.27927C5.40208 4.08463 5.43126 3.87493 5.41148 3.66699C5.39081 3.44968 5.29577 3.23584 5.10569 2.80815Z" stroke="#3961B2"/>
</svg>
