<svg width="12" height="16" viewBox="0 0 12 16" fill="none" xmlns="http://www.w3.org/2000/svg">
<path d="M11.3333 14.6674V12.6674C11.3333 10.7818 11.3333 9.83897 10.7475 9.25317C10.1617 8.66737 9.21894 8.66737 7.33334 8.66737L6 10.0007L4.66667 8.66737C2.78105 8.66737 1.83825 8.66737 1.25246 9.25317C0.666672 9.83897 0.666672 10.7818 0.666672 12.6674V14.6674M8.66667 10.6673V12.6673M9.66667 11.6673H7.66667M8.33334 4.33398V3.66732C8.33334 2.37866 7.28867 1.33398 6 1.33398C4.71134 1.33398 3.66667 2.37866 3.66667 3.66732V4.33398C3.66667 5.62265 4.71134 6.6673 6 6.6673C7.28867 6.6673 8.33334 5.62265 8.33334 4.33398Z" stroke="#3961B2" stroke-linecap="round" stroke-linejoin="round"/>
</svg>
