<svg width="18" height="20" viewBox="0 0 18 20" fill="none" xmlns="http://www.w3.org/2000/svg">
<path d="M4.48131 12.9007L4.86502 13.5451L4.86503 13.5451L4.48131 12.9007ZM2.09389 16.8298L1.57655 17.3729L1.57657 17.3729L2.09389 16.8298ZM15.9061 16.8298L16.4234 17.3729L16.4234 17.3729L15.9061 16.8298ZM13.5187 12.9007L13.1349 13.5451L13.135 13.5451L13.5187 12.9007ZM4.48131 12.9007L4.09761 12.2563C3.58949 12.5588 2.38448 13.1665 1.61483 13.9199C1.22164 14.3047 0.832336 14.8264 0.761283 15.4764C0.68517 16.1727 0.991667 16.8156 1.57655 17.3729L2.09389 16.8298L2.61123 16.2868C2.25473 15.9472 2.2416 15.7383 2.2524 15.6394C2.26827 15.4942 2.37243 15.2773 2.66408 14.9918C3.26408 14.4045 4.19416 13.9445 4.86502 13.5451L4.48131 12.9007ZM2.09389 16.8298L1.57657 17.3729C2.56406 18.3136 3.76498 19.0827 5.32573 19.0827V18.3327V17.5827C4.31084 17.5827 3.46313 17.0984 2.61121 16.2868L2.09389 16.8298ZM5.32573 18.3327V19.0827H12.6743V18.3327V17.5827H5.32573V18.3327ZM12.6743 18.3327V19.0827C14.235 19.0827 15.436 18.3136 16.4234 17.3729L15.9061 16.8298L15.3888 16.2868C14.5369 17.0984 13.6892 17.5827 12.6743 17.5827V18.3327ZM15.9061 16.8298L16.4234 17.3729C17.0083 16.8156 17.3148 16.1727 17.2387 15.4764C17.1676 14.8264 16.7783 14.3047 16.3852 13.9199C15.6155 13.1665 14.4105 12.5588 13.9024 12.2563L13.5187 12.9007L13.135 13.5451C13.8058 13.9445 14.7359 14.4045 15.3359 14.9918C15.6275 15.2773 15.7317 15.4942 15.7476 15.6394C15.7584 15.7383 15.7452 15.9472 15.3887 16.2868L15.9061 16.8298ZM13.5187 12.9007L13.9024 12.2563C10.9013 10.4692 7.09872 10.4692 4.09759 12.2563L4.48131 12.9007L4.86503 13.5451C7.39327 12.0396 10.6067 12.0396 13.1349 13.5451L13.5187 12.9007ZM12.75 5.41602H12C12 7.07287 10.6569 8.41602 9 8.41602V9.16602V9.91602C11.4853 9.91602 13.5 7.90129 13.5 5.41602H12.75ZM9 9.16602V8.41602C7.34315 8.41602 6 7.07287 6 5.41602H5.25H4.5C4.5 7.9013 6.51472 9.91602 9 9.91602V9.16602ZM5.25 5.41602H6C6 3.75916 7.34315 2.41602 9 2.41602V1.66602V0.916016C6.51472 0.916016 4.5 2.93074 4.5 5.41602H5.25ZM9 1.66602V2.41602C10.6569 2.41602 12 3.75916 12 5.41602H12.75H13.5C13.5 2.93074 11.4853 0.916016 9 0.916016V1.66602Z" fill="#3961B2"/>
</svg>
