<svg width="17" height="18" viewBox="0 0 17 18" fill="none" xmlns="http://www.w3.org/2000/svg">
<path d="M10.6115 1.66699L11.0101 2.41217C11.2796 2.91597 11.4143 3.16787 11.3253 3.27575C11.2361 3.38363 10.9427 3.2965 10.3557 3.12225C9.76893 2.94803 9.14593 2.85429 8.50033 2.85429C5.00252 2.85429 2.16699 5.60597 2.16699 9.00035C2.16699 10.1198 2.47541 11.1694 3.01428 12.0734M6.38921 16.3337L5.99057 15.5885C5.72105 15.0847 5.58629 14.8328 5.67539 14.7249C5.76451 14.617 6.05799 14.7042 6.64492 14.8784C7.23173 15.0526 7.85473 15.1464 8.50033 15.1464C11.9981 15.1464 14.8337 12.3947 14.8337 9.00035C14.8337 7.88089 14.5253 6.83131 13.9864 5.92731" stroke="url(#paint0_linear_1269_20203)" stroke-width="1.5" stroke-linecap="round" stroke-linejoin="round"/>
<defs>
<linearGradient id="paint0_linear_1269_20203" x1="2.16699" y1="9.00034" x2="14.8337" y2="9.00034" gradientUnits="userSpaceOnUse">
<stop offset="0.238014" stop-color="#F66568"/>
<stop offset="0.758087" stop-color="#A16CF9"/>
</linearGradient>
</defs>
</svg>
