<svg width="13" height="14" viewBox="0 0 13 14" fill="none" xmlns="http://www.w3.org/2000/svg">
<path d="M8.09789 0.583008L8.44667 1.23504C8.68251 1.67586 8.8004 1.89627 8.72247 1.99067C8.64448 2.08506 8.38769 2.00883 7.87413 1.85636C7.36068 1.70391 6.81555 1.6219 6.25065 1.6219C3.19007 1.6219 0.708984 4.02961 0.708984 6.9997C0.708984 7.97917 0.978846 8.89758 1.45036 9.68858M4.40343 13.4164L4.05461 12.7643C3.81878 12.3235 3.70087 12.103 3.77883 12.0087C3.85681 11.9143 4.1136 11.9905 4.62717 12.143C5.14063 12.2954 5.68575 12.3774 6.25065 12.3774C9.31123 12.3774 11.7923 9.96974 11.7923 6.9997C11.7923 6.02017 11.5225 5.10178 11.051 4.31078" stroke="#163066" stroke-linecap="round" stroke-linejoin="round"/>
</svg>
