<svg width="18" height="18" viewBox="0 0 18 18" fill="none" xmlns="http://www.w3.org/2000/svg">
<path d="M13.6553 12.5947C13.3624 12.3018 12.8876 12.3018 12.5947 12.5947C12.3018 12.8876 12.3018 13.3624 12.5947 13.6553L13.6553 12.5947ZM12.5947 13.6553L15.9697 17.0303L17.0303 15.9697L13.6553 12.5947L12.5947 13.6553ZM15.75 8.25C15.75 4.10786 12.3921 0.75 8.25 0.75V2.25C11.5637 2.25 14.25 4.93629 14.25 8.25H15.75ZM8.25 0.75C4.10786 0.75 0.75 4.10786 0.75 8.25H2.25C2.25 4.93629 4.93629 2.25 8.25 2.25V0.75ZM0.75 8.25C0.75 12.3921 4.10786 15.75 8.25 15.75V14.25C4.93629 14.25 2.25 11.5637 2.25 8.25H0.75ZM8.25 15.75C12.3921 15.75 15.75 12.3921 15.75 8.25H14.25C14.25 11.5637 11.5637 14.25 8.25 14.25V15.75Z" fill="#A3A3A3"/>
</svg>
