<svg width="16" height="16" viewBox="0 0 16 16" fill="none" xmlns="http://www.w3.org/2000/svg">
<g clip-path="url(#clip0_2313_3922)">
<path d="M12.1972 11.136C11.9043 10.8431 11.4294 10.8431 11.1365 11.136C10.8436 11.4289 10.8436 11.9038 11.1365 12.1967L12.1972 11.136ZM11.6668 11.6663L11.1365 12.1967L14.1365 15.1967L14.6668 14.6663L15.1972 14.136L12.1972 11.136L11.6668 11.6663ZM13.3335 7.33301H14.0835C14.0835 3.60509 11.0614 0.583008 7.3335 0.583008V1.33301V2.08301C10.233 2.08301 12.5835 4.43351 12.5835 7.33301H13.3335ZM7.3335 1.33301V0.583008C3.60557 0.583008 0.583496 3.60509 0.583496 7.33301H1.3335H2.0835C2.0835 4.43351 4.434 2.08301 7.3335 2.08301V1.33301ZM1.3335 7.33301H0.583496C0.583496 11.0609 3.60557 14.083 7.3335 14.083V13.333V12.583C4.434 12.583 2.0835 10.2325 2.0835 7.33301H1.3335ZM7.3335 13.333V14.083C11.0614 14.083 14.0835 11.0609 14.0835 7.33301H13.3335H12.5835C12.5835 10.2325 10.233 12.583 7.3335 12.583V13.333Z" fill="#525252"/>
</g>
<defs>
<clipPath id="clip0_2313_3922">
<rect width="16" height="16" fill="white"/>
</clipPath>
</defs>
</svg>
