<svg width="42" height="42" viewBox="0 0 42 42" fill="none" xmlns="http://www.w3.org/2000/svg">
<path d="M34.981 35H35M34.981 35C33.7356 36.235 31.4786 35.9274 29.8958 35.9274C27.953 35.9274 27.0174 36.3074 25.6308 37.694C24.4502 38.8748 22.8674 41 21 41C19.1326 41 17.5498 38.8748 16.3691 37.694C14.9826 36.3074 14.047 35.9274 12.1041 35.9274C10.5214 35.9274 8.26436 36.235 7.01898 35C5.76362 33.7552 6.07256 31.4888 6.07256 29.8958C6.07256 27.8828 5.63232 26.9572 4.19876 25.5236C2.06628 23.3912 1.00004 22.3248 1 21C1.00002 19.675 2.06624 18.6088 4.1987 16.4763C5.4784 15.1966 6.07256 13.9286 6.07256 12.1041C6.07256 10.5213 5.76498 8.26428 7 7.01888C8.24486 5.76356 10.5112 6.07252 12.1042 6.07252C13.9285 6.07252 15.1966 5.4784 16.4763 4.19874C18.6088 2.06624 19.675 1 21 1C22.325 1 23.3912 2.06624 25.5236 4.19874C26.803 5.47814 28.071 6.07252 29.8958 6.07252C31.4786 6.07252 33.7358 5.76494 34.9812 7C36.2364 8.24486 35.9274 10.5112 35.9274 12.1041C35.9274 14.1172 36.3678 15.0427 37.8012 16.4763C39.9338 18.6088 41 19.675 41 21C41 22.3248 39.9338 23.3912 37.8012 25.5236C36.3676 26.9572 35.9274 27.8828 35.9274 29.8958C35.9274 31.4888 36.2364 33.7552 34.981 35ZM15 22.7858L18.6 26L27 16" stroke="#19AD4B" stroke-width="1.5"/>
</svg>
