<svg width="24" height="24" viewBox="0 0 24 24" fill="none" xmlns="http://www.w3.org/2000/svg">
<path d="M21.2653 13.9126L20.8077 14.5068H20.8077L21.2653 13.9126ZM22.6544 16.8691L22.072 16.3965H22.072L22.6544 16.8691ZM20.774 17.25C20.3597 17.25 20.024 17.5858 20.024 18C20.024 18.4142 20.3597 18.75 20.774 18.75V17.25ZM19.0675 12.2531C18.655 12.2157 18.2903 12.5199 18.253 12.9324C18.2156 13.345 18.5198 13.7096 18.9323 13.7469L19.0675 12.2531ZM2.73457 13.9126L3.19217 14.5068H3.19217L2.73457 13.9126ZM1.34548 16.8691L1.92781 16.3965H1.92781L1.34548 16.8691ZM3.22589 18.75C3.6401 18.75 3.97589 18.4142 3.97589 18C3.97589 17.5858 3.6401 17.25 3.22589 17.25V18.75ZM5.0675 13.7469C5.48003 13.7096 5.7842 13.345 5.74688 12.9324C5.70956 12.5199 5.34488 12.2157 4.93235 12.2531L5.0675 13.7469ZM5.49993 11.75C5.91414 11.75 6.24993 11.4142 6.24993 11C6.24993 10.5858 5.91414 10.25 5.49993 10.25V11.75ZM5.49993 6.75C5.91414 6.75 6.24993 6.41421 6.24993 6C6.24993 5.58579 5.91414 5.25 5.49993 5.25V6.75ZM8.0837 15.1112L7.68926 14.4733L8.0837 15.1112ZM15.9161 15.1112L16.3105 14.4733L15.9161 15.1112ZM6.0146 18.6474L5.48711 19.1806V19.1806L6.0146 18.6474ZM17.9852 18.6474L17.4577 18.1143V18.1143L17.9852 18.6474ZM20.8077 14.5068C21.2272 14.8299 21.717 15.1397 22.0393 15.5477C22.1873 15.7351 22.2402 15.8758 22.2486 15.9752C22.255 16.051 22.2442 16.1844 22.072 16.3965L23.2367 17.3418C23.6123 16.8791 23.7874 16.3714 23.7433 15.8489C23.7011 15.3499 23.4669 14.935 23.2164 14.6179C22.7418 14.0171 21.9893 13.5235 21.7229 13.3184L20.8077 14.5068ZM22.072 16.3965C21.5766 17.0069 21.1735 17.25 20.774 17.25V18.75C21.873 18.75 22.6618 18.0501 23.2367 17.3418L22.072 16.3965ZM18.9323 13.7469C19.5726 13.8049 20.2173 14.0522 20.8077 14.5068L21.7229 13.3184C20.9186 12.699 20.006 12.338 19.0675 12.2531L18.9323 13.7469ZM19.7499 8.5C19.7499 9.4665 18.9664 10.25 17.9999 10.25V11.75C19.7948 11.75 21.2499 10.2949 21.2499 8.5H19.7499ZM17.9999 6.75C18.9664 6.75 19.7499 7.5335 19.7499 8.5H21.2499C21.2499 6.70507 19.7948 5.25 17.9999 5.25V6.75ZM2.27698 13.3184C2.01054 13.5235 1.25807 14.0171 0.78347 14.6179C0.532988 14.935 0.298748 15.3499 0.256575 15.8489C0.212409 16.3714 0.387585 16.8791 0.763142 17.3418L1.92781 16.3965C1.75564 16.1844 1.74484 16.051 1.75125 15.9752C1.75965 15.8758 1.81253 15.7351 1.96051 15.5477C2.28283 15.1397 2.77263 14.8299 3.19217 14.5068L2.27698 13.3184ZM0.763141 17.3418C1.33799 18.0501 2.12679 18.75 3.22589 18.75V17.25C2.82638 17.25 2.4232 17.0069 1.92781 16.3965L0.763141 17.3418ZM4.93235 12.2531C3.99383 12.338 3.08128 12.699 2.27698 13.3184L3.19217 14.5068C3.78253 14.0522 4.4272 13.8049 5.0675 13.7469L4.93235 12.2531ZM2.24993 8.5C2.24993 10.2949 3.705 11.75 5.49993 11.75V10.25C4.53343 10.25 3.74993 9.4665 3.74993 8.5H2.24993ZM5.49993 5.25C3.705 5.25 2.24993 6.70507 2.24993 8.5H3.74993C3.74993 7.5335 4.53343 6.75 5.49993 6.75V5.25ZM8.47814 15.7491C10.6325 14.417 13.3673 14.417 15.5216 15.7491L16.3105 14.4733C13.6728 12.8422 10.327 12.8422 7.68926 14.4733L8.47814 15.7491ZM8.81552 20.75H15.1843V19.25H8.81552V20.75ZM6.54208 18.1143C6.24779 17.8231 6.24418 17.6527 6.2517 17.5812C6.26366 17.4676 6.34374 17.2859 6.58873 17.0368C7.09826 16.5189 7.88613 16.1152 8.47814 15.7491L7.68926 14.4733C7.25948 14.739 6.19695 15.2962 5.51944 15.9849C5.17092 16.3391 4.82332 16.8221 4.75995 17.4242C4.69214 18.0683 4.96555 18.6646 5.48711 19.1806L6.54208 18.1143ZM15.5216 15.7491C16.1137 16.1152 16.9015 16.5189 17.4111 17.0368C17.6561 17.2859 17.7361 17.4676 17.7481 17.5812C17.7556 17.6527 17.752 17.8231 17.4577 18.1143L18.5127 19.1806C19.0342 18.6646 19.3076 18.0683 19.2398 17.4242C19.1765 16.8221 18.8289 16.3391 18.4803 15.9849C17.8028 15.2962 16.7403 14.739 16.3105 14.4733L15.5216 15.7491ZM17.4577 18.1143C16.7252 18.839 16.017 19.25 15.1843 19.25V20.75C16.5837 20.75 17.6511 20.033 18.5127 19.1806L17.4577 18.1143ZM5.48711 19.1806C6.34873 20.033 7.41606 20.75 8.81552 20.75V19.25C7.98277 19.25 7.27461 18.839 6.54208 18.1143L5.48711 19.1806ZM14.7499 7.5C14.7499 9.01878 13.5187 10.25 11.9999 10.25V11.75C14.3471 11.75 16.2499 9.84721 16.2499 7.5H14.7499ZM11.9999 10.25C10.4811 10.25 9.2499 9.01878 9.2499 7.5H7.7499C7.7499 9.84721 9.65269 11.75 11.9999 11.75V10.25ZM9.2499 7.5C9.2499 5.98122 10.4811 4.75 11.9999 4.75V3.25C9.65269 3.25 7.7499 5.15279 7.7499 7.5H9.2499ZM11.9999 4.75C13.5187 4.75 14.7499 5.98122 14.7499 7.5H16.2499C16.2499 5.15279 14.3471 3.25 11.9999 3.25V4.75Z" fill="#525252"/>
</svg>
