<svg width="24" height="24" viewBox="0 0 24 24" fill="none" xmlns="http://www.w3.org/2000/svg">
<path d="M10.6672 12.1581L10.4646 12.8802H10.4646L10.6672 12.1581ZM12.2613 13.8781L11.5288 14.0391L12.2613 13.8781ZM15.2014 21.4996L15.2345 20.7504L15.2014 21.4996ZM2.50001 8.551L3.24999 8.54617L2.50001 8.551ZM21.0477 3.05293L20.4981 3.56327L21.0477 3.05293ZM10.9696 11.9696C10.6767 12.2625 10.6767 12.7374 10.9696 13.0303C11.2625 13.3232 11.7374 13.3232 12.0303 13.0303L10.9696 11.9696ZM15.5303 9.53031C15.8232 9.23742 15.8232 8.76254 15.5303 8.46965C15.2374 8.17676 14.7625 8.17676 14.4696 8.46965L15.5303 9.53031ZM1.75002 8.55584C1.75629 9.52791 2.41829 10.2149 3.12327 10.676C3.84284 11.1467 4.77998 11.5014 5.71161 11.7792C6.65324 12.06 7.64346 12.2776 8.49473 12.454C9.37116 12.6356 10.0556 12.7654 10.4646 12.8802L10.8698 11.4359C10.3943 11.3025 9.61745 11.1548 8.79906 10.9852C7.95552 10.8104 7.01739 10.6033 6.14027 10.3418C5.25315 10.0772 4.48117 9.77186 3.94437 9.42074C3.39299 9.06008 3.25139 8.76353 3.24999 8.54617L1.75002 8.55584ZM12.9938 13.717C12.8669 13.1398 12.7015 12.6117 12.3211 12.2016C11.9372 11.7877 11.426 11.592 10.8698 11.4359L10.4646 12.8802C10.9724 13.0226 11.1355 13.1291 11.2213 13.2217C11.3108 13.3181 11.4104 13.5008 11.5288 14.0391L12.9938 13.717ZM3.24999 8.54617C3.25069 8.65427 3.2035 8.67075 3.27807 8.57317C3.34464 8.48605 3.4674 8.36248 3.66631 8.20663C4.06206 7.89658 4.66058 7.53468 5.42593 7.14566C6.94915 6.37142 9.02487 5.54393 11.1818 4.84963C13.3402 4.15488 15.545 3.60475 17.3264 3.37109C18.2198 3.25391 18.9758 3.22061 19.5529 3.27624C20.1655 3.33529 20.4211 3.48027 20.4981 3.56327L21.5973 2.54258C21.1299 2.03919 20.397 1.85064 19.6968 1.78316C18.9611 1.71225 18.08 1.75941 17.1313 1.88383C15.2288 2.13338 12.9302 2.71103 10.7222 3.42178C8.51281 4.13296 6.35914 4.98867 4.74625 5.80848C3.94355 6.21649 3.24734 6.62933 2.74121 7.02587C2.48919 7.22333 2.25922 7.43601 2.08623 7.66239C1.92123 7.8783 1.74764 8.18551 1.75002 8.55584L3.24999 8.54617ZM15.1683 22.2489C15.5444 22.2655 15.8571 22.0938 16.0715 21.9345C16.2975 21.7666 16.51 21.5414 16.7071 21.2953C17.1031 20.8005 17.5192 20.1159 17.9332 19.3247C18.7652 17.7347 19.6462 15.6028 20.3917 13.4096C21.1368 11.2173 21.7577 8.93061 22.0568 7.03011C22.206 6.08232 22.2798 5.20209 22.2388 4.46478C22.1999 3.76557 22.0509 3.03107 21.5973 2.54258L20.4981 3.56327C20.5759 3.64705 20.7062 3.92101 20.7411 4.54811C20.7738 5.13712 20.716 5.90105 20.5751 6.79693C20.2939 8.58377 19.7003 10.7825 18.9715 12.9269C18.2429 15.0704 17.3904 17.1266 16.6042 18.6293C16.209 19.3845 15.8447 19.9723 15.5361 20.3579C15.3808 20.5519 15.2598 20.6689 15.1771 20.7303C15.0829 20.8002 15.1117 20.7449 15.2345 20.7504L15.1683 22.2489ZM11.5288 14.0391C12.0798 16.5447 12.5073 18.4888 12.9623 19.8071C13.1892 20.4646 13.4445 21.0337 13.7678 21.4533C14.1052 21.8913 14.5642 22.2222 15.1683 22.2489L15.2345 20.7504C15.203 20.749 15.1154 20.7447 14.956 20.5378C14.7825 20.3126 14.5905 19.9271 14.3802 19.3177C13.9608 18.1024 13.5539 16.2638 12.9938 13.717L11.5288 14.0391ZM12.0303 13.0303L15.5303 9.53031L14.4696 8.46965L10.9696 11.9696L12.0303 13.0303Z" fill="#525252"/>
</svg>
