<svg width="24" height="24" viewBox="0 0 24 24" fill="none" xmlns="http://www.w3.org/2000/svg">
<path d="M7 11.2947C12.284 1.44656 18.8635 1.333 21.4928 2.50724C22.667 5.1365 22.5534 11.716 12.7053 17C12.6031 16.4129 12.0352 14.8749 10.5801 13.4199C9.12512 11.9648 7.58712 11.3969 7 11.2947Z" stroke="#525252" stroke-width="1.5" stroke-linecap="round" stroke-linejoin="round"/>
<path d="M14 16.8C16.0428 17.7334 16.2609 19.4069 16.5439 21C16.5439 21 20.8223 18.0481 18.0856 14" stroke="#525252" stroke-width="1.5" stroke-linecap="round" stroke-linejoin="round"/>
<path d="M7.19998 9.99988C6.26664 7.9571 4.59305 7.739 3 7.45602C3 7.45602 5.95194 3.17754 10 5.91432" stroke="#525252" stroke-width="1.5" stroke-linecap="round" stroke-linejoin="round"/>
<path d="M6.20866 13.9998C5.57677 14.6317 4.50255 16.4642 5.26082 18.739C7.53564 19.4973 9.36813 18.4231 10 17.7912" stroke="#525252" stroke-width="1.5" stroke-linecap="round" stroke-linejoin="round"/>
<path d="M18.0948 7.75301C18.0948 6.73281 17.2678 5.90579 16.2476 5.90579C15.2274 5.90579 14.4004 6.73281 14.4004 7.75301C14.4004 8.7732 15.2274 9.60023 16.2476 9.60023C17.2678 9.60023 18.0948 8.7732 18.0948 7.75301Z" stroke="#525252" stroke-width="1.5"/>
</svg>
