<svg width="20" height="20" viewBox="0 0 20 20" fill="none" xmlns="http://www.w3.org/2000/svg">
<path d="M1.6665 10C1.6665 6.92572 1.6665 5.38858 2.34469 4.29898C2.59559 3.89585 2.90726 3.54522 3.2656 3.26295C4.23414 2.5 5.60048 2.5 8.33317 2.5H11.6665C14.3992 2.5 15.7655 2.5 16.7341 3.26295C17.0924 3.54522 17.4041 3.89585 17.655 4.29898C18.3332 5.38858 18.3332 6.92572 18.3332 10C18.3332 13.0742 18.3332 14.6114 17.655 15.701C17.4041 16.1042 17.0924 16.4547 16.7341 16.7371C15.7655 17.5 14.3992 17.5 11.6665 17.5H8.33317C5.60048 17.5 4.23414 17.5 3.2656 16.7371C2.90726 16.4547 2.59559 16.1042 2.34469 15.701C1.6665 14.6114 1.6665 13.0742 1.6665 10Z" stroke="#525252" stroke-width="1.5"/>
<path d="M7.9165 2.5V17.5" stroke="#525252" stroke-width="1.5" stroke-linejoin="round"/>
<path d="M4.1665 5.83301H4.99984M4.1665 8.33301H4.99984" stroke="#525252" stroke-width="1.5" stroke-linecap="round" stroke-linejoin="round"/>
</svg>
