<svg width="49" height="48" viewBox="0 0 49 48" fill="none" xmlns="http://www.w3.org/2000/svg">
<path d="M38.231 38H38.25M38.231 38C36.9856 39.235 34.7286 38.9274 33.1458 38.9274C31.203 38.9274 30.2674 39.3074 28.8808 40.694C27.7002 41.8748 26.1174 44 24.25 44C22.3826 44 20.7998 41.8748 19.6191 40.694C18.2326 39.3074 17.297 38.9274 15.3541 38.9274C13.7714 38.9274 11.5144 39.235 10.269 38C9.01362 36.7552 9.32256 34.4888 9.32256 32.8958C9.32256 30.8828 8.88232 29.9572 7.44876 28.5236C5.31628 26.3912 4.25004 25.3248 4.25 24C4.25002 22.675 5.31624 21.6088 7.4487 19.4763C8.7284 18.1966 9.32256 16.9286 9.32256 15.1041C9.32256 13.5213 9.01498 11.2643 10.25 10.0189C11.4949 8.76356 13.7612 9.07252 15.3542 9.07252C17.1785 9.07252 18.4466 8.4784 19.7263 7.19874C21.8588 5.06624 22.925 4 24.25 4C25.575 4 26.6412 5.06624 28.7736 7.19874C30.053 8.47814 31.321 9.07252 33.1458 9.07252C34.7286 9.07252 36.9858 8.76494 38.2312 10C39.4864 11.2449 39.1774 13.5112 39.1774 15.1041C39.1774 17.1172 39.6178 18.0427 41.0512 19.4763C43.1838 21.6088 44.25 22.675 44.25 24C44.25 25.3248 43.1838 26.3912 41.0512 28.5236C39.6176 29.9572 39.1774 30.8828 39.1774 32.8958C39.1774 34.4888 39.4864 36.7552 38.231 38ZM18.25 25.7858L21.85 29L30.25 19" stroke="#19AD4B" stroke-width="1.5"/>
</svg>
