<svg width="134" height="30" viewBox="0 0 134 30" fill="none" xmlns="http://www.w3.org/2000/svg">
<path d="M17.558 11.2659C17.558 12.6777 17.0871 13.9824 16.2944 15.032C15.1486 16.5488 13.3299 17.5312 11.2841 17.5312V22.5338C13.0828 22.5338 14.7848 22.1108 16.2944 21.3603C20.0095 19.514 22.5683 15.6839 22.5683 11.2659C22.5683 5.05408 17.5044 3.05176e-05 11.2831 3.05176e-05C5.06178 3.05176e-05 0.132458 4.92287 0.00420501 11.0224H0V30H5.01027V11.2659C5.01027 7.81255 7.82342 5.00265 11.2831 5.00265C14.7428 5.00265 17.557 7.81255 17.557 11.2659H17.558Z" fill="white"/>
<path d="M30.0448 11.0224H25.0325C25.0346 11.1032 25.0367 11.1851 25.0367 11.2659C25.0367 18.837 18.8679 24.9974 11.2842 24.9974V30C21.6296 30 30.0469 21.5965 30.0469 11.2659C30.0469 11.1851 30.0469 11.1032 30.0459 11.0224H30.0448Z" fill="white"/>
<path d="M33.1775 19.9948H28.1672V24.9974H33.1775V19.9948Z" fill="white"/>
<path d="M23.157 30H28.1673V24.9974C25.4004 24.9974 23.157 27.2374 23.157 30Z" fill="white"/>
<path d="M39.1878 22.1491V5.17869H42.0982L42.4739 6.77245C42.7091 6.44414 42.9985 6.13601 43.3422 5.84701C43.6859 5.55801 44.0967 5.32744 44.5745 5.15532C45.0512 4.98319 45.6035 4.89713 46.2292 4.89713C47.3242 4.89713 48.299 5.17125 49.1513 5.71738C50.0037 6.26457 50.673 7.00302 51.1583 7.93271C51.6435 8.86241 51.8862 9.92173 51.8862 11.1086C51.8862 12.2954 51.6361 13.3547 51.1349 14.2844C50.6337 15.2141 49.9611 15.9451 49.1162 16.4764C48.2713 17.0076 47.3168 17.2732 46.2526 17.2732C45.3917 17.2732 44.6447 17.117 44.0105 16.8047C43.3763 16.4923 42.8644 16.0545 42.4728 15.4925V22.1491H39.1868H39.1878ZM45.4567 14.414C46.0515 14.414 46.5836 14.2738 47.0529 13.9922C47.5221 13.7106 47.8903 13.3207 48.1564 12.8203C48.4224 12.3198 48.5554 11.7503 48.5554 11.1096C48.5554 10.4689 48.4224 9.87498 48.1564 9.3756C47.8903 8.87516 47.5221 8.48097 47.0529 8.19197C46.5836 7.90296 46.0515 7.75846 45.4567 7.75846C44.8618 7.75846 44.3095 7.90296 43.8487 8.19197C43.3869 8.48097 43.023 8.87516 42.7569 9.3756C42.4909 9.87604 42.3579 10.4466 42.3579 11.0862C42.3579 11.7259 42.4909 12.3209 42.7569 12.8203C43.023 13.3207 43.3869 13.7106 43.8487 13.9922C44.3106 14.2738 44.8469 14.414 45.4567 14.414Z" fill="white"/>
<path d="M53.2261 16.9927V5.1787H56.1365L56.4419 7.35896C56.7388 6.84365 57.0995 6.40589 57.522 6.04677C57.9444 5.68764 58.4371 5.40607 59.0011 5.20313C59.5641 5.00019 60.1749 4.89819 60.8325 4.89819V8.36729H59.729C59.2597 8.36729 58.8256 8.42254 58.4265 8.53091C58.0275 8.64035 57.6827 8.81673 57.3932 9.05792C57.1038 9.30017 56.8846 9.62848 56.7356 10.0418C56.5866 10.4562 56.5121 10.9757 56.5121 11.6005V16.9917H53.2261V16.9927Z" fill="white"/>
<path d="M63.2267 3.65503C62.6318 3.65503 62.1466 3.47972 61.7709 3.12803C61.3953 2.77634 61.208 2.34283 61.208 1.82752C61.208 1.3122 61.3964 0.858507 61.7709 0.515317C62.1466 0.172126 62.6318 0 63.2267 0C63.8215 0 64.3068 0.172126 64.6824 0.515317C65.0581 0.85957 65.2453 1.29732 65.2453 1.82752C65.2453 2.35771 65.0581 2.77634 64.6824 3.12803C64.3068 3.47972 63.8215 3.65503 63.2267 3.65503ZM61.5826 16.9927V5.17867H64.8686V16.9916H61.5826V16.9927Z" fill="white"/>
<path d="M72.2166 17.2732C71.0896 17.2732 70.0723 17.0119 69.1646 16.488C68.2569 15.9642 67.5408 15.2343 67.0161 14.2961C66.4915 13.3589 66.2297 12.2964 66.2297 11.1086C66.2297 9.92067 66.4915 8.81141 67.0161 7.87428C67.5408 6.93714 68.2559 6.20614 69.1646 5.68232C70.0723 5.1585 71.0971 4.89713 72.24 4.89713C73.3829 4.89713 74.4076 5.1585 75.3153 5.68232C76.223 6.20614 76.9392 6.93289 77.4627 7.86259C77.9874 8.79228 78.2491 9.86648 78.2491 11.0852C78.2491 12.3039 77.9831 13.3781 77.451 14.3078C76.919 15.2375 76.2028 15.9642 75.3036 16.488C74.4034 17.0119 73.3743 17.2732 72.2166 17.2732ZM72.2166 14.4374C72.7327 14.4374 73.1871 14.312 73.5776 14.0623C73.9681 13.8126 74.2852 13.4376 74.5279 12.9371C74.7705 12.4367 74.8918 11.8204 74.8918 11.0852C74.8918 10.3499 74.7747 9.73367 74.5396 9.23323C74.3044 8.73278 73.9884 8.35878 73.5893 8.10803C73.1902 7.85834 72.7401 7.73296 72.24 7.73296C71.7398 7.73296 71.3089 7.85834 70.9024 8.10803C70.4948 8.35772 70.1745 8.73278 69.9404 9.23323C69.7052 9.73367 69.5881 10.351 69.5881 11.0852C69.5881 11.8194 69.7052 12.4367 69.9404 12.9371C70.1755 13.4376 70.4916 13.8126 70.8906 14.0623C71.2897 14.312 71.7313 14.4374 72.2166 14.4374Z" fill="white"/>
<path d="M79.5642 16.9927V5.1787H82.4746L82.78 7.35896C83.0769 6.84365 83.4377 6.40589 83.8601 6.04677C84.2826 5.68764 84.7753 5.40607 85.3393 5.20313C85.9022 5.00019 86.513 4.89819 87.1706 4.89819V8.36729H86.0671C85.5978 8.36729 85.1637 8.42254 84.7646 8.53091C84.3656 8.64035 84.0208 8.81673 83.7314 9.05792C83.4419 9.30017 83.2227 9.62848 83.0737 10.0418C82.9247 10.4562 82.8503 10.9757 82.8503 11.6005V16.9917H79.5642V16.9927Z" fill="white"/>
<path d="M91.8413 17.2732C90.8708 17.2732 90.061 17.1128 89.4119 16.793C88.7628 16.4732 88.285 16.0428 87.9795 15.5042C87.6741 14.9655 87.522 14.3673 87.522 13.7106C87.522 13.0073 87.7018 12.3825 88.0615 11.8353C88.4212 11.2881 88.9766 10.8589 89.7279 10.5465C90.4792 10.2341 91.4178 10.0779 92.5447 10.0779H95.4551C95.4551 9.51585 95.3806 9.05047 95.2316 8.68285C95.0826 8.31628 94.8475 8.0379 94.5272 7.8509C94.2058 7.6639 93.7801 7.56934 93.2481 7.56934C92.6692 7.56934 92.1797 7.69471 91.7806 7.9444C91.3816 8.19409 91.1347 8.56916 91.0411 9.0696H87.8487C87.9423 8.22597 88.2243 7.49496 88.6936 6.87764C89.1629 6.26032 89.7928 5.77582 90.5835 5.42413C91.3731 5.07244 92.2691 4.89713 93.2715 4.89713C94.3824 4.89713 95.3487 5.08519 96.1702 5.45919C96.9917 5.83426 97.6259 6.37295 98.0718 7.07633C98.5177 7.77971 98.7411 8.64672 98.7411 9.67842V16.9917H95.9712L95.5956 15.2098C95.4391 15.5222 95.2391 15.8038 94.9975 16.0535C94.7549 16.3032 94.4772 16.5189 94.1643 16.6984C93.8514 16.878 93.5035 17.0182 93.1193 17.1202C92.7352 17.2222 92.3095 17.2722 91.8402 17.2722L91.8413 17.2732ZM92.6405 14.7423C93.031 14.7423 93.3832 14.6765 93.6971 14.5426C94.01 14.4098 94.276 14.2185 94.4952 13.9688C94.7145 13.7191 94.8943 13.4333 95.0348 13.1135C95.1752 12.7937 95.2699 12.4452 95.3168 12.0701V12.0467H92.9459C92.4915 12.0467 92.1201 12.1052 91.8307 12.2221C91.5412 12.3389 91.3263 12.5036 91.1847 12.714C91.0432 12.9244 90.973 13.1634 90.973 13.4291C90.973 13.7106 91.0432 13.9529 91.1847 14.1558C91.3252 14.3588 91.521 14.5075 91.7711 14.601C92.0211 14.6945 92.3106 14.7413 92.6394 14.7413L92.6405 14.7423Z" fill="white"/>
<path d="M104.706 17.2732C103.751 17.2732 102.933 17.0735 102.253 16.675C101.572 16.2766 101.051 15.6869 100.692 14.9049C100.332 14.1239 100.152 13.1624 100.152 12.0223V5.17868H103.438V11.695C103.438 12.6173 103.63 13.3164 104.013 13.7924C104.396 14.2695 104.995 14.5075 105.809 14.5075C106.325 14.5075 106.787 14.3906 107.195 14.1558C107.601 13.921 107.918 13.581 108.145 13.1358C108.371 12.6906 108.485 12.1392 108.485 11.4836V5.17868H111.771V16.9917H108.884L108.626 15.093C108.281 15.7496 107.777 16.2766 107.112 16.675C106.446 17.0735 105.644 17.2732 104.706 17.2732Z" fill="white"/>
<path d="M118.837 16.9928C118.007 16.9928 117.276 16.8599 116.642 16.5943C116.008 16.3287 115.519 15.8909 115.175 15.2821C114.83 14.6722 114.659 13.8445 114.659 12.798V7.92318H112.616V5.18084H114.659L115.011 1.92319H117.921V5.18084H121.02V7.92318H117.945V12.8224C117.945 13.3377 118.058 13.6979 118.285 13.9009C118.512 14.1038 118.899 14.2058 119.447 14.2058H120.997V16.9949H118.837V16.9928Z" fill="white"/>
<path d="M122.312 16.9927V0.115814H125.598V6.91269C125.973 6.3028 126.485 5.81511 127.135 5.44748C127.785 5.08092 128.54 4.89711 129.401 4.89711C130.387 4.89711 131.216 5.10429 131.889 5.51867C132.562 5.93305 133.074 6.53443 133.427 7.32388C133.779 8.11332 133.954 9.08552 133.954 10.2415V16.9916H130.692V10.5454C130.692 9.62315 130.496 8.91233 130.105 8.41295C129.714 7.91251 129.112 7.66282 128.298 7.66282C127.781 7.66282 127.315 7.78819 126.9 8.03788C126.485 8.28757 126.165 8.63926 125.938 9.09295C125.712 9.54665 125.598 10.0928 125.598 10.7335V16.9916H122.312V16.9927Z" fill="white"/>
<path d="M81.7328 27.0887C81.3976 27.0844 81.0688 27.0249 80.7474 26.9102C80.4261 26.7954 80.1462 26.6403 79.9078 26.4469C79.6695 26.2536 79.5035 26.0336 79.4109 25.7871L79.9866 25.5385C80.0558 25.7202 80.1877 25.8838 80.3835 26.0294C80.5793 26.1749 80.8017 26.2886 81.0507 26.3715C81.2997 26.4544 81.5423 26.4958 81.7818 26.4958C82.0521 26.4958 82.3075 26.4491 82.5458 26.3566C82.7842 26.2642 82.9779 26.1324 83.1279 25.9635C83.278 25.7945 83.3524 25.5937 83.3524 25.3642C83.3524 25.122 83.2737 24.9318 83.1162 24.7926C82.9587 24.6534 82.7576 24.5408 82.5128 24.4537C82.2681 24.3665 82.017 24.2858 81.7584 24.2082C81.3136 24.0797 80.9283 23.9468 80.6038 23.8119C80.2782 23.677 80.027 23.5038 79.8493 23.2945C79.6716 23.0851 79.5822 22.8078 79.5822 22.4646C79.5822 22.1215 79.6854 21.8006 79.8919 21.5381C80.0983 21.2757 80.3686 21.0728 80.7038 20.9293C81.039 20.7859 81.3987 20.7147 81.7828 20.7147C82.2798 20.7147 82.732 20.8241 83.1385 21.0419C83.545 21.2598 83.8302 21.5466 83.9962 21.9015L83.4631 22.216C83.3822 22.0301 83.2545 21.8707 83.0811 21.7379C82.9076 21.6051 82.7086 21.502 82.4873 21.4287C82.266 21.3554 82.0404 21.3182 81.8148 21.3139C81.5317 21.3097 81.2678 21.3533 81.0231 21.4436C80.7783 21.5339 80.5814 21.6656 80.4325 21.8367C80.2824 22.0078 80.2079 22.215 80.2079 22.4572C80.2079 22.6995 80.2771 22.8854 80.4144 23.014C80.5516 23.1436 80.7442 23.2467 80.9901 23.3253C81.2369 23.4039 81.5211 23.4963 81.8446 23.6005C82.2202 23.7173 82.5714 23.848 82.897 23.9904C83.2226 24.1338 83.4855 24.3123 83.6855 24.5259C83.8856 24.7395 83.9835 25.0168 83.9792 25.3557C83.9792 25.7106 83.8728 26.0198 83.661 26.2822C83.4493 26.5447 83.1715 26.7466 82.83 26.8879C82.4884 27.0292 82.1234 27.0961 81.735 27.0876L81.7328 27.0887Z" fill="white"/>
<path d="M87.209 24.63V20.9187H87.8634V24.527C87.8634 24.8861 87.9518 25.2134 88.1273 25.5077C88.3029 25.802 88.5392 26.0368 88.8339 26.21C89.1287 26.3832 89.4543 26.4703 89.8097 26.4703C90.1652 26.4703 90.4961 26.3832 90.7887 26.21C91.0814 26.0368 91.3165 25.802 91.4921 25.5077C91.6677 25.2134 91.756 24.8861 91.756 24.527V20.9187H92.4105V26.9729H91.756V26.0347C91.5379 26.3662 91.2495 26.6308 90.892 26.8305C90.5344 27.0303 90.1407 27.1301 89.7129 27.1301C89.2521 27.1301 88.8318 27.0186 88.4519 26.7944C88.072 26.5702 87.7698 26.2684 87.5453 25.8891C87.3207 25.5098 87.209 25.0901 87.209 24.63Z" fill="white"/>
<path d="M96.6308 30H95.9763V20.9187H96.6308V22.1661C96.8447 21.7464 97.1447 21.4075 97.531 21.1493C97.9173 20.8911 98.3791 20.7615 98.9165 20.7615C99.3571 20.7615 99.7689 20.8443 100.153 21.0101C100.537 21.1759 100.876 21.4043 101.168 21.6975C101.461 21.9897 101.691 22.3287 101.857 22.7112C102.023 23.0947 102.106 23.5059 102.106 23.9458C102.106 24.3857 102.023 24.799 101.857 25.1868C101.691 25.5746 101.462 25.9146 101.168 26.2068C100.875 26.499 100.536 26.7285 100.153 26.8943C99.7689 27.06 99.3571 27.1429 98.9165 27.1429C98.3791 27.1429 97.9173 27.0133 97.531 26.7551C97.1447 26.4969 96.8447 26.158 96.6308 25.7383V30ZM98.9112 21.4032C98.4504 21.4032 98.0535 21.5169 97.7194 21.7454C97.3863 21.9738 97.1288 22.2787 96.9489 22.6623C96.7691 23.0459 96.6787 23.473 96.6787 23.9458C96.6787 24.4186 96.767 24.8362 96.9457 25.223C97.1235 25.6108 97.3788 25.92 97.713 26.1526C98.0461 26.3843 98.4451 26.5011 98.9101 26.5011C99.3752 26.5011 99.7859 26.3885 100.168 26.1622C100.55 25.9359 100.859 25.631 101.093 25.2453C101.327 24.8596 101.444 24.4271 101.444 23.9469C101.444 23.4666 101.33 23.0576 101.101 22.6729C100.872 22.2872 100.568 21.9802 100.186 21.7496C99.804 21.519 99.3784 21.4043 98.9101 21.4043L98.9112 21.4032Z" fill="white"/>
<path d="M106.241 30H105.586V20.9187H106.241V22.1661C106.455 21.7464 106.755 21.4075 107.141 21.1493C107.527 20.8911 107.989 20.7615 108.527 20.7615C108.967 20.7615 109.379 20.8443 109.763 21.0101C110.147 21.1759 110.486 21.4043 110.778 21.6975C111.071 21.9897 111.301 22.3287 111.467 22.7112C111.633 23.0947 111.716 23.5059 111.716 23.9458C111.716 24.3857 111.633 24.799 111.467 25.1868C111.301 25.5746 111.072 25.9146 110.778 26.2068C110.485 26.499 110.146 26.7285 109.763 26.8943C109.379 27.06 108.967 27.1429 108.527 27.1429C107.989 27.1429 107.527 27.0133 107.141 26.7551C106.755 26.4969 106.455 26.158 106.241 25.7383V30ZM108.521 21.4032C108.061 21.4032 107.664 21.5169 107.329 21.7454C106.996 21.9738 106.739 22.2787 106.559 22.6623C106.379 23.0459 106.289 23.473 106.289 23.9458C106.289 24.4186 106.377 24.8362 106.556 25.223C106.734 25.6108 106.989 25.92 107.323 26.1526C107.656 26.3843 108.055 26.5011 108.52 26.5011C108.985 26.5011 109.396 26.3885 109.778 26.1622C110.16 25.9359 110.469 25.631 110.703 25.2453C110.937 24.8596 111.054 24.4271 111.054 23.9469C111.054 23.4666 110.94 23.0576 110.711 22.6729C110.483 22.2872 110.178 21.9802 109.796 21.7496C109.414 21.519 108.988 21.4043 108.52 21.4043L108.521 21.4032Z" fill="white"/>
<path d="M117.78 27.1312C117.223 27.1312 116.714 26.9878 116.255 26.7009C115.797 26.414 115.431 26.0305 115.158 25.5481C114.886 25.0657 114.749 24.5323 114.749 23.9469C114.749 23.5027 114.827 23.0884 114.985 22.7027C115.142 22.317 115.359 21.978 115.637 21.6859C115.914 21.3937 116.236 21.1642 116.604 20.9984C116.973 20.8327 117.364 20.7498 117.78 20.7498C118.338 20.7498 118.847 20.8932 119.305 21.1801C119.764 21.467 120.13 21.8516 120.402 22.3361C120.675 22.8206 120.812 23.3572 120.812 23.9469C120.812 24.3868 120.733 24.799 120.576 25.1815C120.418 25.5651 120.201 25.903 119.924 26.1951C119.648 26.4873 119.326 26.7168 118.96 26.8826C118.594 27.0483 118.202 27.1312 117.781 27.1312H117.78ZM117.78 26.4767C118.229 26.4767 118.633 26.3598 118.99 26.125C119.348 25.8913 119.632 25.5821 119.841 25.1985C120.051 24.8149 120.156 24.3974 120.156 23.9458C120.156 23.4942 120.051 23.0682 119.841 22.6804C119.631 22.2925 119.347 21.9834 118.987 21.7507C118.627 21.518 118.225 21.4022 117.78 21.4022C117.335 21.4022 116.928 21.519 116.567 21.7528C116.207 21.9865 115.923 22.2968 115.715 22.6825C115.506 23.0682 115.403 23.4889 115.403 23.9448C115.403 24.4006 115.512 24.8436 115.728 25.2251C115.944 25.6065 116.232 25.9104 116.592 26.1367C116.951 26.363 117.347 26.4756 117.78 26.4756V26.4767Z" fill="white"/>
<path d="M124.292 26.9729V20.9187H124.946V21.8452C125.165 21.5105 125.454 21.2439 125.814 21.0462C126.173 20.8486 126.566 20.7498 126.99 20.7498C127.228 20.7498 127.457 20.7806 127.675 20.8401L127.402 21.4819C127.229 21.433 127.059 21.4096 126.893 21.4096C126.537 21.4096 126.212 21.4967 125.917 21.6699C125.622 21.8431 125.386 22.0779 125.21 22.3722C125.035 22.6666 124.946 22.9938 124.946 23.3529V26.9729H124.292Z" fill="white"/>
<path d="M134 21.5732H132.466L132.459 26.974H131.805L131.811 21.5732H130.653V20.9198H131.811L131.805 19.019H132.459L132.466 20.9198H134V21.5732Z" fill="white"/>
</svg>
