<svg width="14" height="16" viewBox="0 0 14 16" fill="none" xmlns="http://www.w3.org/2000/svg">
<path d="M7.375 0.5H7.57954C10.0254 0.5 11.2484 0.5 12.0977 1.09838C12.341 1.26982 12.5571 1.47314 12.7392 1.70217C13.375 2.5015 13.375 3.65252 13.375 5.95455V7.86364C13.375 10.086 13.375 11.1972 13.0233 12.0847C12.4579 13.5114 11.2621 14.6368 9.74623 15.169C8.80328 15.5 7.62264 15.5 5.26136 15.5C3.91206 15.5 3.23741 15.5 2.69858 15.3108C1.83234 15.0068 1.14906 14.3637 0.825973 13.5484C0.625 13.0413 0.625 12.4063 0.625 11.1364V8M13.375 8C13.375 9.38071 12.2557 10.5 10.875 10.5C10.3757 10.5 9.78697 10.4125 9.30148 10.5426C8.87011 10.6582 8.53318 10.9951 8.41759 11.4265C8.2875 11.912 8.375 12.5007 8.375 13C8.375 14.3807 7.25571 15.5 5.875 15.5M3.25 0.5V6.5M3.25 0.5C3.77517 0.5 4.75635 1.99573 5.125 2.375M3.25 0.5C2.72483 0.5 1.74365 1.99573 1.375 2.375" stroke="#163066" stroke-linecap="round" stroke-linejoin="round"/>
</svg>
