<svg width="19" height="22" viewBox="0 0 19 22" fill="none" xmlns="http://www.w3.org/2000/svg">
<path d="M10.25 1H10.5227C13.7839 1 15.4145 1 16.5469 1.79784C16.8714 2.02643 17.1594 2.29752 17.4023 2.60289C18.25 3.66867 18.25 5.20336 18.25 8.27273V10.8182C18.25 13.7814 18.25 15.2629 17.7811 16.4462C17.0272 18.3486 15.4329 19.8491 13.4116 20.5586C12.1544 21 10.5802 21 7.43182 21C5.63275 21 4.73322 21 4.01478 20.7478C2.85979 20.3424 1.94875 19.4849 1.51796 18.3979C1.25 17.7217 1.25 16.8751 1.25 15.1818V11M18.25 11C18.25 12.8409 16.7576 14.3333 14.9167 14.3333C14.2509 14.3333 13.466 14.2167 12.8186 14.3901C12.2435 14.5442 11.7942 14.9935 11.6401 15.5686C11.4667 16.216 11.5833 17.0009 11.5833 17.6667C11.5833 19.5076 10.0909 21 8.25 21M4.75 1V9M4.75 1C5.45023 1 6.75847 2.9943 7.25 3.5M4.75 1C4.04977 1 2.74153 2.9943 2.25 3.5" stroke="url(#paint0_linear_3392_17368)" stroke-width="1.5" stroke-linecap="round" stroke-linejoin="round"/>
<defs>
<linearGradient id="paint0_linear_3392_17368" x1="4.09201" y1="21" x2="20.318" y2="5.70925" gradientUnits="userSpaceOnUse">
<stop stop-color="#F8A8AA"/>
<stop offset="0.252473" stop-color="#FFA5E0"/>
<stop offset="0.359375" stop-color="#FFDFD7"/>
<stop offset="0.511431" stop-color="#FFB126"/>
<stop offset="0.8125" stop-color="#FF512B"/>
</linearGradient>
</defs>
</svg>
