<svg width="36" height="36" viewBox="0 0 36 36" fill="none" xmlns="http://www.w3.org/2000/svg">
<path d="M19.6629 3.75377C20.0771 3.75581 20.4145 3.42168 20.4166 3.00747C20.4186 2.59326 20.0845 2.25583 19.6703 2.25379L19.6629 3.75377ZM33.7498 19.6669C33.75 19.2527 33.4144 18.9168 33.0001 18.9166C32.5859 18.9164 32.25 19.252 32.2498 19.6662L33.7498 19.6669ZM4.45278 21.3377L4.4509 22.0877C4.45681 22.0877 4.46272 22.0877 4.46862 22.0875L4.45278 21.3377ZM16.6184 25.2236L17.0713 24.6258L16.6184 25.2236ZM22.2738 34.8543C22.3775 35.2553 22.7866 35.4964 23.1876 35.3927C23.5887 35.289 23.8297 34.8799 23.726 34.4789L22.2738 34.8543ZM32.661 26.8293C33.0306 27.0165 33.4818 26.8687 33.669 26.4992C33.8562 26.1296 33.7083 25.6784 33.3388 25.4912L32.661 26.8293ZM26.9769 24.6667L26.974 25.4167L26.9777 25.4167L26.9769 24.6667ZM29.7499 14.6666C29.7499 15.0808 30.0857 15.4166 30.4999 15.4166C30.9141 15.4166 31.2499 15.0808 31.2499 14.6666H29.7499ZM34.1288 6.02266C34.4175 6.31968 34.8923 6.32643 35.1893 6.03773C35.4864 5.74903 35.4931 5.2742 35.2044 4.97718L34.1288 6.02266ZM25.7954 4.97718C25.5067 5.2742 25.5135 5.74903 25.8105 6.03773C26.1075 6.32643 26.5824 6.31969 26.8711 6.02266L25.7954 4.97718ZM17.1666 33.9166C13.4134 33.9166 10.674 33.915 8.57979 33.6334C6.50713 33.3548 5.17911 32.8143 4.18232 31.8175L3.12166 32.8782C4.44361 34.2001 6.14093 34.819 8.37991 35.1201C10.5973 35.4182 13.4558 35.4166 17.1666 35.4166V33.9166ZM0.583252 18.8333C0.583252 22.544 0.581659 25.4025 0.879782 27.6199C1.18081 29.8589 1.79971 31.5562 3.12166 32.8782L4.18232 31.8175C3.18553 30.8207 2.64507 29.4927 2.36641 27.4201C2.08484 25.3258 2.08325 22.5864 2.08325 18.8333H0.583252ZM17.1666 35.4166C20.8773 35.4166 23.7358 35.4182 25.9533 35.1201C28.1922 34.819 29.8896 34.2001 31.2115 32.8782L30.1509 31.8175C29.1541 32.8143 27.826 33.3548 25.7534 33.6334C23.6592 33.915 20.9197 33.9166 17.1666 33.9166V35.4166ZM17.1666 2.24992C13.4558 2.24992 10.5973 2.24833 8.37991 2.54645C6.14093 2.84747 4.44361 3.46638 3.12166 4.78833L4.18232 5.84899C5.17911 4.85219 6.50713 4.31173 8.57979 4.03307C10.674 3.75151 13.4134 3.74992 17.1666 3.74992V2.24992ZM2.08325 18.8333C2.08325 15.0801 2.08484 12.3407 2.36641 10.2465C2.64507 8.1738 3.18553 6.84578 4.18232 5.84899L3.12166 4.78833C1.79971 6.11027 1.18081 7.8076 0.879782 10.0466C0.581659 12.264 0.583252 15.1225 0.583252 18.8333H2.08325ZM17.1666 3.74992C18.0515 3.74992 18.8816 3.74992 19.6629 3.75377L19.6703 2.25379C18.8846 2.24992 18.0506 2.24992 17.1666 2.24992V3.74992ZM32.2498 19.6662C32.2482 23.1387 32.2246 25.6909 31.9339 27.6526C31.6465 29.5924 31.1102 30.8582 30.1509 31.8175L31.2115 32.8782C32.483 31.6067 33.1043 29.9877 33.4177 27.8725C33.7279 25.7792 33.7482 23.1061 33.7498 19.6669L32.2498 19.6662ZM1.44106 22.3012C2.43639 22.1566 3.44277 22.0852 4.4509 22.0877L4.45465 20.5877C3.3732 20.585 2.29351 20.6616 1.22545 20.8168L1.44106 22.3012ZM4.46862 22.0875C8.72436 21.9976 12.8698 23.3242 16.1654 25.8213L17.0713 24.6258C13.4988 21.9188 9.02099 20.491 4.43693 20.5879L4.46862 22.0875ZM16.1654 25.8213C19.221 28.1366 21.3589 31.3157 22.2738 34.8543L23.726 34.4789C22.7233 30.6004 20.3855 27.137 17.0713 24.6258L16.1654 25.8213ZM33.3388 25.4912C31.2831 24.45 29.1411 23.9145 26.9762 23.9167L26.9777 25.4167C28.8879 25.4147 30.7985 25.886 32.661 26.8293L33.3388 25.4912ZM26.9799 23.9167C23.6988 23.9037 20.4843 25.1118 17.5388 27.4085L18.4611 28.5914C21.1872 26.4658 24.0827 25.4053 26.974 25.4167L26.9799 23.9167ZM29.7499 1.33325V14.6666H31.2499V1.33325H29.7499ZM30.4999 2.08325C30.475 2.08325 30.5113 2.07733 30.6266 2.13899C30.7358 2.19746 30.8748 2.2945 31.0418 2.43675C31.3765 2.72177 31.753 3.12689 32.1415 3.58538C32.5272 4.0406 32.9035 4.52276 33.2442 4.95658C33.5716 5.37337 33.8898 5.77679 34.1288 6.02266L35.2044 4.97718C35.0338 4.80163 34.7722 4.47351 34.4239 4.03004C34.0889 3.60358 33.6935 3.09676 33.2859 2.61567C32.881 2.13785 32.4424 1.65933 32.0144 1.2948C31.8001 1.11226 31.5709 0.943044 31.3343 0.816453C31.1037 0.693046 30.8166 0.583252 30.4999 0.583252V2.08325ZM26.8711 6.02266C27.11 5.77679 27.4282 5.37337 27.7556 4.95658C28.0963 4.52277 28.4726 4.0406 28.8584 3.58538C29.2469 3.12689 29.6234 2.72177 29.958 2.43675C30.125 2.2945 30.264 2.19746 30.3733 2.13899C30.4885 2.07733 30.5248 2.08325 30.4999 2.08325V0.583252C30.1833 0.583252 29.8961 0.693046 29.6655 0.816453C29.429 0.943044 29.1997 1.11226 28.9854 1.2948C28.5574 1.65933 28.1188 2.13785 27.7139 2.61567C27.3063 3.09676 26.9109 3.60358 26.576 4.03004C26.2276 4.47351 25.9661 4.80164 25.7954 4.97718L26.8711 6.02266Z" fill="#525252"/>
</svg>
