<svg width="25" height="24" viewBox="0 0 25 24" fill="none" xmlns="http://www.w3.org/2000/svg">
<path d="M12.5 8L12.5 16M12.5 8C11.7998 8 10.4915 9.9943 10 10.5M12.5 8C13.2002 8 14.5085 9.9943 15 10.5" stroke="url(#paint0_linear_2258_6531)" stroke-width="1.5" stroke-linecap="round" stroke-linejoin="round"/>
<path d="M3 12C3 7.52166 3 5.28249 4.39124 3.89124C5.78249 2.5 8.02166 2.5 12.5 2.5C16.9783 2.5 19.2175 2.5 20.6088 3.89124C22 5.28249 22 7.52166 22 12C22 16.4783 22 18.7175 20.6088 20.1088C19.2175 21.5 16.9783 21.5 12.5 21.5C8.02166 21.5 5.78249 21.5 4.39124 20.1088C3 18.7175 3 16.4783 3 12Z" stroke="url(#paint1_linear_2258_6531)" stroke-width="1.5"/>
<defs>
<linearGradient id="paint0_linear_2258_6531" x1="10.8359" y1="16" x2="16.9235" y2="11.7818" gradientUnits="userSpaceOnUse">
<stop stop-color="#F8A8AA"/>
<stop offset="0.252473" stop-color="#FFA5E0"/>
<stop offset="0.359375" stop-color="#FFDFD7"/>
<stop offset="0.511431" stop-color="#FFB126"/>
<stop offset="0.8125" stop-color="#FF512B"/>
</linearGradient>
<linearGradient id="paint1_linear_2258_6531" x1="6.17636" y1="21.5" x2="21.5365" y2="4.47089" gradientUnits="userSpaceOnUse">
<stop stop-color="#F8A8AA"/>
<stop offset="0.252473" stop-color="#FFA5E0"/>
<stop offset="0.359375" stop-color="#FFDFD7"/>
<stop offset="0.511431" stop-color="#FFB126"/>
<stop offset="0.8125" stop-color="#FF512B"/>
</linearGradient>
</defs>
</svg>
