<svg width="32" height="32" viewBox="0 0 32 32" fill="none" xmlns="http://www.w3.org/2000/svg">
<path d="M27.3333 16.0003C27.3333 18.4549 25.3435 20.4448 22.8889 20.4448C22.0012 20.4448 20.9546 20.2892 20.0915 20.5205C19.3246 20.726 18.7256 21.325 18.5202 22.0918C18.2889 22.9549 18.4444 24.0015 18.4444 24.8892C18.4444 27.3438 16.4546 29.3337 14 29.3337M10.6667 9.33366H20M10.6667 14.667H14.6667M12.9091 29.3337C10.5103 29.3337 9.31096 29.3337 8.35304 28.9974C6.81306 28.4568 5.59834 27.3135 5.02395 25.8641C4.66667 24.9626 4.66667 23.8337 4.66667 21.5761V13.3337C4.66667 8.30534 4.66667 5.79119 6.3264 4.22909C7.98612 2.66699 10.6574 2.66699 16 2.66699H17.0303C21.3786 2.66699 23.5527 2.66699 25.0626 3.73077C25.4952 4.03556 25.8792 4.39703 26.2031 4.80418C27.3333 6.22522 27.3333 8.27147 27.3333 12.364V15.7579C27.3333 19.7088 27.3333 21.6842 26.7081 23.262C25.7029 25.7984 23.5772 27.7991 20.8822 28.7452C19.2058 29.3337 17.1069 29.3337 12.9091 29.3337Z" stroke="#1594CC" stroke-width="2" stroke-linecap="round" stroke-linejoin="round"/>
</svg>
