<svg width="29" height="32" viewBox="0 0 29 32" fill="none" xmlns="http://www.w3.org/2000/svg">
<path d="M6.75 0C5.65 0 4.75 0.9 4.75 2V30C4.75 31.1 5.65 32 6.75 32H26.75C27.85 32 28.75 31.1 28.75 30V8L20.75 0H6.75Z" fill="#EBF1FF"/>
<path d="M22.75 8H28.75L20.75 0V6C20.75 7.1 21.65 8 22.75 8Z" fill="#85ACFF"/>
<path d="M28.75 14L22.75 8H28.75V14Z" fill="#CBDAFF"/>
<path d="M24.75 26C24.75 26.55 24.3 27 23.75 27H1.75C1.2 27 0.75 26.55 0.75 26V16C0.75 15.45 1.2 15 1.75 15H23.75C24.3 15 24.75 15.45 24.75 16V26Z" fill="#FF2E37"/>
<path d="M5.10938 18.9465C5.10938 18.6825 5.31737 18.3945 5.65237 18.3945H7.49937C8.53937 18.3945 9.47538 19.0905 9.47538 20.4245C9.47538 21.6885 8.53937 22.3925 7.49937 22.3925H6.16437V23.4485C6.16437 23.8005 5.94037 23.9995 5.65237 23.9995C5.38837 23.9995 5.10938 23.8005 5.10938 23.4485V18.9465ZM6.16437 19.4015V21.3935H7.49937C8.03537 21.3935 8.45937 20.9205 8.45937 20.4245C8.45937 19.8655 8.03537 19.4015 7.49937 19.4015H6.16437ZM11.0414 23.9995C10.7774 23.9995 10.4894 23.8555 10.4894 23.5045V18.9625C10.4894 18.6755 10.7774 18.4665 11.0414 18.4665H12.8724C16.5264 18.4665 16.4464 23.9995 12.9444 23.9995H11.0414ZM11.5454 19.4425V23.0245H12.8724C15.0314 23.0245 15.1274 19.4425 12.8724 19.4425H11.5454ZM17.7424 19.5065V20.7775H19.7814C20.0694 20.7775 20.3574 21.0655 20.3574 21.3445C20.3574 21.6085 20.0694 21.8245 19.7814 21.8245H17.7424V23.5035C17.7424 23.7835 17.5434 23.9985 17.2634 23.9985C16.9114 23.9985 16.6964 23.7835 16.6964 23.5035V18.9615C16.6964 18.6745 16.9124 18.4655 17.2634 18.4655H20.0704C20.4224 18.4655 20.6304 18.6745 20.6304 18.9615C20.6304 19.2175 20.4224 19.5055 20.0704 19.5055H17.7424V19.5065Z" fill="white"/>
<path opacity="0.4" d="M23.75 27H4.75V28H23.75C24.3 28 24.75 27.55 24.75 27V26C24.75 26.55 24.3 27 23.75 27Z" fill="#666C7C"/>
</svg>
