<svg width="20" height="20" viewBox="0 0 20 20" fill="none" xmlns="http://www.w3.org/2000/svg">
<path d="M17.721 11.5935L17.2634 12.1877L17.721 11.5935ZM18.8786 14.0573L18.2963 13.5847V13.5847L18.8786 14.0573ZM17.3116 14.2497C16.8974 14.2497 16.5616 14.5855 16.5616 14.9997C16.5616 15.4139 16.8974 15.7497 17.3116 15.7497V14.2497ZM15.9008 10.0861C15.4883 10.0487 15.1236 10.3529 15.0863 10.7654C15.049 11.178 15.3531 11.5426 15.7657 11.58L15.9008 10.0861ZM2.27879 11.5935L2.73638 12.1877H2.73638L2.27879 11.5935ZM1.12121 14.0573L1.70354 13.5847L1.70354 13.5847L1.12121 14.0573ZM2.68822 15.7497C3.10243 15.7497 3.43822 15.4139 3.43822 14.9997C3.43822 14.5855 3.10243 14.2497 2.68822 14.2497V15.7497ZM4.23416 11.58C4.64669 11.5426 4.95086 11.178 4.91353 10.7654C4.87621 10.3529 4.51154 10.0487 4.09901 10.0861L4.23416 11.58ZM4.58325 9.91634C4.99747 9.91634 5.33325 9.58055 5.33325 9.16634C5.33325 8.75213 4.99747 8.41634 4.58325 8.41634V9.91634ZM4.58325 5.74967C4.99747 5.74967 5.33325 5.41389 5.33325 4.99967C5.33325 4.58546 4.99747 4.24967 4.58325 4.24967V5.74967ZM6.73639 12.5923L6.34195 11.9544L6.73639 12.5923ZM13.2634 12.5923L13.6578 11.9544H13.6578L13.2634 12.5923ZM5.01214 15.5392L4.48466 16.0724L5.01214 15.5392ZM14.9876 15.5392L14.4602 15.006V15.006L14.9876 15.5392ZM17.721 11.5935L17.2634 12.1877C17.6258 12.4668 18.0121 12.7097 18.268 13.0336C18.3828 13.1789 18.4117 13.2734 18.4159 13.3229C18.4181 13.3488 18.4228 13.4288 18.2963 13.5847L18.8786 14.0573L19.4609 14.5299C19.7909 14.1235 19.9505 13.6693 19.9106 13.1966C19.8726 12.7475 19.6623 12.3788 19.445 12.1038C19.0369 11.5871 18.3879 11.1604 18.1786 10.9993L17.721 11.5935ZM18.8786 14.0573L18.2963 13.5847C17.8901 14.0851 17.5862 14.2497 17.3116 14.2497V14.9997V15.7497C18.2858 15.7497 18.9753 15.1283 19.4609 14.5299L18.8786 14.0573ZM15.8332 10.833L15.7657 11.58C16.2744 11.626 16.7893 11.8226 17.2634 12.1877L17.721 11.5935L18.1786 10.9993C17.4906 10.4694 16.7078 10.1591 15.9008 10.0861L15.8332 10.833ZM17.0832 7.08301H16.3332C16.3332 7.81939 15.7363 8.41634 14.9999 8.41634V9.16634V9.91634C16.5647 9.91634 17.8332 8.64781 17.8332 7.08301H17.0832ZM14.9999 4.99967V5.74967C15.7363 5.74967 16.3332 6.34663 16.3332 7.08301H17.0832H17.8332C17.8332 5.5182 16.5647 4.24967 14.9999 4.24967V4.99967ZM2.27879 11.5935L1.8212 10.9993C1.61192 11.1604 0.96297 11.5871 0.554783 12.1038C0.337505 12.3788 0.127193 12.7475 0.0892344 13.1966C0.0492821 13.6692 0.20896 14.1235 0.538873 14.5299L1.12121 14.0573L1.70354 13.5847C1.57701 13.4288 1.58171 13.3488 1.5839 13.3229C1.58809 13.2734 1.61705 13.1789 1.73182 13.0336C1.98773 12.7097 2.37401 12.4668 2.73638 12.1877L2.27879 11.5935ZM1.12121 14.0573L0.538873 14.5299C1.02454 15.1283 1.71401 15.7497 2.68822 15.7497V14.9997V14.2497C2.41359 14.2497 2.10974 14.0851 1.70354 13.5847L1.12121 14.0573ZM4.16658 10.833L4.09901 10.0861C3.29205 10.1591 2.50927 10.4694 1.8212 10.9993L2.27879 11.5935L2.73638 12.1877C3.21053 11.8226 3.72542 11.626 4.23416 11.58L4.16658 10.833ZM2.49992 7.08301H1.74992C1.74992 8.64781 3.01845 9.91634 4.58325 9.91634V9.16634V8.41634C3.84687 8.41634 3.24992 7.81939 3.24992 7.08301H2.49992ZM4.58325 4.99967V4.24967C3.01845 4.24967 1.74992 5.5182 1.74992 7.08301H2.49992H3.24992C3.24992 6.34663 3.84687 5.74967 4.58325 5.74967V4.99967ZM6.73639 12.5923L7.13083 13.2302C8.88582 12.145 11.114 12.145 12.8689 13.2302L13.2634 12.5923L13.6578 11.9544C11.4194 10.5703 8.58038 10.5703 6.34195 11.9544L6.73639 12.5923ZM7.34625 16.6663V17.4163H12.6535V16.6663V15.9163H7.34625V16.6663ZM5.01214 15.5392L5.53962 15.006C5.31332 14.7821 5.33279 14.6756 5.33404 14.6638C5.33972 14.6098 5.38416 14.4835 5.57969 14.2847C5.9903 13.8673 6.62398 13.5436 7.13083 13.2302L6.73639 12.5923L6.34195 11.9544C5.99733 12.1675 5.08899 12.6446 4.51041 13.2327C4.21134 13.5367 3.89938 13.9643 3.84229 14.5067C3.78076 15.0912 4.03108 15.6236 4.48466 16.0724L5.01214 15.5392ZM13.2634 12.5923L12.8689 13.2302C13.3758 13.5436 14.0095 13.8673 14.4201 14.2847C14.6156 14.4835 14.6601 14.6098 14.6657 14.6638C14.667 14.6756 14.6865 14.7821 14.4602 15.006L14.9876 15.5392L15.5151 16.0724C15.9687 15.6236 16.219 15.0912 16.1575 14.5067C16.1004 13.9643 15.7884 13.5367 15.4894 13.2327C14.9108 12.6446 14.0025 12.1675 13.6578 11.9544L13.2634 12.5923ZM14.9876 15.5392L14.4602 15.006C13.8605 15.5993 13.3003 15.9163 12.6535 15.9163V16.6663V17.4163C13.867 17.4163 14.7863 16.7934 15.5151 16.0724L14.9876 15.5392ZM5.01214 15.5392L4.48466 16.0724C5.21343 16.7934 6.13281 17.4163 7.34625 17.4163V16.6663V15.9163C6.69951 15.9163 6.13931 15.5993 5.53962 15.006L5.01214 15.5392ZM12.9166 6.24967H12.1666C12.1666 7.44629 11.1965 8.41634 9.99989 8.41634V9.16634V9.91634C12.0249 9.91634 13.6666 8.27472 13.6666 6.24967H12.9166ZM9.99989 9.16634V8.41634C8.80327 8.41634 7.83322 7.44629 7.83322 6.24967H7.08322H6.33322C6.33322 8.27472 7.97485 9.91634 9.99989 9.91634V9.16634ZM7.08322 6.24967H7.83322C7.83322 5.05306 8.80327 4.08301 9.99989 4.08301V3.33301V2.58301C7.97485 2.58301 6.33322 4.22463 6.33322 6.24967H7.08322ZM9.99989 3.33301V4.08301C11.1965 4.08301 12.1666 5.05306 12.1666 6.24967H12.9166H13.6666C13.6666 4.22463 12.0249 2.58301 9.99989 2.58301V3.33301Z" fill="#3961B2"/>
</svg>
