<svg width="14" height="14" viewBox="0 0 14 14" fill="none" xmlns="http://www.w3.org/2000/svg">
<path d="M6.41732 7.58366H9.33398M4.66732 7.58366H4.67256M7.58398 9.91699H4.66732M9.33398 9.91699H9.32874M10.5007 1.16699V2.33366M3.50065 1.16699V2.33366M1.75065 4.66699H12.2507M1.45898 7.14219C1.45898 4.60046 1.45898 3.32957 2.18939 2.53995C2.91979 1.75033 4.09535 1.75033 6.44648 1.75033H7.55482C9.90594 1.75033 11.0815 1.75033 11.8119 2.53995C12.5423 3.32957 12.5423 4.60046 12.5423 7.14219V7.44179C12.5423 9.98355 12.5423 11.2544 11.8119 12.0441C11.0815 12.8337 9.90594 12.8337 7.55482 12.8337H6.44648C4.09535 12.8337 2.91979 12.8337 2.18939 12.0441C1.45898 11.2544 1.45898 9.98355 1.45898 7.44179V7.14219Z" stroke="#3961B2" stroke-linecap="round" stroke-linejoin="round"/>
</svg>
