<svg width="16" height="20" viewBox="0 0 16 20" fill="none" xmlns="http://www.w3.org/2000/svg">
<path d="M1.55643 15.7042L2.29972 15.6042L2.29972 15.6042L1.55643 15.7042ZM4.29964 18.2511L4.26519 19.0003L4.26521 19.0003L4.29964 18.2511ZM11.7002 18.2511L11.7346 19.0003L11.7346 19.0003L11.7002 18.2511ZM14.4434 15.7042L13.7001 15.6041L13.7001 15.6042L14.4434 15.7042ZM14.4434 10.1297L13.7001 10.2298L13.7001 10.2298L14.4434 10.1297ZM11.7002 7.5829L11.7346 6.83369H11.7346L11.7002 7.5829ZM4.29964 7.5829L4.26519 6.83369L4.26519 6.83369L4.29964 7.5829ZM1.55643 10.1297L2.29972 10.2298L2.29972 10.2298L1.55643 10.1297ZM3.49992 7.50033C3.49992 7.91454 3.83571 8.25033 4.24992 8.25033C4.66413 8.25033 4.99992 7.91454 4.99992 7.50033H3.49992ZM10.9999 7.50033C10.9999 7.91454 11.3357 8.25033 11.7499 8.25033C12.1641 8.25033 12.4999 7.91454 12.4999 7.50033H10.9999ZM7.99667 12.167C7.58246 12.167 7.24667 12.5028 7.24667 12.917C7.24667 13.3312 7.58246 13.667 7.99667 13.667V12.167ZM8.00417 13.667C8.41838 13.667 8.75417 13.3312 8.75417 12.917C8.75417 12.5028 8.41838 12.167 8.00417 12.167V13.667ZM1.55643 15.7042L0.813133 15.8043C1.04722 17.543 2.48772 18.9186 4.26519 19.0003L4.29964 18.2511L4.33408 17.5019C3.30566 17.4546 2.44043 16.6493 2.29972 15.6042L1.55643 15.7042ZM4.29964 18.2511L4.26521 19.0003C5.45751 19.0551 6.66818 19.0837 7.99992 19.0837V18.3337L7.99992 17.5837C6.69049 17.5837 5.50278 17.5556 4.33406 17.5019L4.29964 18.2511ZM7.99992 18.3337V19.0837C9.33165 19.0837 10.5423 19.0551 11.7346 19.0003L11.7002 18.2511L11.6657 17.5019C10.497 17.5556 9.30935 17.5837 7.99992 17.5837L7.99992 18.3337ZM11.7002 18.2511L11.7346 19.0003C13.5121 18.9186 14.9526 17.543 15.1867 15.8043L14.4434 15.7042L13.7001 15.6042C13.5594 16.6493 12.6942 17.4546 11.6657 17.5019L11.7002 18.2511ZM14.4434 15.7042L15.1867 15.8043C15.3104 14.8856 15.4166 13.9155 15.4166 12.917H14.6666H13.9166C13.9166 13.8145 13.8211 14.7062 13.7001 15.6041L14.4434 15.7042ZM14.6666 12.917H15.4166C15.4166 11.9185 15.3104 10.9483 15.1867 10.0296L14.4434 10.1297L13.7001 10.2298C13.8211 11.1278 13.9166 12.0195 13.9166 12.917H14.6666ZM14.4434 10.1297L15.1867 10.0297C14.9526 8.29098 13.5121 6.91541 11.7346 6.83369L11.7002 7.5829L11.6657 8.33211C12.6942 8.37939 13.5594 9.18468 13.7001 10.2298L14.4434 10.1297ZM11.7002 7.5829L11.7346 6.83369C10.5423 6.77888 9.33164 6.75033 7.99992 6.75033V7.50033V8.25033C9.30936 8.25033 10.497 8.27839 11.6657 8.33211L11.7002 7.5829ZM7.99992 7.50033V6.75033C6.66819 6.75033 5.45751 6.77888 4.26519 6.83369L4.29964 7.5829L4.33408 8.33211C5.50277 8.27839 6.69048 8.25033 7.99992 8.25033V7.50033ZM4.29964 7.5829L4.26519 6.83369C2.48772 6.91541 1.04722 8.29097 0.813133 10.0297L1.55643 10.1297L2.29972 10.2298C2.44043 9.18468 3.30567 8.37939 4.33408 8.33211L4.29964 7.5829ZM1.55643 10.1297L0.813135 10.0297C0.689435 10.9483 0.583252 11.9185 0.583252 12.917H1.33325H2.08325C2.08325 12.0195 2.1788 11.1278 2.29972 10.2298L1.55643 10.1297ZM1.33325 12.917H0.583252C0.583252 13.9155 0.689435 14.8857 0.813135 15.8043L1.55643 15.7042L2.29972 15.6042C2.1788 14.7062 2.08325 13.8145 2.08325 12.917H1.33325ZM4.24992 7.50033H4.99992V5.41699H4.24992H3.49992V7.50033H4.24992ZM4.24992 5.41699H4.99992C4.99992 3.76014 6.34307 2.41699 7.99992 2.41699V1.66699V0.916992C5.51464 0.916992 3.49992 2.93171 3.49992 5.41699H4.24992ZM7.99992 1.66699V2.41699C9.65679 2.41699 10.9999 3.76014 10.9999 5.41699H11.7499H12.4999C12.4999 2.93171 10.4852 0.916992 7.99992 0.916992V1.66699ZM11.7499 5.41699H10.9999V7.50033H11.7499H12.4999V5.41699H11.7499ZM7.99667 12.917V13.667H8.00417V12.917V12.167H7.99667V12.917Z" fill="#3961B2"/>
</svg>
