<svg width="16" height="18" viewBox="0 0 16 18" fill="none" xmlns="http://www.w3.org/2000/svg">
<path d="M8 17.3337C7.31817 17.3337 6.66683 17.0585 5.36411 16.5082C2.12137 15.1384 0.5 14.4535 0.5 13.3014C0.5 12.9788 0.5 7.38741 0.5 4.83366M8 17.3337C8.68183 17.3337 9.33317 17.0585 10.6359 16.5082C13.8787 15.1384 15.5 14.4535 15.5 13.3014V4.83366M8 17.3337V8.46266M3 9.00033L4.66667 9.83366M12.1667 2.33366L3.83333 6.50033M4.93827 7.07648L2.50393 5.89853C1.16797 5.25208 0.5 4.92885 0.5 4.41699C0.5 3.90513 1.16797 3.58191 2.50393 2.93545L4.93827 1.75751C6.44067 1.0305 7.19192 0.666992 8 0.666992C8.80808 0.666992 9.55933 1.03049 11.0617 1.75751L13.4961 2.93545C14.832 3.58191 15.5 3.90513 15.5 4.41699C15.5 4.92885 14.832 5.25208 13.4961 5.89853L11.0617 7.07648C9.55933 7.80349 8.80808 8.16699 8 8.16699C7.19192 8.16699 6.44067 7.80349 4.93827 7.07648Z" stroke="#3961B2" stroke-linecap="round" stroke-linejoin="round"/>
</svg>
