<svg width="18" height="20" viewBox="0 0 18 20" fill="none" xmlns="http://www.w3.org/2000/svg">
<path d="M2.72943 7.91602L3.47943 7.91608V7.91602H2.72943ZM15.2709 7.91602H14.5209V7.91608L15.2709 7.91602ZM15.3068 14.6772L15.5938 15.3701H15.5938L15.3068 14.6772ZM2.69354 14.6772L2.98058 13.9843H2.98058L2.69354 14.6772ZM15.8455 10.4184L15.225 10.8397L15.2274 10.8432L15.8455 10.4184ZM16.8919 12.3074L16.1505 12.4205V12.4205L16.8919 12.3074ZM2.15484 10.4184L2.77294 10.8433L2.77533 10.8397L2.15484 10.4184ZM1.10843 12.3074L0.367008 12.1943H0.367008L1.10843 12.3074ZM6.39167 15.6401C6.28528 15.2397 5.87452 15.0015 5.4742 15.1078C5.07388 15.2142 4.8356 15.625 4.94199 16.0253L6.39167 15.6401ZM13.0583 16.0253C13.1647 15.625 12.9264 15.2142 12.5261 15.1078C12.1258 15.0015 11.715 15.2397 11.6087 15.6401L13.0583 16.0253ZM15.3068 14.6772L15.0197 13.9843C11.4846 15.4488 6.51576 15.4488 2.98058 13.9843L2.69354 14.6772L2.4065 15.3701C6.30925 16.9869 11.6911 16.9869 15.5938 15.3701L15.3068 14.6772ZM15.2709 7.91602H16.0209C16.0209 4.04768 12.8753 0.916016 9.00016 0.916016V1.66602V2.41602C12.0515 2.41602 14.5209 4.88079 14.5209 7.91602H15.2709ZM2.72943 7.91602H3.47943C3.47943 4.88079 5.94881 2.41602 9.00016 2.41602V1.66602V0.916016C5.12506 0.916016 1.97943 4.04768 1.97943 7.91602H2.72943ZM2.69354 14.6772L2.98058 13.9843C2.1657 13.6468 1.74734 13.0925 1.84985 12.4205L1.10843 12.3074L0.367008 12.1943C0.115097 13.8456 1.28129 14.904 2.4065 15.3701L2.69354 14.6772ZM15.3068 14.6772L15.5938 15.3701C16.719 14.904 17.8852 13.8456 17.6333 12.1943L16.8919 12.3074L16.1505 12.4205C16.253 13.0925 15.8346 13.6468 15.0197 13.9843L15.3068 14.6772ZM15.8455 10.4184L16.466 9.99715C16.0818 9.43133 16.021 8.79854 16.0209 7.91595L15.2709 7.91602L14.5209 7.91608C14.521 8.81987 14.564 9.86614 15.225 10.8397L15.8455 10.4184ZM2.15484 10.4184L2.77533 10.8397C3.43636 9.86614 3.47936 8.81987 3.47943 7.91608L2.72943 7.91602L1.97943 7.91595C1.97936 8.79854 1.91851 9.43133 1.53434 9.99715L2.15484 10.4184ZM2.15484 10.4184L1.53674 9.99364C1.39139 10.2051 1.08567 10.6038 0.890641 10.9094C0.668026 11.2582 0.444194 11.6883 0.367008 12.1943L1.10843 12.3074L1.84985 12.4205C1.88158 12.2125 1.98146 11.9884 2.15508 11.7164C2.35628 11.4011 2.5193 11.2123 2.77293 10.8432L2.15484 10.4184ZM15.8455 10.4184L15.2274 10.8432C15.481 11.2123 15.644 11.4011 15.8452 11.7164C16.0189 11.9884 16.1187 12.2125 16.1505 12.4205L16.8919 12.3074L17.6333 12.1943C17.5561 11.6883 17.3323 11.2582 17.1097 10.9094C16.9147 10.6038 16.6089 10.2051 16.4636 9.99364L15.8455 10.4184ZM9.00016 18.3327V17.5827C7.73014 17.5827 6.6848 16.7431 6.39167 15.6401L5.66683 15.8327L4.94199 16.0253C5.41301 17.7977 7.06274 19.0827 9.00016 19.0827V18.3327ZM12.3335 15.8327L11.6087 15.6401C11.3155 16.7431 10.2702 17.5827 9.00016 17.5827V18.3327V19.0827C10.9376 19.0827 12.5873 17.7977 13.0583 16.0253L12.3335 15.8327Z" fill="#525252"/>
</svg>
