<svg width="26" height="30" viewBox="0 0 26 30" fill="none" xmlns="http://www.w3.org/2000/svg">
<path d="M24.3332 15.0003C24.3332 17.4549 22.3433 19.4448 19.8887 19.4448C19.001 19.4448 17.9545 19.2892 17.0914 19.5205C16.3245 19.726 15.7255 20.325 15.52 21.0918C15.2887 21.9549 15.4443 23.0015 15.4443 23.8892C15.4443 26.3438 13.4544 28.3337 10.9998 28.3337M7.6665 8.33366H16.9998M7.6665 13.667H11.6665M9.90893 28.3337C7.51017 28.3337 6.31079 28.3337 5.35287 27.9974C3.81289 27.4568 2.59817 26.3135 2.02379 24.8641C1.6665 23.9626 1.6665 22.8337 1.6665 20.5761V12.3337C1.6665 7.30534 1.6665 4.79119 3.32623 3.22909C4.98596 1.66699 7.65725 1.66699 12.9998 1.66699H14.0301C18.3784 1.66699 20.5526 1.66699 22.0624 2.73077C22.495 3.03556 22.8791 3.39703 23.2029 3.80418C24.3332 5.22522 24.3332 7.27147 24.3332 11.364V14.7579C24.3332 18.7088 24.3332 20.6842 23.7079 22.262C22.7028 24.7984 20.577 26.7991 17.882 27.7452C16.2057 28.3337 14.1068 28.3337 9.90893 28.3337Z" stroke="#1594CC" stroke-width="2" stroke-linecap="round" stroke-linejoin="round"/>
</svg>
