<svg width="20" height="18" viewBox="0 0 20 18" fill="none" xmlns="http://www.w3.org/2000/svg">
<path d="M1.66667 9C1.66667 5.92572 1.66667 4.38858 2.34485 3.29898C2.59575 2.89585 2.90743 2.54522 3.26576 2.26295C4.2343 1.5 5.60064 1.5 8.33333 1.5H11.6667C14.3993 1.5 15.7657 1.5 16.7343 2.26295C17.0926 2.54522 17.4043 2.89585 17.6552 3.29898C18.3333 4.38858 18.3333 5.92572 18.3333 9C18.3333 12.0742 18.3333 13.6114 17.6552 14.701C17.4043 15.1042 17.0926 15.4547 16.7343 15.7371C15.7657 16.5 14.3993 16.5 11.6667 16.5H8.33333C5.60064 16.5 4.2343 16.5 3.26576 15.7371C2.90743 15.4547 2.59575 15.1042 2.34485 14.701C1.66667 13.6114 1.66667 12.0742 1.66667 9Z" stroke="white" stroke-width="1.5"/>
</svg>
