<svg width="16" height="20" viewBox="0 0 16 20" fill="none" xmlns="http://www.w3.org/2000/svg">
<path d="M1.55649 15.7042L2.29978 15.6042L2.29978 15.6042L1.55649 15.7042ZM4.2997 18.2511L4.26525 19.0003L4.26527 19.0003L4.2997 18.2511ZM11.7002 18.2511L11.7347 19.0003L11.7347 19.0003L11.7002 18.2511ZM14.4435 15.7042L13.7002 15.6041L13.7002 15.6042L14.4435 15.7042ZM14.4435 10.1297L13.7002 10.2298L13.7002 10.2298L14.4435 10.1297ZM11.7002 7.5829L11.7347 6.83369H11.7347L11.7002 7.5829ZM4.2997 7.5829L4.26526 6.83369L4.26525 6.83369L4.2997 7.5829ZM1.55649 10.1297L2.29978 10.2298L2.29978 10.2298L1.55649 10.1297ZM3.49998 7.50033C3.49998 7.91454 3.83577 8.25033 4.24998 8.25033C4.66419 8.25033 4.99998 7.91454 4.99998 7.50033H3.49998ZM11 7.50033C11 7.91454 11.3358 8.25033 11.75 8.25033C12.1642 8.25033 12.5 7.91454 12.5 7.50033H11ZM7.99673 12.167C7.58252 12.167 7.24673 12.5028 7.24673 12.917C7.24673 13.3312 7.58252 13.667 7.99673 13.667V12.167ZM8.00423 13.667C8.41844 13.667 8.75423 13.3312 8.75423 12.917C8.75423 12.5028 8.41844 12.167 8.00423 12.167V13.667ZM1.55649 15.7042L0.813194 15.8043C1.04728 17.543 2.48779 18.9186 4.26525 19.0003L4.2997 18.2511L4.33414 17.5019C3.30572 17.4546 2.44049 16.6493 2.29978 15.6042L1.55649 15.7042ZM4.2997 18.2511L4.26527 19.0003C5.45757 19.0551 6.66824 19.0837 7.99998 19.0837V18.3337L7.99998 17.5837C6.69055 17.5837 5.50284 17.5556 4.33413 17.5019L4.2997 18.2511ZM7.99998 18.3337V19.0837C9.33172 19.0837 10.5424 19.0551 11.7347 19.0003L11.7002 18.2511L11.6658 17.5019C10.4971 17.5556 9.30941 17.5837 7.99998 17.5837L7.99998 18.3337ZM11.7002 18.2511L11.7347 19.0003C13.5122 18.9186 14.9527 17.543 15.1868 15.8043L14.4435 15.7042L13.7002 15.6042C13.5595 16.6493 12.6943 17.4546 11.6658 17.5019L11.7002 18.2511ZM14.4435 15.7042L15.1868 15.8043C15.3105 14.8856 15.4166 13.9155 15.4166 12.917H14.6666H13.9166C13.9166 13.8145 13.8211 14.7062 13.7002 15.6041L14.4435 15.7042ZM14.6666 12.917H15.4166C15.4166 11.9185 15.3105 10.9483 15.1868 10.0296L14.4435 10.1297L13.7002 10.2298C13.8211 11.1278 13.9166 12.0195 13.9166 12.917H14.6666ZM14.4435 10.1297L15.1868 10.0297C14.9527 8.29098 13.5122 6.91541 11.7347 6.83369L11.7002 7.5829L11.6658 8.33211C12.6943 8.37939 13.5595 9.18468 13.7002 10.2298L14.4435 10.1297ZM11.7002 7.5829L11.7347 6.83369C10.5424 6.77888 9.3317 6.75033 7.99998 6.75033V7.50033V8.25033C9.30942 8.25033 10.4971 8.27839 11.6658 8.33211L11.7002 7.5829ZM7.99998 7.50033V6.75033C6.66825 6.75033 5.45757 6.77888 4.26526 6.83369L4.2997 7.5829L4.33414 8.33211C5.50283 8.27839 6.69054 8.25033 7.99998 8.25033V7.50033ZM4.2997 7.5829L4.26525 6.83369C2.48778 6.91541 1.04728 8.29097 0.813194 10.0297L1.55649 10.1297L2.29978 10.2298C2.44049 9.18468 3.30573 8.37939 4.33414 8.33211L4.2997 7.5829ZM1.55649 10.1297L0.813196 10.0297C0.689496 10.9483 0.583313 11.9185 0.583313 12.917H1.33331H2.08331C2.08331 12.0195 2.17886 11.1278 2.29978 10.2298L1.55649 10.1297ZM1.33331 12.917H0.583313C0.583313 13.9155 0.689496 14.8857 0.813196 15.8043L1.55649 15.7042L2.29978 15.6042C2.17886 14.7062 2.08331 13.8145 2.08331 12.917H1.33331ZM4.24998 7.50033H4.99998V5.41699H4.24998H3.49998V7.50033H4.24998ZM4.24998 5.41699H4.99998C4.99998 3.76014 6.34313 2.41699 7.99998 2.41699V1.66699V0.916992C5.5147 0.916992 3.49998 2.93171 3.49998 5.41699H4.24998ZM7.99998 1.66699V2.41699C9.65685 2.41699 11 3.76014 11 5.41699H11.75H12.5C12.5 2.93171 10.4853 0.916992 7.99998 0.916992V1.66699ZM11.75 5.41699H11V7.50033H11.75H12.5V5.41699H11.75ZM7.99673 12.917V13.667H8.00423V12.917V12.167H7.99673V12.917Z" fill="#3961B2"/>
</svg>
