<svg width="12" height="12" viewBox="0 0 12 12" fill="none" xmlns="http://www.w3.org/2000/svg">
<path d="M5.22612 0.750977C3.09759 0.754803 1.98298 0.807058 1.27066 1.51936C0.501953 2.28805 0.501953 3.52524 0.501953 5.99959C0.501953 8.47397 0.501953 9.71116 1.27066 10.4798C2.03937 11.2485 3.2766 11.2485 5.75106 11.2485C8.22544 11.2485 9.46269 11.2485 10.2314 10.4798C10.9437 9.76757 10.996 8.653 10.9998 6.52453M10.6977 1.05164L7.46064 4.27981M10.6977 1.05164C10.4096 0.76318 8.46846 0.790071 8.05809 0.795905M10.6977 1.05164C10.9858 1.34011 10.959 3.28335 10.9532 3.69416" stroke="#163066" stroke-linecap="round" stroke-linejoin="round"/>
</svg>
