<svg width="12" height="14" viewBox="0 0 12 14" fill="none" xmlns="http://www.w3.org/2000/svg">
<path d="M11.2077 7.00032C11.2077 8.07421 10.3371 8.94477 9.26324 8.94477C8.87486 8.94477 8.41699 8.87672 8.03939 8.9779C7.70388 9.0678 7.44182 9.32986 7.35192 9.66536C7.25074 10.043 7.31879 10.5008 7.31879 10.8892C7.31879 11.9631 6.44824 12.8337 5.37435 12.8337M3.91602 4.08366H7.99935M3.91602 6.41699H5.66602M4.89708 12.8337C3.84762 12.8337 3.32289 12.8337 2.9038 12.6865C2.23006 12.45 1.69862 11.9499 1.44733 11.3157C1.29102 10.9213 1.29102 10.4274 1.29102 9.43972V5.83366C1.29102 3.63377 1.29102 2.53383 2.01715 1.85041C2.74328 1.16699 3.91197 1.16699 6.24935 1.16699H6.70011C8.60248 1.16699 9.55366 1.16699 10.2142 1.6324C10.4035 1.76574 10.5715 1.92388 10.7132 2.10201C11.2077 2.72372 11.2077 3.61895 11.2077 5.40942V6.89426C11.2077 8.62278 11.2077 9.48704 10.9341 10.1773C10.4944 11.287 9.56435 12.1623 8.38531 12.5762C7.6519 12.8337 6.73362 12.8337 4.89708 12.8337Z" stroke="#163066" stroke-linecap="round" stroke-linejoin="round"/>
</svg>
