<svg width="16" height="16" viewBox="0 0 16 16" fill="none" xmlns="http://www.w3.org/2000/svg">
<path d="M12.959 10.2927C13.5754 9.6808 14.0513 9.07273 14.3623 8.63667C14.565 8.35247 14.6663 8.21033 14.6663 8C14.6663 7.78967 14.565 7.64753 14.3623 7.36333C13.4516 6.08629 11.1258 3.33333 7.99967 3.33333C7.39447 3.33333 6.81927 3.43651 6.27852 3.61218M4.49795 4.49828C3.15379 5.4048 2.16111 6.62844 1.63703 7.36333C1.43435 7.64753 1.33301 7.78967 1.33301 8C1.33301 8.21033 1.43435 8.35247 1.63703 8.63667C2.54774 9.91373 4.87353 12.6667 7.99967 12.6667C9.32687 12.6667 10.5097 12.1705 11.5014 11.5017M6.57158 6.66667C6.21823 7.02 5.99967 7.5082 5.99967 8.0474C5.99967 9.1258 6.87387 10 7.95227 10C8.49147 10 8.97967 9.78147 9.33301 9.42807M1.99967 2L13.9997 14" stroke="#7A7A7A"/>
</svg>
